{
.appVersion = "3316";
.formatVersion = 3;
axes = (
{
name = "Optical size";
tag = opsz;
},
{
name = Weight;
tag = wght;
}
);
classes = (
{
automatic = 1;
code = "A B C D E F G H I J K L M N O P Q R S T U V W X Y Z AE Lslash Oslash OE Eth Thorn Ccedilla uni03A9 Aacute Acircumflex Adieresis Agrave Aring Atilde Eacute Ecircumflex Edieresis Egrave Iacute Icircumflex Idieresis Igrave Ntilde Oacute Ocircumflex Odieresis Ograve Otilde Scaron Uacute Ucircumflex Udieresis Ugrave Yacute Ydieresis Zcaron Abreve Abreveacute Abrevedotbelow Abrevegrave Abrevetilde Acircumflexacute Acircumflexdotbelow Acircumflexgrave Acircumflextilde Adotbelow Amacron Aogonek Aringacute AEacute Bhook Cacute Ccaron Ccircumflex Cdotaccent Dcaron Dcroat Dhook Ebreve Ecaron Ecircumflexacute Ecircumflexdotbelow Ecircumflexgrave Ecircumflextilde Edotaccent Edotbelow Emacron Eogonek Eopen Ereversed Etilde Schwa Ezh Fhook Gacute Gbreve Gcaron Gcircumflex Gcommaaccent Gdotaccent Hbar Hcircumflex IJ Ibreve Idotaccent Idotbelow Imacron Iogonek Itilde Jcircumflex Kcommaaccent Khook Lacute Lcaron Lcommaaccent Ldot Nacute Ncaron Ncommaaccent Ngrave Eng Obreve Ocircumflexacute Ocircumflexdotbelow Ocircumflexgrave Ocircumflextilde Odotbelow Ohorn Ohornacute Ohorndotbelow Ohorngrave Ohornhookabove Ohorntilde Ohungarumlaut Omacron Oogonek Oopen Oslashacute Racute Rcaron Rcommaaccent Sacute Scedilla Scircumflex Scommaaccent Sdotbelow Germandbls Tbar Tcaron Tcedilla Tcommaaccent Ubreve Udotbelow Uhorn Uhornacute Uhorndotbelow Uhorngrave Uhorntilde Uhungarumlaut Umacron Uogonek Uring Utilde uni0194 Vhook Wacute Wcircumflex Wdieresis Wgrave Ycircumflex Ydotbelow Ygrave Yhook Yhookabove Ymacron Ytilde Zacute Zdotaccent uni0189 uni01A9";
name = Uppercase;
}
);
customParameters = (
{
name = panose;
value = (
2,
2,
5,
3,
6,
4,
6,
3,
3,
4
);
},
{
name = unicodeRanges;
value = (
0,
1,
2,
3,
5,
7,
31,
32,
33,
35,
36,
38,
45,
60,
62
);
},
{
name = fsType;
value = (
2
);
},
{
name = glyphOrder;
value = (
.notdef,
NULL,
CR,

glyphs = (
{
color = 3;
glyphname = .notdef;
lastChange = "2024-10-18 09:44:49 +0000";
layers = (
{
background = {
shapes = (
{
closed = 1;
nodes = (
(547,0,l),
(547,756,l),
(7,756,l),
(7,0,l)
);
},
{
closed = 1;
nodes = (
(277,329,l),
(461,54,l),
(93,54,l)
);
},
{
closed = 1;
nodes = (
(61,653,l),
(245,378,l),
(61,103,l)
);
},
{
closed = 1;
nodes = (
(309,378,l),
(493,653,l),
(493,103,l)
);
},
{
closed = 1;
nodes = (
(93,702,l),
(461,702,l),
(277,427,l)
);
}
);
};
layerId = "C56BE457-17E3-437C-A42F-4BD1DE972727";
shapes = (
{
closed = 1;
nodes = (
(490,0,l),
(490,629,l),
(80,629,l),
(80,0,l)
);
},
{
closed = 1;
nodes = (
(141,572,l),
(428,572,l),
(428,57,l),
(141,57,l)
);
}
);
width = 570;
},
{
background = {
shapes = (
{
closed = 1;
nodes = (
(547,0,l),
(547,756,l),
(7,756,l),
(7,0,l)
);
},
{
closed = 1;
nodes = (
(277,329,l),
(461,54,l),
(93,54,l)
);
},
{
closed = 1;
nodes = (
(61,653,l),
(245,378,l),
(61,103,l)
);
},
{
closed = 1;
nodes = (
(309,378,l),
(493,653,l),
(493,103,l)
);
},
{
closed = 1;
nodes = (
(93,702,l),
(461,702,l),
(277,427,l)
);
}
);
};
layerId = "3B95F746-F211-4218-A5C8-A7CCC072D238";
shapes = (
{
closed = 1;
nodes = (
(490,0,l),
(490,629,l),
(80,629,l),
(80,0,l)
);
},
{
closed = 1;
nodes = (
(141,572,l),
(428,572,l),
(428,57,l),
(141,57,l)
);
}
);
width = 570;
},
{
background = {
shapes = (
{
closed = 1;
nodes = (
(547,0,l),
(547,756,l),
(7,756,l),
(7,0,l)
);
},
{
closed = 1;
nodes = (
(277,329,l),
(461,54,l),
(93,54,l)
);
},
{
closed = 1;
nodes = (
(61,653,l),
(245,378,l),
(61,103,l)
);
},
{
closed = 1;
nodes = (
(309,378,l),
(493,653,l),
(493,103,l)
);
},
{
closed = 1;
nodes = (
(93,702,l),
(461,702,l),
(277,427,l)
);
}
);
};
layerId = "D1413726-767D-4628-9B63-3A1C0748A050";
shapes = (
{
closed = 1;
nodes = (
(490,0,l),
(490,629,l),
(80,629,l),
(80,0,l)
);
},
{
closed = 1;
nodes = (
(141,572,l),
(428,572,l),
(428,57,l),
(141,57,l)
);
}
);
width = 570;
},
{
background = {
shapes = (
{
closed = 1;
nodes = (
(547,0,l),
(547,756,l),
(7,756,l),
(7,0,l)
);
},
{
closed = 1;
nodes = (
(277,329,l),
(461,54,l),
(93,54,l)
);
},
{
closed = 1;
nodes = (
(61,653,l),
(245,378,l),
(61,103,l)
);
},
{
closed = 1;
nodes = (
(309,378,l),
(493,653,l),
(493,103,l)
);
},
{
closed = 1;
nodes = (
(93,702,l),
(461,702,l),
(277,427,l)
);
}
);
};
layerId = "E7B116FE-7576-4B50-8DFF-8E55DA3EEB52";
shapes = (
{
closed = 1;
nodes = (
(490,0,l),
(490,629,l),
(80,629,l),
(80,0,l)
);
},
{
closed = 1;
nodes = (
(141,572,l),
(428,572,l),
(428,57,l),
(141,57,l)
);
}
);
width = 570;
}
);
note = .notdef;
},
{
color = 3;
glyphname = A;
kernLeft = A;
kernRight = A;
lastChange = "2024-10-18 09:19:06 +0000";
layers = (
{
anchors = (
{
name = bottom;
pos = (304,0);
},
{
name = ogonek;
pos = (566,10);
},
{
name = top;
pos = (296,629);
}
);
background = {
shapes = (
{
closed = 1;
nodes = (
(25,0,o),
(50,0,o),
(79,0,cs),
(118,0,o),
(125,-1,o),
(170,-3,c),
(170,13,l),
(153,13,ls),
(125,13,o),
(103,18,o),
(103,42,cs),
(103,61,o),
(111,83,o),
(113,90,cs),
(171,260,l),
(339,260,l),
(413,64,ls),
(416,57,o),
(417,49,o),
(417,41,cs),
(417,18,o),
(402,13,o),
(376,13,cs),
(361,13,l),
(361,-3,l),
(397,-1,o),
(427,0,o),
(461,0,cs),
(494,0,o),
(522,-1,o),
(562,-3,c),
(562,13,l),
(549,13,ls),
(505,13,o),
(501,23,o),
(458,138,cs),
(285,596,l),
(262,596,l),
(81,61,ls),
(65,13,o),
(46,13,o),
(0,13,c),
(0,-3,l)
);
},
{
closed = 1;
nodes = (
(249,493,l),
(328,288,l),
(180,288,l)
);
}
);
};
hints = (
{
horizontal = 1;
origin = (0,42);
target = (0,41);
type = Stem;
},
{
horizontal = 1;
origin = (1,3);
target = (1,2);
type = Stem;
},
{
horizontal = 1;
origin = (0,36);
target = down;
type = TopGhost;
}
);
layerId = "C56BE457-17E3-437C-A42F-4BD1DE972727";
shapes = (
{
closed = 1;
nodes = (
(27,-1,o),
(54,0,o),
(85,0,cs),
(127,0,o),
(135,-1,o),
(184,-3,c),
(184,24,l),
(171,24,ls),
(140,24,o),
(119,29,o),
(119,54,cs),
(119,70,o),
(125,87,o),
(130,102,cs),
(270,522,l),
(428,98,ls),
(434,82,o),
(441,62,o),
(441,49,cs),
(441,29,o),
(425,24,o),
(397,24,cs),
(381,24,l),
(381,-3,l),
(420,-1,o),
(452,0,o),
(498,0,cs),
(534,0,o),
(564,-1,o),
(607,-3,c),
(607,24,l),
(593,24,ls),
(545,24,o),
(543,33,o),
(495,158,cs),
(308,644,l),
(283,644,l),
(91,82,ls),
(71,24,o),
(51,24,o),
(1,24,c),
(0,24,l),
(0,-3,l)
);
},
{
closed = 1;
nodes = (
(409,275,l),
(397,308,l),
(184,308,l),
(174,275,l)
);
}
);
width = 607;
},
{
anchors = (
{
name = bottom;
pos = (323,0);
},
{
name = ogonek;
pos = (591,10);
},
{
name = top;
pos = (323,629);
}
);
layerId = "3B95F746-F211-4218-A5C8-A7CCC072D238";
shapes = (
{
closed = 1;
nodes = (
(55,-1,o),
(72,0,o),
(105,0,cs),
(137,0,o),
(191,-3,o),
(225,-3,c),
(225,29,l),
(222,29,ls),
(199,29,o),
(151,37,o),
(151,81,cs),
(151,106,o),
(163,137,o),
(171,159,cs),
(273,441,l),
(375,146,ls),
(383,123,o),
(397,88,o),
(397,61,cs),
(397,34,o),
(382,29,o),
(346,29,cs),
(332,29,l),
(332,-3,l),
(364,-1,o),
(441,0,o),
(488,0,cs),
(542,0,o),
(633,-1,o),
(654,-3,c),
(654,29,l),
(648,29,ls),
(587,29,o),
(578,37,o),
(537,149,cs),
(355,646,l),
(309,646,l),
(116,140,ls),
(88,66,o),
(75,29,o),
(3,29,c),
(0,29,l),
(0,-3,l)
);
},
{
closed = 1;
nodes = (
(455,225,l),
(434,270,l),
(177,270,l),
(157,225,l)
);
}
);
width = 645;
},
{
anchors = (
{
name = bottom;
pos = (293,0);
},
{
name = ogonek;
pos = (547,10);
},
{
name = top;
pos = (293,629);
}
);
background = {
shapes = (
{
closed = 1;
nodes = (
(15,0,o),
(40,0,o),
(69,0,cs),
(108,0,o),
(115,-1,o),
(160,-3,c),
(160,13,l),
(143,13,ls),
(115,13,o),
(93,18,o),
(93,42,cs),
(93,61,o),
(101,83,o),
(103,90,cs),
(161,260,l),
(329,260,l),
(403,64,ls),
(406,57,o),
(407,49,o),
(407,41,cs),
(407,18,o),
(392,13,o),
(366,13,cs),
(351,13,l),
(351,-3,l),
(387,-1,o),
(417,0,o),
(451,0,cs),
(484,0,o),
(512,-1,o),
(552,-3,c),
(552,13,l),
(539,13,ls),
(495,13,o),
(491,23,o),
(448,138,cs),
(275,596,l),
(252,596,l),
(71,61,ls),
(55,13,o),
(36,13,o),
(-10,13,c),
(-10,-3,l)
);
},
{
closed = 1;
nodes = (
(239,493,l),
(318,288,l),
(170,288,l)
);
}
);
};
layerId = "D1413726-767D-4628-9B63-3A1C0748A050";
shapes = (
{
closed = 1;
nodes = (
(16,-1,o),
(43,0,o),
(75,0,cs),
(109,0,o),
(117,-1,o),
(165,-3,c),
(165,8,l),
(152,8,ls),
(122,8,o),
(97,13,o),
(97,39,cs),
(97,51,o),
(103,72,o),
(108,86,cs),
(260,536,l),
(427,83,ls),
(433,67,o),
(440,46,o),
(440,33,cs),
(440,13,o),
(423,8,o),
(395,8,cs),
(379,8,l),
(379,-3,l),
(418,-1,o),
(450,0,o),
(487,0,cs),
(523,0,o),
(553,-1,o),
(596,-3,c),
(596,8,l),
(582,8,ls),
(535,8,o),
(536,19,o),
(484,157,cs),
(302,644,l),
(277,644,l),
(77,67,ls),
(57,8,o),
(40,8,o),
(-10,8,c),
(-11,8,l),
(-11,-3,l)
);
},
{
closed = 1;
nodes = (
(399,288,l),
(385,306,l),
(171,306,l),
(163,288,l)
);
}
);
width = 585;
},
{
anchors = (
{
name = bottom;
pos = (313,0);
},
{
name = ogonek;
pos = (583,10);
},
{
name = top;
pos = (313,629);
}
);
layerId = "E7B116FE-7576-4B50-8DFF-8E55DA3EEB52";
shapes = (
{
closed = 1;
nodes = (
(30,-1,o),
(53,0,o),
(72,0,cs),
(106,0,o),
(147,-2,o),
(192,-3,c),
(192,11,l),
(186,11,ls),
(154,11,o),
(113,17,o),
(113,51,cs),
(113,71,o),
(122,99,o),
(129,118,cs),
(259,467,l),
(378,109,ls),
(384,92,o),
(394,64,o),
(394,46,cs),
(394,17,o),
(375,11,o),
(332,11,cs),
(316,11,l),
(316,-3,l),
(355,-1,o),
(415,0,o),
(467,0,cs),
(506,0,o),
(614,-1,o),
(646,-3,c),
(646,11,l),
(642,11,ls),
(585,11,o),
(569,18,o),
(526,140,cs),
(350,645,l),
(297,645,l),
(119,177,ls),
(63,30,o),
(52,11,o),
(-9,11,c),
(-11,11,l),
(-11,-3,l)
);
},
{
closed = 1;
nodes = (
(421,248,l),
(405,279,l),
(166,279,l),
(159,248,l)
);
}
);
width = 625;
}
);
note = A;
unicode = 65;
},
{
color = 3;
glyphname = AE;
kernLeft = A;
kernRight = E;
lastChange = "2024-10-18 09:15:43 +0000";
layers = (
{
anchors = (
{
name = bottom;
pos = (411,0);
},
{
name = top;
pos = (501,629);
}
);
layerId = "C56BE457-17E3-437C-A42F-4BD1DE972727";
shapes = (
{
closed = 1;
nodes = (
(35,-2,o),
(60,0,o),
(90,0,cs),
(129,0,o),
(155,-2,o),
(187,-3,c),
(187,24,l),
(146,24,o),
(119,32,o),
(119,58,cs),
(119,64,o),
(121,74,o),
(128,86,cs),
(255,314,l),
(404,314,l),
(404,86,ls),
(404,24,o),
(387,24,o),
(328,24,c),
(328,-3,l),
(361,-1,o),
(505,0,o),
(527,0,cs),
(582,0,o),
(693,-2,o),
(760,-3,c),
(805,126,l),
(778,126,l),
(737,55,o),
(718,29,o),
(659,29,cs),
(533,29,ls),
(504,29,o),
(489,44,o),
(489,79,cs),
(489,314,l),
(633,314,ls),
(672,314,o),
(695,283,o),
(696,229,c),
(723,229,l),
(723,418,l),
(696,418,l),
(693,378,o),
(685,347,o),
(639,347,cs),
(489,347,l),
(489,598,l),
(648,598,ls),
(720,598,o),
(731,564,o),
(736,497,c),
(763,497,l),
(759,632,l),
(694,630,o),
(633,629,o),
(562,629,cs),
(483,629,o),
(369,630,o),
(303,632,c),
(303,603,l),
(340,603,o),
(367,603,o),
(367,583,cs),
(367,570,o),
(360,557,o),
(340,521,cs),
(87,76,ls),
(66,39,o),
(56,24,o),
(0,24,c),
(0,-3,l)
);
},
{
closed = 1;
nodes = (
(403,578,l),
(403,347,l),
(271,347,l)
);
}
);
width = 821;
},
{
anchors = (
{
name = bottom;
pos = (450,0);
},
{
name = top;
pos = (545,629);
}
);
layerId = "3B95F746-F211-4218-A5C8-A7CCC072D238";
shapes = (
{
closed = 1;
nodes = (
(39,-3,o),
(68,0,o),
(82,0,cs),
(104,0,o),
(168,-3,o),
(197,-3,c),
(197,29,l),
(168,30,o),
(134,35,o),
(134,63,cs),
(134,80,o),
(142,97,o),
(149,111,cs),
(250,316,l),
(384,316,l),
(384,83,ls),
(384,32,o),
(332,29,o),
(292,29,c),
(292,-3,l),
(318,-3,o),
(358,0,o),
(548,0,cs),
(594,0,o),
(732,-2,o),
(817,-3,c),
(862,138,l),
(830,138,l),
(802,74,o),
(772,43,o),
(673,43,cs),
(594,43,ls),
(562,43,o),
(540,67,o),
(540,99,cs),
(540,316,l),
(678,316,ls),
(718,316,o),
(734,292,o),
(740,233,c),
(772,233,l),
(772,431,l),
(740,431,l),
(736,374,o),
(715,355,o),
(678,355,cs),
(540,355,l),
(540,587,l),
(686,587,ls),
(766,587,o),
(789,560,o),
(788,489,c),
(820,489,l),
(820,632,l),
(712,632,o),
(618,631,o),
(521,631,c),
(442,631,o),
(342,634,o),
(263,634,c),
(263,602,l),
(292,602,o),
(334,601,o),
(334,578,cs),
(334,566,o),
(330,555,o),
(311,519,cs),
(116,144,ls),
(62,40,o),
(53,29,o),
(0,29,c),
(0,-3,l)
);
},
{
closed = 1;
nodes = (
(383,573,l),
(384,355,l),
(272,355,l)
);
}
);
width = 900;
},
{
anchors = (
{
name = bottom;
pos = (419,0);
},
{
name = top;
pos = (493,629);
}
);
layerId = "D1413726-767D-4628-9B63-3A1C0748A050";
shapes = (
{
closed = 1;
nodes = (
(35,-2,o),
(60,0,o),
(90,0,cs),
(119,0,o),
(145,-2,o),
(177,-3,c),
(177,8,l),
(136,8,o),
(109,16,o),
(109,42,cs),
(109,48,o),
(112,58,o),
(118,70,cs),
(252,323,l),
(404,323,l),
(404,62,ls),
(404,8,o),
(379,8,o),
(325,8,c),
(325,-3,l),
(379,-3,o),
(522,0,o),
(554,0,cs),
(616,0,o),
(680,-1,o),
(747,-3,c),
(795,114,l),
(784,114,l),
(748,48,o),
(718,18,o),
(657,18,cs),
(522,18,ls),
(496,18,o),
(482,36,o),
(482,67,cs),
(482,322,l),
(634,322,ls),
(681,322,o),
(700,294,o),
(701,237,c),
(712,237,l),
(712,412,l),
(701,412,l),
(698,364,o),
(683,340,o),
(654,340,cs),
(481,340,l),
(481,611,l),
(630,611,ls),
(718,611,o),
(734,580,o),
(740,505,c),
(751,505,l),
(747,632,l),
(664,630,o),
(580,629,o),
(559,629,cs),
(470,629,o),
(319,632,o),
(293,632,c),
(293,621,l),
(336,621,o),
(367,621,o),
(367,597,cs),
(367,581,o),
(360,567,o),
(350,549,cs),
(87,60,ls),
(66,22,o),
(38,8,o),
(0,8,c),
(0,-3,l)
);
},
{
closed = 1;
nodes = (
(403,610,l),
(403,340,l),
(261,340,l)
);
}
);
width = 818;
},
{
anchors = (
{
name = bottom;
pos = (415,0);
},
{
name = top;
pos = (549,629);
}
);
layerId = "E7B116FE-7576-4B50-8DFF-8E55DA3EEB52";
shapes = (
{
closed = 1;
nodes = (
(39,-3,o),
(68,0,o),
(82,0,cs),
(104,0,o),
(151,-3,o),
(180,-3,c),
(180,11,l),
(151,12,o),
(115,17,o),
(115,45,cs),
(115,62,o),
(124,79,o),
(131,93,cs),
(241,315,l),
(383,315,l),
(383,64,ls),
(383,12,o),
(344,11,o),
(288,11,c),
(288,-3,l),
(346,-1,o),
(533,0,o),
(602,0,cs),
(664,0,o),
(734,-2,o),
(810,-3,c),
(855,133,l),
(839,133,l),
(813,75,o),
(759,31,o),
(688,31,cs),
(596,31,ls),
(562,31,o),
(543,51,o),
(543,84,cs),
(543,318,l),
(674,318,ls),
(715,318,o),
(734,289,o),
(742,233,c),
(756,233,l),
(756,422,l),
(742,422,l),
(735,374,o),
(715,349,o),
(667,349,cs),
(544,349,l),
(544,597,l),
(678,597,ls),
(749,597,o),
(786,565,o),
(788,496,c),
(802,496,l),
(800,632,l),
(713,632,o),
(607,629,o),
(575,629,cs),
(540,629,o),
(366,630,o),
(269,632,c),
(269,618,l),
(296,618,o),
(344,618,o),
(344,594,cs),
(344,579,o),
(335,560,o),
(328,546,cs),
(117,126,ls),
(64,21,o),
(53,11,o),
(0,11,c),
(0,-3,l)
);
},
{
closed = 1;
nodes = (
(383,607,l),
(383,346,l),
(258,346,l)
);
}
);
width = 877;
}
);
metricRight = E;
note = AE;
unicode = 198;
},
{
color = 3;
glyphname = B;
kernLeft = H;
kernRight = B;
lastChange = "2024-10-18 09:19:06 +0000";
layers = (
{
anchors = (
{
name = bottom;
pos = (291,0);
},
{
name = center;
pos = (291,315);
},
{
name = top;
pos = (291,629);
}
);
hints = (
{
horizontal = 1;
origin = (1,6);
target = (2,12);
type = Stem;
},
{
horizontal = 1;
origin = (0,17);
target = (2,6);
type = Stem;
},
{
horizontal = 1;
origin = (0,20);
target = down;
type = TopGhost;
},
{
origin = (0,25);
target = (2,3);
type = Stem;
},
{
origin = (1,9);
target = (0,8);
type = Stem;
},
{
horizontal = 1;
origin = (0,29);
target = (0,28);
type = Stem;
}
);
layerId = "C56BE457-17E3-437C-A42F-4BD1DE972727";
shapes = (
{
closed = 1;
nodes = (
(78,-2,o),
(143,0,o),
(160,0,cs),
(216,0,o),
(249,-3,o),
(285,-3,cs),
(480,-3,o),
(532,108,o),
(532,180,cs),
(532,237,o),
(488,328,o),
(336,341,c),
(419,386,o),
(460,441,o),
(460,505,cs),
(460,586,o),
(387,640,o),
(260,640,cs),
(197,640,o),
(97,634,o),
(36,629,c),
(36,602,l),
(96,602,o),
(114,602,o),
(114,543,cs),
(114,89,ls),
(114,26,o),
(95,24,o),
(36,24,c),
(36,-3,l)
);
},
{
closed = 1;
nodes = (
(218,25,o),
(199,31,o),
(199,80,cs),
(199,315,l),
(221,318,o),
(246,319,o),
(265,319,cs),
(367,319,o),
(440,274,o),
(440,167,cs),
(440,67,o),
(383,25,o),
(272,25,cs)
);
},
{
closed = 1;
nodes = (
(228,346,o),
(209,347,o),
(199,348,c),
(199,610,l),
(223,613,o),
(237,615,o),
(250,615,cs),
(331,615,o),
(377,561,o),
(377,480,cs),
(377,388,o),
(330,346,o),
(240,346,cs)
);
}
);
width = 575;
},
{
anchors = (
{
name = bottom;
pos = (330,0);
},
{
name = center;
pos = (330,315);
},
{
name = top;
pos = (330,629);
}
);
background = {
shapes = (
{
closed = 1;
nodes = (
(74,-4,o),
(101,0,o),
(157,0,cs),
(164,0,o),
(241,-3,o),
(320,-3,cs),
(421,-3,o),
(587,28,o),
(587,171,cs),
(587,287,o),
(488,314,o),
(380,322,c),
(478,357,o),
(518,408,o),
(518,474,cs),
(518,527,o),
(485,593,o),
(305,593,cs),
(195,593,o),
(58,581,o),
(11,580,c),
(11,557,l),
(77,555,o),
(96,549,o),
(96,501,cs),
(96,58,ls),
(96,20,o),
(46,24,o),
(13,24,c),
(13,-3,l)
);
},
{
closed = 1;
nodes = (
(276,41,o),
(243,49,o),
(243,90,cs),
(243,282,l),
(259,286,o),
(270,289,o),
(282,289,cs),
(386,289,o),
(427,268,o),
(427,171,cs),
(427,94,o),
(391,41,o),
(316,41,cs)
);
},
{
closed = 1;
nodes = (
(258,318,o),
(254,317,o),
(243,318,c),
(243,557,l),
(243,558,o),
(258,561,o),
(270,561,cs),
(355,561,o),
(377,545,o),
(377,452,cs),
(377,349,o),
(344,318,o),
(267,318,cs)
);
}
);
};
layerId = "3B95F746-F211-4218-A5C8-A7CCC072D238";
shapes = (
{
closed = 1;
nodes = (
(72,-3,o),
(117,0,o),
(187,0,cs),
(221,0,o),
(286,-3,o),
(353,-3,cs),
(515,-3,o),
(612,79,o),
(612,185,cs),
(612,274,o),
(536,334,o),
(431,345,c),
(502,377,o),
(550,434,o),
(550,497,cs),
(550,581,o),
(476,640,o),
(306,640,cs),
(202,640,o),
(68,631,o),
(11,627,c),
(11,595,l),
(82,594,o),
(103,590,o),
(103,535,cs),
(103,86,ls),
(103,35,o),
(66,29,o),
(18,29,c),
(18,-3,l)
);
},
{
closed = 1;
nodes = (
(283,35,o),
(260,42,o),
(260,89,cs),
(260,306,l),
(276,309,o),
(293,311,o),
(307,311,cs),
(394,311,o),
(442,271,o),
(442,165,cs),
(442,73,o),
(404,35,o),
(328,35,cs)
);
},
{
closed = 1;
nodes = (
(278,348,o),
(272,348,o),
(260,349,c),
(260,602,l),
(269,604,o),
(278,605,o),
(287,605,cs),
(350,605,o),
(395,559,o),
(395,471,cs),
(395,386,o),
(346,348,o),
(286,348,cs)
);
}
);
width = 660;
},
{
anchors = (
{
name = bottom;
pos = (285,0);
},
{
name = center;
pos = (285,315);
},
{
name = top;
pos = (285,629);
}
);
layerId = "D1413726-767D-4628-9B63-3A1C0748A050";
shapes = (
{
closed = 1;
nodes = (
(78,-2,o),
(137,0,o),
(154,0,cs),
(210,0,o),
(243,-3,o),
(279,-3,cs),
(463,-3,o),
(526,99,o),
(526,178,cs),
(526,235,o),
(481,325,o),
(323,338,c),
(410,383,o),
(454,440,o),
(454,505,cs),
(454,586,o),
(381,639,o),
(254,639,cs),
(191,639,o),
(97,633,o),
(36,627,c),
(36,617,l),
(96,617,o),
(114,617,o),
(114,555,cs),
(114,70,ls),
(114,8,o),
(95,8,o),
(36,8,c),
(36,-3,l)
);
},
{
closed = 1;
nodes = (
(212,11,o),
(193,15,o),
(193,62,cs),
(193,319,l),
(215,321,o),
(240,322,o),
(259,322,cs),
(365,322,o),
(440,284,o),
(440,167,cs),
(440,55,o),
(381,11,o),
(266,11,cs)
);
},
{
closed = 1;
nodes = (
(222,336,o),
(207,336,o),
(193,337,c),
(193,621,l),
(206,623,o),
(231,625,o),
(244,625,cs),
(329,625,o),
(377,567,o),
(377,480,cs),
(377,387,o),
(328,336,o),
(234,336,cs)
);
}
);
width = 569;
},
{
anchors = (
{
name = bottom;
pos = (329,0);
},
{
name = center;
pos = (329,315);
},
{
name = top;
pos = (329,629);
}
);
layerId = "E7B116FE-7576-4B50-8DFF-8E55DA3EEB52";
shapes = (
{
closed = 1;
nodes = (
(68,-3,o),
(134,0,o),
(173,0,cs),
(226,0,o),
(278,-3,o),
(338,-3,cs),
(473,-3,o),
(612,62,o),
(612,192,cs),
(612,283,o),
(544,336,o),
(424,351,c),
(503,387,o),
(551,436,o),
(551,505,cs),
(551,580,o),
(490,641,o),
(313,641,cs),
(233,641,o),
(69,631,o),
(13,628,c),
(13,614,l),
(79,613,o),
(98,611,o),
(98,556,cs),
(98,62,ls),
(98,10,o),
(62,11,o),
(14,11,c),
(14,-3,l)
);
},
{
closed = 1;
nodes = (
(283,14,o),
(260,22,o),
(260,67,cs),
(260,321,l),
(274,324,o),
(291,326,o),
(303,326,cs),
(392,326,o),
(440,278,o),
(440,170,cs),
(440,69,o),
(402,14,o),
(325,14,cs)
);
},
{
closed = 1;
nodes = (
(275,343,o),
(271,343,o),
(260,344,c),
(260,621,l),
(274,623,o),
(287,624,o),
(297,624,cs),
(354,624,o),
(393,570,o),
(393,478,cs),
(393,391,o),
(348,343,o),
(283,343,cs)
);
}
);
width = 657;
}
);
metricLeft = H;
metricRight = O;
note = B;
unicode = 66;
},
{
color = 3;
glyphname = Bhook;
lastChange = "2024-10-18 09:15:43 +0000";
layers = (
{
layerId = "C56BE457-17E3-437C-A42F-4BD1DE972727";
shapes = (
{
closed = 1;
nodes = (
(194,-2,o),
(259,0,o),
(276,0,cs),
(332,0,o),
(365,-3,o),
(401,-3,cs),
(596,-3,o),
(648,108,o),
(648,180,cs),
(648,237,o),
(604,328,o),
(452,341,c),
(535,386,o),
(576,441,o),
(576,505,cs),
(576,586,o),
(503,640,o),
(356,640,cs),
(99,640,o),
(14,578,o),
(14,466,cs),
(14,427,o),
(31,405,o),
(53,405,cs),
(72,405,o),
(84,419,o),
(84,432,cs),
(84,460,o),
(45,482,o),
(45,512,cs),
(45,553,o),
(116,598,o),
(188,598,cs),
(220,598,o),
(230,588,o),
(230,543,cs),
(230,89,ls),
(230,26,o),
(211,24,o),
(152,24,c),
(152,-3,l)
);
},
{
closed = 1;
nodes = (
(334,25,o),
(315,31,o),
(315,80,cs),
(315,315,l),
(337,318,o),
(362,319,o),
(381,319,cs),
(483,319,o),
(556,274,o),
(556,167,cs),
(556,67,o),
(499,25,o),
(388,25,cs)
);
},
{
closed = 1;
nodes = (
(344,346,o),
(325,347,o),
(315,348,c),
(315,610,l),
(339,613,o),
(353,615,o),
(366,615,cs),
(447,615,o),
(493,561,o),
(493,480,cs),
(493,388,o),
(446,346,o),
(356,346,cs)
);
}
);
width = 691;
},
{
layerId = "3B95F746-F211-4218-A5C8-A7CCC072D238";
shapes = (
{
closed = 1;
nodes = (
(190,-3,o),
(235,0,o),
(305,0,cs),
(339,0,o),
(404,-3,o),
(471,-3,cs),
(633,-3,o),
(730,79,o),
(730,185,cs),
(730,274,o),
(654,334,o),
(549,345,c),
(620,377,o),
(668,434,o),
(668,497,cs),
(668,581,o),
(594,640,o),
(377,640,cs),
(93,640,o),
(5,567,o),
(5,458,cs),
(5,411,o),
(29,385,o),
(58,385,cs),
(84,385,o),
(103,402,o),
(103,428,cs),
(103,456,o),
(66,478,o),
(66,509,cs),
(66,551,o),
(125,591,o),
(196,591,cs),
(215,591,o),
(221,588,o),
(221,551,cs),
(221,85,ls),
(221,34,o),
(184,29,o),
(136,29,c),
(136,-3,l)
);
},
{
closed = 1;
nodes = (
(404,35,o),
(382,42,o),
(382,89,cs),
(382,306,l),
(397,309,o),
(412,311,o),
(425,311,cs),
(512,311,o),
(560,271,o),
(560,165,cs),
(560,73,o),
(522,35,o),
(446,35,cs)
);
},
{
closed = 1;
nodes = (
(397,348,o),
(392,348,o),
(382,349,c),
(382,602,l),
(390,604,o),
(397,605,o),
(405,605,cs),
(468,605,o),
(513,559,o),
(513,471,cs),
(513,386,o),
(464,348,o),
(404,348,cs)
);
}
);
width = 778;
},
{
layerId = "D1413726-767D-4628-9B63-3A1C0748A050";
shapes = (
{
closed = 1;
nodes = (
(205,-2,o),
(264,0,o),
(281,0,cs),
(337,0,o),
(370,-3,o),
(406,-3,cs),
(590,-3,o),
(653,99,o),
(653,178,cs),
(653,235,o),
(608,325,o),
(450,338,c),
(537,383,o),
(581,440,o),
(581,505,cs),
(581,586,o),
(508,640,o),
(367,640,cs),
(110,640,o),
(25,578,o),
(25,466,cs),
(25,427,o),
(42,405,o),
(64,405,cs),
(83,405,o),
(95,419,o),
(95,432,cs),
(95,460,o),
(56,482,o),
(56,512,cs),
(56,557,o),
(127,606,o),
(199,606,cs),
(231,606,o),
(241,593,o),
(241,548,cs),
(241,70,ls),
(241,8,o),
(222,8,o),
(163,8,c),
(163,-3,l)
);
},
{
closed = 1;
nodes = (
(339,11,o),
(320,15,o),
(320,62,cs),
(320,319,l),
(342,321,o),
(367,322,o),
(386,322,cs),
(492,322,o),
(567,284,o),
(567,167,cs),
(567,55,o),
(508,11,o),
(393,11,cs)
);
},
{
closed = 1;
nodes = (
(349,336,o),
(334,336,o),
(320,337,c),
(320,622,l),
(333,624,o),
(358,626,o),
(371,626,cs),
(456,626,o),
(504,567,o),
(504,480,cs),
(504,387,o),
(455,336,o),
(361,336,cs)
);
}
);
width = 696;
},
{
layerId = "E7B116FE-7576-4B50-8DFF-8E55DA3EEB52";
shapes = (
{
closed = 1;
nodes = (
(197,-3,o),
(263,0,o),
(302,0,cs),
(355,0,o),
(407,-3,o),
(467,-3,cs),
(602,-3,o),
(741,62,o),
(741,192,cs),
(741,283,o),
(673,336,o),
(553,351,c),
(632,387,o),
(680,436,o),
(680,505,cs),
(680,580,o),
(611,642,o),
(413,642,cs),
(100,642,o),
(11,568,o),
(11,458,cs),
(11,411,o),
(35,385,o),
(64,385,cs),
(90,385,o),
(109,402,o),
(109,428,cs),
(109,456,o),
(72,478,o),
(72,509,cs),
(72,559,o),
(136,611,o),
(212,611,cs),
(223,611,o),
(227,604,o),
(227,585,cs),
(227,62,ls),
(227,10,o),
(191,11,o),
(143,11,c),
(143,-3,l)
);
},
{
closed = 1;
nodes = (
(412,14,o),
(389,23,o),
(389,68,cs),
(389,320,l),
(403,324,o),
(420,326,o),
(432,326,cs),
(521,326,o),
(569,278,o),
(569,170,cs),
(569,69,o),
(531,14,o),
(454,14,cs)
);
},
{
closed = 1;
nodes = (
(404,343,o),
(400,343,o),
(389,344,c),
(389,621,l),
(405,624,o),
(416,625,o),
(426,625,cs),
(483,625,o),
(522,570,o),
(522,478,cs),
(522,391,o),
(477,343,o),
(412,343,cs)
);
}
);
width = 786;
}
);
metricLeft = T;
metricRight = B;
unicode = 385;
},
{
color = 3;
glyphname = C;
kernLeft = O;
kernRight = C;
lastChange = "2024-10-18 09:19:06 +0000";
layers = (
{
anchors = (
{
name = bottom;
pos = (317,0);
},
{
name = top;
pos = (387,629);
}
);
hints = (
{
horizontal = 1;
origin = (0,34);
target = (0,9);
type = Stem;
},
{
horizontal = 1;
origin = (0,28);
target = (0,15);
type = Stem;
},
{
origin = (0,31);
target = (0,12);
type = Stem;
}
);
layerId = "C56BE457-17E3-437C-A42F-4BD1DE972727";
shapes = (
{
closed = 1;
nodes = (
(486,-12,o),
(529,-9,o),
(570,-5,c),
(581,38,o),
(594,82,o),
(609,125,c),
(582,125,l),
(552,43,o),
(511,15,o),
(423,15,cs),
(243,15,o),
(140,124,o),
(140,328,cs),
(140,531,o),
(223,613,o),
(408,613,cs),
(526,613,o),
(572,580,o),
(573,499,c),
(600,499,l),
(598,547,o),
(598,593,o),
(600,641,c),
(570,635,o),
(556,635,o),
(540,635,cs),
(468,635,o),
(447,641,o),
(393,641,cs),
(138,641,o),
(43,459,o),
(43,321,cs),
(43,191,o),
(111,-12,o),
(446,-12,cs)
);
}
);
width = 631;
},
{
anchors = (
{
name = bottom;
pos = (344,0);
},
{
name = top;
pos = (413,629);
}
);
background = {
shapes = (
{
closed = 1;
nodes = (
(469,-11,o),
(553,-8,o),
(611,3,c),
(613,25,o),
(617,40,o),
(647,138,c),
(618,138,l),
(602,68,o),
(522,30,o),
(423,30,cs),
(304,30,o),
(208,139,o),
(208,296,cs),
(208,458,o),
(282,560,o),
(433,560,cs),
(606,560,o),
(597,468,o),
(596,449,c),
(623,449,l),
(623,493,o),
(623,538,o),
(625,588,c),
(623,589,o),
(592,589,o),
(573,589,cs),
(547,589,o),
(449,600,o),
(405,600,cs),
(231,600,o),
(46,515,o),
(46,275,cs),
(46,-21,o),
(312,-11,o),
(424,-11,cs)
);
}
);
};
layerId = "3B95F746-F211-4218-A5C8-A7CCC072D238";
shapes = (
{
closed = 1;
nodes = (
(535,-12,o),
(573,-7,o),
(625,2,c),
(632,37,o),
(640,73,o),
(664,147,c),
(631,147,l),
(607,68,o),
(548,28,o),
(450,28,cs),
(314,28,o),
(224,137,o),
(224,324,cs),
(224,513,o),
(296,601,o),
(448,601,cs),
(600,601,o),
(615,530,o),
(615,479,c),
(647,479,l),
(646,526,o),
(646,583,o),
(648,639,c),
(632,635,o),
(608,632,o),
(590,632,cs),
(540,632,o),
(476,641,o),
(426,641,cs),
(188,641,o),
(48,508,o),
(48,309,cs),
(48,106,o),
(234,-12,o),
(480,-12,cs)
);
}
);
width = 688;
},
{
anchors = (
{
name = bottom;
pos = (314,0);
},
{
name = top;
pos = (390,629);
}
);
layerId = "D1413726-767D-4628-9B63-3A1C0748A050";
shapes = (
{
closed = 1;
nodes = (
(483,-13,o),
(526,-10,o),
(567,-6,c),
(580,37,o),
(593,81,o),
(606,124,c),
(595,124,l),
(563,32,o),
(516,1,o),
(423,1,cs),
(239,1,o),
(133,116,o),
(133,328,cs),
(133,542,o),
(218,627,o),
(405,627,cs),
(537,627,o),
(585,594,o),
(586,510,c),
(597,510,l),
(597,553,o),
(596,597,o),
(597,641,c),
(573,635,o),
(563,635,o),
(530,635,cs),
(483,635,o),
(444,641,o),
(390,641,cs),
(137,641,o),
(43,459,o),
(43,321,cs),
(43,234,o),
(82,-13,o),
(443,-13,cs)
);
}
);
width = 627;
},
{
anchors = (
{
name = bottom;
pos = (343,0);
},
{
name = top;
pos = (418,629);
}
);
background = {
shapes = (
{
closed = 1;
nodes = (
(505,-11,o),
(541,-6,o),
(589,4,c),
(595,36,o),
(603,69,o),
(625,138,c),
(594,138,l),
(572,65,o),
(517,26,o),
(427,26,cs),
(295,26,o),
(207,127,o),
(207,300,cs),
(207,475,o),
(277,561,o),
(425,561,cs),
(566,561,o),
(579,495,o),
(579,448,c),
(609,448,l),
(608,492,o),
(608,544,o),
(610,596,c),
(595,593,o),
(573,590,o),
(556,590,cs),
(510,590,o),
(451,598,o),
(404,598,cs),
(178,598,o),
(44,470,o),
(44,286,cs),
(44,78,o),
(207,-11,o),
(438,-11,cs)
);
}
);
};
layerId = "E7B116FE-7576-4B50-8DFF-8E55DA3EEB52";
shapes = (
{
closed = 1;
nodes = (
(517,-12,o),
(575,-9,o),
(623,-1,c),
(630,30,o),
(638,57,o),
(662,126,c),
(647,126,l),
(619,40,o),
(553,5,o),
(455,5,cs),
(312,5,o),
(221,124,o),
(221,324,cs),
(221,526,o),
(286,624,o),
(446,624,cs),
(600,624,o),
(630,550,o),
(630,494,c),
(645,494,l),
(645,539,o),
(645,587,o),
(646,633,c),
(633,633,o),
(619,632,o),
(594,632,cs),
(534,633,o),
(464,641,o),
(423,641,cs),
(171,641,o),
(45,497,o),
(45,309,cs),
(45,106,o),
(233,-12,o),
(475,-12,cs)
);
}
);
width = 685;
}
);
metricLeft = O;
metricRight = "=O*.5";
note = C;
unicode = 67;
},
{
color = 3;
glyphname = D;
kernLeft = H;
kernRight = O;
lastChange = "2024-10-18 09:19:06 +0000";
layers = (
{
anchors = (
{
name = bottom;
pos = (363,0);
},
{
name = center;
pos = (363,315);
},
{
name = top;
pos = (363,629);
}
);
hints = (
{
horizontal = 1;
origin = (0,11);
target = (1,6);
type = Stem;
},
{
origin = (0,19);
target = (1,3);
type = Stem;
},
{
origin = (1,9);
target = (0,8);
type = Stem;
},
{
horizontal = 1;
origin = (0,24);
target = (0,23);
type = Stem;
}
);
layerId = "C56BE457-17E3-437C-A42F-4BD1DE972727";
shapes = (
{
closed = 1;
nodes = (
(75,-2,o),
(144,0,o),
(163,0,cs),
(175,0,o),
(267,-3,o),
(336,-3,cs),
(546,-3,o),
(682,162,o),
(682,342,cs),
(682,494,o),
(581,640,o),
(274,640,cs),
(232,640,o),
(89,633,o),
(36,627,c),
(36,600,l),
(97,600,o),
(114,600,o),
(114,538,cs),
(114,85,ls),
(114,24,o),
(95,24,o),
(43,24,cs),
(36,24,l),
(36,-3,l)
);
},
{
closed = 1;
nodes = (
(234,28,o),
(199,38,o),
(199,104,cs),
(199,609,l),
(221,610,o),
(243,611,o),
(263,611,cs),
(493,611,o),
(589,504,o),
(589,312,cs),
(589,110,o),
(498,28,o),
(315,28,cs)
);
}
);
width = 725;
},
{
anchors = (
{
name = bottom;
pos = (401,0);
},
{
name = center;
pos = (401,315);
},
{
name = top;
pos = (401,629);
}
);
background = {
shapes = (
{
closed = 1;
nodes = (
(60,-4,o),
(154,0,o),
(205,0,cs),
(276,0,o),
(305,-3,o),
(321,-3,cs),
(682,-3,o),
(695,236,o),
(695,319,cs),
(695,577,o),
(440,593,o),
(330,593,cs),
(168,593,o),
(31,576,o),
(2,577,c),
(2,548,l),
(45,548,o),
(89,548,o),
(89,510,cs),
(89,63,ls),
(89,46,o),
(67,24,o),
(45,24,cs),
(4,24,l),
(4,-3,l)
);
},
{
closed = 1;
nodes = (
(251,46,o),
(236,49,o),
(236,74,cs),
(236,532,l),
(289,537,o),
(314,540,o),
(332,540,cs),
(455,540,o),
(534,457,o),
(534,281,cs),
(534,110,o),
(465,46,o),
(306,46,cs)
);
}
);
};
layerId = "3B95F746-F211-4218-A5C8-A7CCC072D238";
shapes = (
{
closed = 1;
nodes = (
(66,-3,o),
(166,0,o),
(207,0,cs),
(252,0,o),
(313,-3,o),
(356,-3,cs),
(675,-3,o),
(754,210,o),
(754,345,cs),
(754,558,o),
(555,640,o),
(330,640,cs),
(215,640,o),
(53,627,o),
(11,625,c),
(11,593,l),
(65,593,o),
(100,590,o),
(100,538,cs),
(100,81,ls),
(100,41,o),
(79,29,o),
(41,29,cs),
(16,29,l),
(16,-3,l)
);
},
{
closed = 1;
nodes = (
(281,35,o),
(257,41,o),
(257,87,cs),
(257,597,l),
(285,601,o),
(310,603,o),
(326,603,cs),
(496,603,o),
(580,502,o),
(580,308,cs),
(580,111,o),
(503,35,o),
(338,35,cs)
);
}
);
width = 802;
},
{
anchors = (
{
name = bottom;
pos = (360,0);
},
{
name = center;
pos = (360,315);
},
{
name = top;
pos = (360,629);
}
);
layerId = "D1413726-767D-4628-9B63-3A1C0748A050";
shapes = (
{
closed = 1;
nodes = (
(75,-3,o),
(141,0,o),
(160,0,cs),
(172,0,o),
(274,-3,o),
(334,-3,cs),
(553,-3,o),
(676,179,o),
(676,342,cs),
(676,494,o),
(576,639,o),
(271,639,cs),
(230,639,o),
(89,632,o),
(36,626,c),
(36,617,l),
(97,617,o),
(114,617,o),
(114,554,cs),
(114,69,ls),
(114,8,o),
(95,8,o),
(43,8,cs),
(36,8,l),
(36,-3,l)
);
},
{
closed = 1;
nodes = (
(229,11,o),
(193,25,o),
(193,100,cs),
(193,622,l),
(216,623,o),
(239,624,o),
(260,625,cs),
(471,630,o),
(589,540,o),
(589,312,cs),
(589,96,o),
(497,11,o),
(312,11,cs)
);
}
);
width = 719;
},
{
anchors = (
{
name = bottom;
pos = (403,0);
},
{
name = center;
pos = (403,315);
},
{
name = top;
pos = (403,629);
}
);
layerId = "E7B116FE-7576-4B50-8DFF-8E55DA3EEB52";
shapes = (
{
closed = 1;
nodes = (
(67,-3,o),
(174,0,o),
(217,0,cs),
(261,0,o),
(323,-3,o),
(366,-3,cs),
(683,-3,o),
(761,210,o),
(761,346,cs),
(761,559,o),
(592,640,o),
(338,640,cs),
(220,640,o),
(56,627,o),
(13,625,c),
(13,611,l),
(73,611,o),
(110,611,o),
(110,559,cs),
(110,63,ls),
(110,23,o),
(84,11,o),
(40,11,cs),
(14,11,l),
(14,-3,l)
);
},
{
closed = 1;
nodes = (
(293,14,o),
(272,16,o),
(272,63,cs),
(272,618,l),
(300,622,o),
(315,623,o),
(338,623,cs),
(497,623,o),
(588,517,o),
(588,310,cs),
(588,97,o),
(511,14,o),
(348,14,c)
);
}
);
width = 806;
}
);
metricLeft = H;
metricRight = O;
note = D;
unicode = 68;
},
{
color = 3;
glyphname = Dhook;
kernLeft = H;
kernRight = O;
lastChange = "2024-08-03 15:22:53 +0000";
layers = (
{
layerId = "C56BE457-17E3-437C-A42F-4BD1DE972727";
shapes = (
{
closed = 1;
nodes = (
(191,-2,o),
(260,0,o),
(279,0,cs),
(291,0,o),
(383,-3,o),
(452,-3,cs),
(662,-3,o),
(798,162,o),
(798,342,cs),
(798,494,o),
(697,640,o),
(356,640,cs),
(99,640,o),
(14,578,o),
(14,466,cs),
(14,427,o),
(31,405,o),
(53,405,cs),
(72,405,o),
(84,419,o),
(84,432,cs),
(84,460,o),
(45,482,o),
(45,512,cs),
(45,553,o),
(116,598,o),
(188,598,cs),
(220,598,o),
(230,588,o),
(230,543,cs),
(230,85,ls),
(230,24,o),
(211,24,o),
(159,24,cs),
(152,24,l),
(152,-3,l)
);
},
{
closed = 1;
nodes = (
(350,28,o),
(315,38,o),
(315,104,cs),
(315,609,l),
(337,610,o),
(359,611,o),
(379,611,cs),
(609,611,o),
(705,504,o),
(705,312,cs),
(705,110,o),
(614,28,o),
(431,28,cs)
);
}
);
width = 841;
},
{
layerId = "3B95F746-F211-4218-A5C8-A7CCC072D238";
shapes = (
{
closed = 1;
nodes = (
(187,-3,o),
(287,0,o),
(328,0,cs),
(373,0,o),
(434,-3,o),
(477,-3,cs),
(796,-3,o),
(875,210,o),
(875,345,cs),
(875,558,o),
(686,640,o),
(431,640,cs),
(103,640,o),
(5,567,o),
(5,458,cs),
(5,411,o),
(29,385,o),
(58,385,cs),
(84,385,o),
(103,402,o),
(103,428,cs),
(103,456,o),
(66,478,o),
(66,509,cs),
(66,551,o),
(130,591,o),
(206,591,cs),
(217,591,o),
(221,590,o),
(221,571,cs),
(221,81,ls),
(221,41,o),
(200,29,o),
(162,29,cs),
(137,29,l),
(137,-3,l)
);
},
{
closed = 1;
nodes = (
(402,35,o),
(378,41,o),
(378,87,cs),
(378,597,l),
(408,602,o),
(431,603,o),
(447,603,cs),
(617,603,o),
(701,502,o),
(701,308,cs),
(701,111,o),
(624,35,o),
(459,35,cs)
);
}
);
width = 923;
},
{
layerId = "D1413726-767D-4628-9B63-3A1C0748A050";
shapes = (
{
closed = 1;
nodes = (
(201,-3,o),
(267,0,o),
(286,0,cs),
(298,0,o),
(400,-3,o),
(460,-3,cs),
(679,-3,o),
(802,179,o),
(802,342,cs),
(802,494,o),
(702,639,o),
(389,640,cs),
(110,640,o),
(25,578,o),
(25,466,cs),
(25,427,o),
(42,405,o),
(64,405,cs),
(83,405,o),
(95,419,o),
(95,432,cs),
(95,460,o),
(56,482,o),
(56,512,cs),
(56,557,o),
(127,606,o),
(199,606,cs),
(231,606,o),
(240,599,o),
(240,554,cs),
(240,69,ls),
(240,8,o),
(221,8,o),
(169,8,cs),
(162,8,l),
(162,-3,l)
);
},
{
closed = 1;
nodes = (
(355,11,o),
(319,25,o),
(319,100,cs),
(319,623,l),
(342,625,o),
(365,626,o),
(386,626,cs),
(597,626,o),
(715,540,o),
(715,312,cs),
(715,96,o),
(623,11,o),
(438,11,cs)
);
}
);
width = 845;
},
{
layerId = "E7B116FE-7576-4B50-8DFF-8E55DA3EEB52";
shapes = (
{
closed = 1;
nodes = (
(185,-3,o),
(283,0,o),
(335,0,cs),
(379,0,o),
(441,-3,o),
(484,-3,cs),
(801,-3,o),
(879,210,o),
(879,346,cs),
(879,559,o),
(710,640,o),
(456,640,cs),
(109,640,o),
(11,567,o),
(11,458,cs),
(11,411,o),
(35,385,o),
(64,385,cs),
(90,385,o),
(109,402,o),
(109,428,cs),
(109,456,o),
(72,478,o),
(72,509,cs),
(72,557,o),
(136,606,o),
(212,606,cs),
(223,606,o),
(228,599,o),
(228,580,cs),
(228,63,ls),
(228,23,o),
(202,11,o),
(158,11,cs),
(132,11,l),
(132,-3,l)
);
},
{
closed = 1;
nodes = (
(411,14,o),
(390,20,o),
(390,67,cs),
(390,618,l),
(418,622,o),
(433,623,o),
(456,623,cs),
(615,623,o),
(706,517,o),
(706,310,cs),
(706,97,o),
(629,14,o),
(466,14,cs)
);
}
);
width = 924;
}
);
metricLeft = T;
metricRight = O;
unicode = 394;
},
{
color = 3;
glyphname = Eth;
kernLeft = H;
kernRight = O;
lastChange = "2024-10-29 15:04:10 +0000";
layers = (
{
anchors = (
{
name = bottom;
pos = (363,0);
},
{
name = center;
pos = (363,315);
},
{
name = top;
pos = (363,629);
}
);
hints = (
{
horizontal = 1;
origin = (0,3);
target = (0,2);
type = Stem;
},
{
horizontal = 1;
origin = (1,11);
target = (2,6);
type = Stem;
},
{
origin = (1,19);
target = (2,3);
type = Stem;
},
{
origin = (2,9);
target = (1,8);
type = Stem;
},
{
horizontal = 1;
origin = (1,24);
target = (1,23);
type = Stem;
}
);
layerId = "C56BE457-17E3-437C-A42F-4BD1DE972727";
shapes = (
{
closed = 1;
nodes = (
(370,301,l),
(370,328,l),
(8,328,l),
(8,301,l)
);
},
{
closed = 1;
nodes = (
(75,-2,o),
(144,0,o),
(163,0,cs),
(175,0,o),
(267,-3,o),
(336,-3,cs),
(546,-3,o),
(682,162,o),
(682,342,cs),
(682,494,o),
(581,640,o),
(274,640,cs),
(232,640,o),
(89,633,o),
(36,627,c),
(36,600,l),
(97,600,o),
(114,600,o),
(114,538,cs),
(114,85,ls),
(114,24,o),
(95,24,o),
(43,24,cs),
(36,24,l),
(36,-3,l)
);
},
{
closed = 1;
nodes = (
(234,28,o),
(199,38,o),
(199,104,cs),
(199,609,l),
(221,610,o),
(243,611,o),
(263,611,cs),
(493,611,o),
(589,504,o),
(589,312,cs),
(589,110,o),
(498,28,o),
(315,28,cs)
);
}
);
width = 719;
},
{
anchors = (
{
name = bottom;
pos = (401,0);
},
{
name = center;
pos = (401,315);
},
{
name = top;
pos = (401,629);
}
);
layerId = "3B95F746-F211-4218-A5C8-A7CCC072D238";
shapes = (
{
closed = 1;
nodes = (
(400,301,l),
(400,338,l),
(8,338,l),
(8,301,l)
);
},
{
closed = 1;
nodes = (
(66,-3,o),
(166,0,o),
(207,0,cs),
(252,0,o),
(313,-3,o),
(356,-3,cs),
(675,-3,o),
(754,210,o),
(754,345,cs),
(754,558,o),
(555,640,o),
(330,640,cs),
(215,640,o),
(53,627,o),
(11,625,c),
(11,593,l),
(65,593,o),
(100,590,o),
(100,538,cs),
(100,81,ls),
(100,41,o),
(79,29,o),
(41,29,cs),
(16,29,l),
(16,-3,l)
);
},
{
closed = 1;
nodes = (
(281,35,o),
(257,41,o),
(257,87,cs),
(257,597,l),
(285,601,o),
(310,603,o),
(326,603,cs),
(496,603,o),
(580,502,o),
(580,308,cs),
(580,111,o),
(503,35,o),
(338,35,cs)
);
}
);
width = 802;
},
{
anchors = (
{
name = bottom;
pos = (360,0);
},
{
name = center;
pos = (360,315);
},
{
name = top;
pos = (360,629);
}
);
layerId = "D1413726-767D-4628-9B63-3A1C0748A050";
shapes = (
{
closed = 1;
nodes = (
(370,301,l),
(370,318,l),
(8,318,l),
(8,301,l)
);
},
{
closed = 1;
nodes = (
(75,-3,o),
(141,0,o),
(160,0,cs),
(172,0,o),
(274,-3,o),
(334,-3,cs),
(553,-3,o),
(676,179,o),
(676,342,cs),
(676,494,o),
(576,639,o),
(271,639,cs),
(230,639,o),
(89,632,o),
(36,626,c),
(36,617,l),
(97,617,o),
(114,617,o),
(114,554,cs),
(114,69,ls),
(114,8,o),
(95,8,o),
(43,8,cs),
(36,8,l),
(36,-3,l)
);
},
{
closed = 1;
nodes = (
(229,11,o),
(193,25,o),
(193,100,cs),
(193,622,l),
(216,623,o),
(239,624,o),
(260,625,cs),
(471,630,o),
(589,540,o),
(589,312,cs),
(589,96,o),
(497,11,o),
(312,11,cs)
);
}
);
width = 719;
},
{
anchors = (
{
name = bottom;
pos = (403,0);
},
{
name = center;
pos = (403,315);
},
{
name = top;
pos = (403,629);
}
);
layerId = "E7B116FE-7576-4B50-8DFF-8E55DA3EEB52";
shapes = (
{
closed = 1;
nodes = (
(420,301,l),
(420,328,l),
(8,328,l),
(8,301,l)
);
},
{
closed = 1;
nodes = (
(67,-3,o),
(174,0,o),
(217,0,cs),
(261,0,o),
(323,-3,o),
(366,-3,cs),
(683,-3,o),
(761,210,o),
(761,346,cs),
(761,559,o),
(592,640,o),
(338,640,cs),
(220,640,o),
(56,627,o),
(13,625,c),
(13,611,l),
(73,611,o),
(110,611,o),
(110,559,cs),
(110,63,ls),
(110,23,o),
(84,11,o),
(40,11,cs),
(14,11,l),
(14,-3,l)
);
},
{
closed = 1;
nodes = (
(293,14,o),
(272,16,o),
(272,63,cs),
(272,618,l),
(300,622,o),
(315,623,o),
(338,623,cs),
(497,623,o),
(588,517,o),
(588,310,cs),
(588,97,o),
(511,14,o),
(348,14,c)
);
}
);
width = 806;
}
);
note = Eth;
unicode = 208;
},
{
color = 3;
glyphname = E;
kernLeft = H;
kernRight = E;
lastChange = "2024-10-18 09:19:06 +0000";
layers = (
{
anchors = (
{
name = bottom;
pos = (271,0);
},
{
name = ogonek;
pos = (463,10);
},
{
name = top;
pos = (281,629);
},
{
name = topleft;
pos = (26,629);
}
);
background = {
shapes = (
{
closed = 1;
nodes = (
(92,-1,o),
(125,0,o),
(164,0,cs),
(202,0,o),
(238,-1,o),
(277,-3,c),
(277,22,l),
(252,22,ls),
(209,22,o),
(197,30,o),
(197,82,cs),
(197,288,l),
(503,288,l),
(503,82,ls),
(503,31,o),
(492,22,o),
(449,22,cs),
(423,22,l),
(423,-3,l),
(463,-1,o),
(500,0,o),
(539,0,cs),
(577,0,o),
(615,-1,o),
(649,-3,c),
(649,22,l),
(645,22,l),
(591,22,o),
(576,23,o),
(576,80,cs),
(576,502,ls),
(576,559,o),
(593,560,o),
(647,560,c),
(649,560,l),
(649,585,l),
(606,583,o),
(561,582,o),
(539,582,cs),
(500,582,o),
(462,584,o),
(423,585,c),
(423,560,l),
(439,560,ls),
(490,560,o),
(503,556,o),
(503,502,cs),
(503,321,l),
(197,321,l),
(197,501,ls),
(197,551,o),
(208,560,o),
(255,560,cs),
(277,560,l),
(277,585,l),
(225,583,o),
(195,582,o),
(162,582,cs),
(140,582,o),
(94,583,o),
(51,585,c),
(51,560,l),
(53,560,l),
(112,560,o),
(124,557,o),
(124,501,cs),
(124,86,ls),
(124,28,o),
(115,22,o),
(56,22,c),
(52,22,l),
(52,-3,l)
);
}
);
};
hints = (
{
horizontal = 1;
origin = (0,39);
target = (0,27);
type = Stem;
},
{
horizontal = 1;
origin = (0,48);
target = (0,11);
type = Stem;
},
{
origin = (0,44);
target = (0,14);
type = Stem;
},
{
horizontal = 1;
origin = (0,15);
target = (0,26);
type = Stem;
}
);
layerId = "C56BE457-17E3-437C-A42F-4BD1DE972727";
shapes = (
{
closed = 1;
nodes = (
(70,-1,o),
(214,0,o),
(236,0,cs),
(291,0,o),
(408,-2,o),
(475,-3,c),
(520,126,l),
(493,126,l),
(452,55,o),
(433,29,o),
(374,29,cs),
(248,29,ls),
(213,29,o),
(198,44,o),
(198,79,cs),
(198,314,l),
(348,314,ls),
(387,314,o),
(410,283,o),
(411,229,c),
(438,229,l),
(438,418,l),
(411,418,l),
(408,378,o),
(400,347,o),
(354,347,cs),
(198,347,l),
(198,598,l),
(363,598,ls),
(435,598,o),
(446,564,o),
(451,497,c),
(478,497,l),
(474,632,l),
(409,630,o),
(348,629,o),
(277,629,cs),
(199,629,o),
(97,630,o),
(36,632,c),
(36,605,l),
(97,605,o),
(113,604,o),
(113,542,cs),
(113,86,ls),
(113,24,o),
(96,24,o),
(37,24,c),
(37,-3,l)
);
}
);
width = 536;
},
{
anchors = (
{
name = bottom;
pos = (310,0);
},
{
name = ogonek;
pos = (525,10);
},
{
name = top;
pos = (310,629);
},
{
name = topleft;
pos = (20,629);
}
);
layerId = "3B95F746-F211-4218-A5C8-A7CCC072D238";
shapes = (
{
closed = 1;
nodes = (
(71,-2,o),
(176,0,o),
(338,0,cs),
(384,0,o),
(451,-2,o),
(536,-3,c),
(581,139,l),
(549,139,l),
(521,75,o),
(491,44,o),
(392,44,cs),
(313,44,ls),
(281,44,o),
(259,68,o),
(259,100,cs),
(259,314,l),
(396,314,ls),
(436,314,o),
(452,291,o),
(458,233,c),
(490,233,l),
(490,431,l),
(458,431,l),
(454,376,o),
(433,357,o),
(396,357,cs),
(259,357,l),
(259,585,l),
(405,585,ls),
(485,585,o),
(510,559,o),
(509,488,c),
(541,488,l),
(539,632,l),
(431,634,o),
(340,629,o),
(243,629,cs),
(147,629,o),
(51,632,o),
(14,632,c),
(14,600,l),
(50,600,o),
(103,599,o),
(103,546,cs),
(103,82,ls),
(103,31,o),
(51,29,o),
(11,29,c),
(11,-3,l)
);
}
);
width = 619;
},
{
anchors = (
{
name = bottom;
pos = (265,0);
},
{
name = ogonek;
pos = (452,10);
},
{
name = top;
pos = (275,629);
},
{
name = topleft;
pos = (20,629);
}
);
layerId = "D1413726-767D-4628-9B63-3A1C0748A050";
shapes = (
{
closed = 1;
nodes = (
(70,-3,o),
(192,0,o),
(214,0,cs),
(261,0,o),
(394,-2,o),
(461,-3,c),
(507,111,l),
(496,111,l),
(455,40,o),
(430,18,o),
(372,18,cs),
(242,18,ls),
(207,18,o),
(192,29,o),
(192,64,cs),
(192,322,l),
(347,322,ls),
(392,322,o),
(414,293,o),
(415,239,c),
(426,239,l),
(426,409,l),
(415,409,l),
(411,369,o),
(405,340,o),
(359,340,cs),
(192,340,l),
(192,611,l),
(361,611,ls),
(432,611,o),
(447,580,o),
(453,513,c),
(464,513,l),
(460,632,l),
(395,630,o),
(289,629,o),
(225,629,cs),
(147,629,o),
(119,630,o),
(36,632,c),
(36,621,l),
(97,621,o),
(113,620,o),
(113,558,cs),
(113,70,ls),
(113,8,o),
(96,8,o),
(37,8,c),
(37,-3,l)
);
}
);
width = 530;
},
{
anchors = (
{
name = bottom;
pos = (301,0);
},
{
name = ogonek;
pos = (533,10);
},
{
name = top;
pos = (311,629);
},
{
name = topleft;
pos = (20,629);
}
);
layerId = "E7B116FE-7576-4B50-8DFF-8E55DA3EEB52";
shapes = (
{
closed = 1;
nodes = (
(71,-1,o),
(258,0,o),
(327,0,cs),
(389,0,o),
(459,-2,o),
(535,-3,c),
(580,133,l),
(564,133,l),
(538,75,o),
(484,31,o),
(413,31,cs),
(321,31,ls),
(287,31,o),
(268,51,o),
(268,84,cs),
(268,318,l),
(399,318,ls),
(440,318,o),
(462,289,o),
(470,233,c),
(483,233,l),
(483,422,l),
(470,422,l),
(463,374,o),
(440,349,o),
(392,349,cs),
(269,349,l),
(269,598,l),
(403,598,ls),
(474,598,o),
(511,565,o),
(513,496,c),
(527,496,l),
(525,632,l),
(438,632,o),
(332,629,o),
(300,629,cs),
(265,629,o),
(111,630,o),
(14,632,c),
(14,618,l),
(69,618,o),
(108,618,o),
(108,566,cs),
(108,64,ls),
(108,12,o),
(69,11,o),
(13,11,c),
(13,-3,l)
);
}
);
width = 602;
}
);
metricLeft = H;
note = E;
unicode = 69;
},
{
color = 3;
glyphname = Eopen;
lastChange = "2024-08-03 15:24:04 +0000";
layers = (
{
layerId = "C56BE457-17E3-437C-A42F-4BD1DE972727";
shapes = (
{
closed = 1;
nodes = (
(323,-11,o),
(366,-1,o),
(407,7,c),
(418,48,o),
(431,86,o),
(446,126,c),
(419,126,l),
(389,44,o),
(348,16,o),
(260,16,cs),
(181,16,o),
(127,77,o),
(127,164,cs),
(127,256,o),
(172,338,o),
(311,338,c),
(311,363,l),
(182,363,o),
(137,426,o),
(137,494,cs),
(137,573,o),
(187,616,o),
(260,616,cs),
(344,616,o),
(392,575,o),
(398,490,c),
(421,490,l),
(417,626,l),
(400,626,l),
(393,623,o),
(387,622,o),
(379,622,cs),
(352,622,o),
(311,639,o),
(256,639,cs),
(149,639,o),
(73,586,o),
(73,494,cs),
(73,414,o),
(145,367,o),
(237,352,c),
(120,331,o),
(43,270,o),
(43,168,cs),
(43,60,o),
(131,-10,o),
(256,-10,cs)
);
}
);
width = 468;
},
{
layerId = "3B95F746-F211-4218-A5C8-A7CCC072D238";
shapes = (
{
closed = 1;
nodes = (
(378,-11,o),
(421,-1,o),
(462,7,c),
(473,51,o),
(486,93,o),
(501,136,c),
(467,136,l),
(439,54,o),
(403,30,o),
(339,30,cs),
(266,30,o),
(222,83,o),
(222,174,cs),
(222,256,o),
(257,320,o),
(366,320,c),
(366,363,l),
(267,363,o),
(232,418,o),
(232,486,cs),
(232,552,o),
(266,599,o),
(324,599,cs),
(393,599,o),
(437,563,o),
(444,480,c),
(476,480,l),
(472,626,l),
(455,626,l),
(448,623,o),
(442,622,o),
(434,622,cs),
(407,622,o),
(356,639,o),
(294,639,cs),
(175,639,o),
(78,586,o),
(78,494,cs),
(78,414,o),
(145,367,o),
(239,349,c),
(120,331,o),
(48,270,o),
(48,174,cs),
(48,60,o),
(157,-10,o),
(311,-10,cs)
);
}
);
width = 525;
},
{
layerId = "D1413726-767D-4628-9B63-3A1C0748A050";
shapes = (
{
closed = 1;
nodes = (
(323,-11,o),
(366,-1,o),
(407,7,c),
(418,48,o),
(431,86,o),
(446,126,c),
(435,126,l),
(402,34,o),
(356,3,o),
(260,3,cs),
(181,3,o),
(127,69,o),
(127,164,cs),
(127,262,o),
(172,348,o),
(311,348,c),
(311,359,l),
(182,359,o),
(137,426,o),
(137,494,cs),
(137,581,o),
(187,625,o),
(260,625,cs),
(354,625,o),
(403,586,o),
(410,490,c),
(421,490,l),
(417,626,l),
(400,626,l),
(393,623,o),
(387,622,o),
(379,622,cs),
(352,622,o),
(311,639,o),
(256,639,cs),
(149,639,o),
(73,586,o),
(73,494,cs),
(73,414,o),
(145,367,o),
(237,352,c),
(120,331,o),
(43,270,o),
(43,168,cs),
(43,60,o),
(131,-10,o),
(275,-11,cs)
);
}
);
width = 467;
},
{
layerId = "E7B116FE-7576-4B50-8DFF-8E55DA3EEB52";
shapes = (
{
closed = 1;
nodes = (
(375,-11,o),
(418,-1,o),
(459,7,c),
(470,51,o),
(483,93,o),
(498,136,c),
(484,136,l),
(452,37,o),
(411,6,o),
(336,6,cs),
(263,6,o),
(219,69,o),
(219,174,cs),
(219,262,o),
(254,335,o),
(363,335,c),
(363,352,l),
(264,352,o),
(229,412,o),
(229,486,cs),
(229,565,o),
(263,622,o),
(321,622,cs),
(400,622,o),
(451,579,o),
(459,480,c),
(473,480,l),
(469,626,l),
(452,626,l),
(445,623,o),
(439,622,o),
(431,622,cs),
(404,622,o),
(353,639,o),
(291,639,cs),
(172,639,o),
(75,586,o),
(75,494,cs),
(75,414,o),
(142,367,o),
(236,349,c),
(117,331,o),
(45,270,o),
(45,174,cs),
(45,60,o),
(154,-10,o),
(322,-11,cs)
);
}
);
width = 521;
}
);
metricLeft = "=|B";
metricRight = C;
unicode = 400;
},
{
color = 3;
glyphname = Ereversed;
lastChange = "2024-08-03 02:36:17 +0000";
layers = (
{
layerId = "C56BE457-17E3-437C-A42F-4BD1DE972727";
shapes = (
{
closed = 1;
nodes = (
(499,24,l),
(440,24,o),
(423,24,o),
(423,86,cs),
(423,542,ls),
(423,604,o),
(439,605,o),
(500,605,c),
(500,632,l),
(439,630,o),
(337,629,o),
(259,629,cs),
(188,629,o),
(127,630,o),
(62,632,c),
(58,497,l),
(85,497,l),
(90,564,o),
(101,598,o),
(173,598,cs),
(338,598,l),
(338,347,l),
(182,347,ls),
(136,347,o),
(128,378,o),
(125,418,c),
(98,418,l),
(98,229,l),
(125,229,l),
(126,283,o),
(149,314,o),
(188,314,cs),
(338,314,l),
(338,79,ls),
(338,44,o),
(323,29,o),
(288,29,cs),
(162,29,ls),
(103,29,o),
(84,55,o),
(43,126,c),
(16,126,l),
(61,-3,l),
(128,-2,o),
(245,0,o),
(300,0,cs),
(322,0,o),
(466,-1,o),
(499,-3,c)
);
}
);
width = 536;
},
{
layerId = "3B95F746-F211-4218-A5C8-A7CCC072D238";
shapes = (
{
closed = 1;
nodes = (
(608,28,l),
(568,28,o),
(516,31,o),
(516,82,cs),
(516,546,ls),
(516,599,o),
(569,598,o),
(605,598,c),
(605,632,l),
(568,632,o),
(472,629,o),
(376,629,cs),
(279,629,o),
(188,634,o),
(80,632,c),
(78,488,l),
(109,488,l),
(108,559,o),
(134,585,o),
(214,585,cs),
(360,585,l),
(360,355,l),
(222,355,ls),
(185,355,o),
(164,374,o),
(160,431,c),
(128,431,l),
(128,233,l),
(160,233,l),
(166,292,o),
(182,316,o),
(222,316,cs),
(360,316,l),
(360,100,ls),
(360,68,o),
(338,44,o),
(306,44,cs),
(227,44,ls),
(128,44,o),
(102,75,o),
(74,139,c),
(38,139,l),
(83,-3,l),
(168,-2,o),
(235,0,o),
(281,0,cs),
(471,0,o),
(594,-5,o),
(608,-3,c)
);
}
);
width = 619;
},
{
layerId = "D1413726-767D-4628-9B63-3A1C0748A050";
shapes = (
{
closed = 1;
nodes = (
(493,8,l),
(434,8,o),
(417,8,o),
(417,70,cs),
(417,558,ls),
(417,620,o),
(433,621,o),
(494,621,c),
(494,632,l),
(411,630,o),
(383,629,o),
(305,629,cs),
(241,629,o),
(135,630,o),
(70,632,c),
(66,513,l),
(77,513,l),
(83,580,o),
(98,611,o),
(169,611,cs),
(338,611,l),
(338,340,l),
(171,340,ls),
(125,340,o),
(119,369,o),
(115,409,c),
(104,409,l),
(104,239,l),
(115,239,l),
(116,293,o),
(138,322,o),
(183,322,cs),
(338,322,l),
(338,64,ls),
(338,29,o),
(323,18,o),
(288,18,cs),
(158,18,ls),
(100,18,o),
(75,40,o),
(34,111,c),
(23,111,l),
(69,-3,l),
(136,-2,o),
(269,0,o),
(316,0,cs),
(338,0,o),
(460,-3,o),
(493,-3,c)
);
}
);
width = 530;
},
{
layerId = "E7B116FE-7576-4B50-8DFF-8E55DA3EEB52";
shapes = (
{
closed = 1;
nodes = (
(589,11,l),
(533,11,o),
(494,12,o),
(494,64,cs),
(494,566,ls),
(494,618,o),
(533,618,o),
(588,618,c),
(588,632,l),
(491,630,o),
(337,629,o),
(302,629,cs),
(270,629,o),
(164,632,o),
(77,632,c),
(75,496,l),
(89,496,l),
(91,565,o),
(128,597,o),
(199,597,cs),
(333,597,l),
(333,349,l),
(210,349,ls),
(162,349,o),
(139,374,o),
(132,422,c),
(119,422,l),
(119,233,l),
(132,233,l),
(140,289,o),
(162,318,o),
(203,318,cs),
(334,318,l),
(334,84,ls),
(334,51,o),
(315,31,o),
(281,31,cs),
(189,31,ls),
(118,31,o),
(64,75,o),
(38,133,c),
(22,133,l),
(67,-3,l),
(143,-2,o),
(213,0,o),
(275,0,cs),
(344,0,o),
(531,-1,o),
(589,-3,c)
);
}
);
width = 602;
}
);
metricLeft = "=|E";
metricRight = H;
unicode = 398;
},
{
color = 3;
glyphname = Schwa;
kernLeft = O;
kernRight = O;
lastChange = "2024-08-03 15:24:22 +0000";
layers = (
{
layerId = "C56BE457-17E3-437C-A42F-4BD1DE972727";
shapes = (
{
closed = 1;
nodes = (
(532,-11,o),
(666,133,o),
(666,314,cs),
(666,496,o),
(562,641,o),
(328,641,cs),
(269,641,o),
(205,634,o),
(144,624,c),
(133,581,o),
(120,537,o),
(105,494,c),
(132,494,l),
(173,583,o),
(230,614,o),
(351,614,cs),
(475,614,o),
(576,517,o),
(576,313,cs),
(576,136,o),
(525,17,o),
(353,17,cs),
(191,17,o),
(134,162,o),
(134,306,c),
(43,315,l),
(43,146,o),
(167,-11,o),
(358,-11,cs)
);
},
{
closed = 1;
nodes = (
(641,288,l),
(641,315,l),
(43,315,l),
(69,288,l)
);
}
);
width = 709;
},
{
layerId = "3B95F746-F211-4218-A5C8-A7CCC072D238";
shapes = (
{
closed = 1;
nodes = (
(596,-11,o),
(748,133,o),
(748,314,cs),
(752,553,o),
(585,649,o),
(348,649,cs),
(270,649,o),
(210,639,o),
(145,623,c),
(138,588,o),
(130,552,o),
(106,478,c),
(139,478,l),
(168,564,o),
(257,609,o),
(360,609,cs),
(490,609,o),
(576,500,o),
(576,313,cs),
(576,145,o),
(536,31,o),
(396,31,cs),
(267,31,o),
(221,170,o),
(221,292,c),
(48,315,l),
(48,145,o),
(156,-11,o),
(403,-11,cs)
);
},
{
closed = 1;
nodes = (
(714,278,l),
(714,315,l),
(48,315,l),
(134,278,l)
);
}
);
width = 796;
},
{
layerId = "D1413726-767D-4628-9B63-3A1C0748A050";
shapes = (
{
closed = 1;
nodes = (
(539,-11,o),
(666,139,o),
(666,314,cs),
(666,507,o),
(565,638,o),
(325,638,cs),
(266,638,o),
(202,627,o),
(141,611,c),
(128,568,o),
(115,524,o),
(102,481,c),
(113,481,l),
(157,588,o),
(220,624,o),
(345,624,cs),
(491,624,o),
(575,509,o),
(575,313,cs),
(576,116,o),
(525,3,o),
(353,3,cs),
(191,3,o),
(134,143,o),
(134,305,c),
(43,318,l),
(43,146,o),
(167,-11,o),
(358,-11,cs)
);
},
{
closed = 1;
nodes = (
(645,300,l),
(645,318,l),
(43,318,l),
(58,300,l)
);
}
);
width = 709;
},
{
layerId = "E7B116FE-7576-4B50-8DFF-8E55DA3EEB52";
shapes = (
{
closed = 1;
nodes = (
(604,-10,o),
(752,123,o),
(752,319,cs),
(752,542,o),
(582,638,o),
(367,638,cs),
(325,638,o),
(231,635,o),
(174,627,c),
(167,596,o),
(159,569,o),
(135,500,c),
(150,500,l),
(182,586,o),
(264,621,o),
(377,621,cs),
(501,621,o),
(576,502,o),
(576,320,cs),
(576,137,o),
(537,7,o),
(395,7,cs),
(267,7,o),
(221,148,o),
(221,308,c),
(45,316,l),
(45,122,o),
(185,-10,o),
(386,-10,cs)
);
},
{
closed = 1;
nodes = (
(737,293,l),
(737,316,l),
(45,316,l),
(135,293,l)
);
}
);
width = 797;
}
);
metricRight = O;
unicode = 399;
},
{
color = 3;
glyphname = Ezh;
lastChange = "2024-08-03 15:25:18 +0000";
layers = (
{
layerId = "C56BE457-17E3-437C-A42F-4BD1DE972727";
shapes = (
{
closed = 1;
nodes = (
(340,-12,o),
(452,80,o),
(452,209,cs),
(452,332,o),
(351,397,o),
(233,412,c),
(237,371,l),
(422,609,l),
(422,629,l),
(101,629,ls),
(89,629,o),
(66,632,o),
(45,649,c),
(39,649,l),
(34,497,l),
(60,497,l),
(68,567,o),
(85,599,o),
(153,599,cs),
(375,599,l),
(345,618,l),
(153,371,l),
(153,357,l),
(265,357,o),
(371,295,o),
(371,180,cs),
(371,52,o),
(286,14,o),
(219,14,cs),
(131,14,o),
(113,99,o),
(55,99,cs),
(37,99,o),
(22,85,o),
(22,67,cs),
(22,24,o),
(93,-12,o),
(195,-12,cs)
);
}
);
width = 495;
},
{
layerId = "3B95F746-F211-4218-A5C8-A7CCC072D238";
shapes = (
{
closed = 1;
nodes = (
(383,-12,o),
(512,89,o),
(512,218,cs),
(512,341,o),
(420,397,o),
(313,412,c),
(317,371,l),
(482,612,l),
(482,629,l),
(111,629,ls),
(100,629,o),
(81,633,o),
(65,641,c),
(49,641,l),
(44,497,l),
(76,497,l),
(84,560,o),
(99,589,o),
(163,589,cs),
(375,589,l),
(325,618,l),
(153,367,l),
(153,349,l),
(247,349,o),
(357,290,o),
(357,166,cs),
(357,65,o),
(311,19,o),
(254,19,cs),
(167,19,o),
(142,139,o),
(75,139,cs),
(44,139,o),
(24,119,o),
(24,90,cs),
(24,35,o),
(99,-12,o),
(237,-12,cs)
);
}
);
width = 560;
},
{
layerId = "D1413726-767D-4628-9B63-3A1C0748A050";
shapes = (
{
closed = 1;
nodes = (
(339,-12,o),
(451,80,o),
(451,209,cs),
(451,332,o),
(340,397,o),
(222,412,c),
(231,371,l),
(421,623,l),
(421,629,l),
(100,629,ls),
(88,629,o),
(65,632,o),
(44,649,c),
(38,649,l),
(33,507,l),
(44,507,l),
(53,579,o),
(75,611,o),
(126,611,cs),
(378,611,l),
(351,626,l),
(152,363,l),
(152,357,l),
(264,357,o),
(374,281,o),
(374,166,cs),
(374,38,o),
(289,2,o),
(222,2,cs),
(134,2,o),
(112,99,o),
(54,99,cs),
(36,99,o),
(21,85,o),
(21,67,cs),
(21,24,o),
(92,-12,o),
(207,-12,cs)
);
}
);
width = 494;
},
{
layerId = "E7B116FE-7576-4B50-8DFF-8E55DA3EEB52";
shapes = (
{
closed = 1;
nodes = (
(382,-12,o),
(511,89,o),
(511,218,cs),
(511,341,o),
(419,397,o),
(312,412,c),
(316,371,l),
(481,621,l),
(481,629,l),
(110,629,ls),
(99,629,o),
(78,632,o),
(59,649,c),
(48,649,l),
(43,497,l),
(57,497,l),
(66,567,o),
(88,598,o),
(162,598,cs),
(374,598,l),
(324,618,l),
(152,361,l),
(152,351,l),
(246,351,o),
(362,274,o),
(362,150,cs),
(362,49,o),
(316,5,o),
(259,5,cs),
(172,5,o),
(141,139,o),
(74,139,cs),
(43,139,o),
(23,119,o),
(23,90,cs),
(23,35,o),
(98,-12,o),
(236,-12,cs)
);
}
);
width = 556;
}
);
metricLeft = "=|C";
metricRight = B;
unicode = 439;
},
{
color = 3;
glyphname = F;
kernLeft = h;
kernRight = F;
lastChange = "2024-10-18 09:19:06 +0000";
layers = (
{
anchors = (
{
name = bottom;
pos = (250,0);
},
{
name = top;
pos = (250,629);
}
);
hints = (
{
origin = (0,39);
target = (0,9);
type = Stem;
},
{
horizontal = 1;
origin = (0,43);
target = (0,42);
type = Stem;
},
{
horizontal = 1;
origin = (0,34);
target = (0,35);
type = Stem;
},
{
horizontal = 1;
origin = (0,10);
target = (0,21);
type = Stem;
}
);
layerId = "C56BE457-17E3-437C-A42F-4BD1DE972727";
shapes = (
{
closed = 1;
nodes = (
(84,-1,o),
(119,0,o),
(165,0,cs),
(206,0,o),
(248,-1,o),
(289,-3,c),
(289,23,l),
(224,24,o),
(200,16,o),
(200,84,cs),
(200,311,l),
(344,311,ls),
(384,311,o),
(401,286,o),
(403,232,c),
(429,232,l),
(429,417,l),
(403,417,l),
(395,353,o),
(386,343,o),
(324,343,cs),
(200,343,l),
(200,599,l),
(365,599,ls),
(423,599,o),
(434,559,o),
(437,499,c),
(464,499,l),
(462,632,l),
(383,630,o),
(303,629,o),
(263,629,cs),
(204,629,o),
(63,632,o),
(36,632,c),
(36,605,l),
(97,605,o),
(116,605,o),
(116,542,cs),
(116,86,ls),
(116,23,o),
(95,23,o),
(40,23,c),
(40,-3,l)
);
}
);
width = 493;
},
{
anchors = (
{
name = bottom;
pos = (277,0);
},
{
name = top;
pos = (277,629);
}
);
layerId = "3B95F746-F211-4218-A5C8-A7CCC072D238";
shapes = (
{
closed = 1;
nodes = (
(70,-5,o),
(100,0,o),
(175,0,cs),
(235,0,o),
(333,-3,o),
(360,-3,c),
(360,29,l),
(309,28,o),
(258,41,o),
(258,83,cs),
(258,307,l),
(380,307,ls),
(428,307,o),
(443,292,o),
(450,217,c),
(484,217,l),
(484,432,l),
(453,432,l),
(443,372,o),
(427,348,o),
(381,348,cs),
(258,348,l),
(258,584,l),
(360,584,ls),
(463,584,o),
(494,559,o),
(499,467,c),
(530,467,l),
(532,632,l),
(495,632,o),
(361,629,o),
(221,629,cs),
(145,629,o),
(42,632,o),
(15,632,c),
(15,600,l),
(49,600,o),
(102,596,o),
(102,542,cs),
(102,81,ls),
(102,32,o),
(57,29,o),
(11,29,c),
(11,-3,l)
);
}
);
width = 554;
},
{
anchors = (
{
name = bottom;
pos = (244,0);
},
{
name = top;
pos = (244,629);
}
);
layerId = "D1413726-767D-4628-9B63-3A1C0748A050";
shapes = (
{
closed = 1;
nodes = (
(84,-1,o),
(119,0,o),
(159,0,cs),
(200,0,o),
(242,-1,o),
(283,-3,c),
(283,8,l),
(218,9,o),
(194,10,o),
(194,69,cs),
(194,320,l),
(338,320,ls),
(386,320,o),
(411,288,o),
(414,232,c),
(425,232,l),
(425,417,l),
(414,417,l),
(405,356,o),
(389,338,o),
(318,338,cs),
(194,338,l),
(194,611,l),
(359,611,ls),
(431,611,o),
(444,576,o),
(447,515,c),
(458,515,l),
(456,632,l),
(377,630,o),
(297,629,o),
(257,629,cs),
(198,629,o),
(63,632,o),
(36,632,c),
(36,621,l),
(97,621,o),
(116,621,o),
(116,558,cs),
(116,71,ls),
(116,8,o),
(95,8,o),
(40,8,c),
(40,-3,l)
);
}
);
width = 487;
},
{
anchors = (
{
name = bottom;
pos = (273,0);
},
{
name = top;
pos = (273,629);
}
);
layerId = "E7B116FE-7576-4B50-8DFF-8E55DA3EEB52";
shapes = (
{
closed = 1;
nodes = (
(86,-3,o),
(129,0,o),
(153,0,cs),
(251,0,o),
(301,-3,o),
(374,-3,c),
(374,11,l),
(312,11,o),
(269,11,o),
(269,62,cs),
(269,312,l),
(365,312,ls),
(448,312,o),
(459,287,o),
(471,233,c),
(485,233,l),
(485,421,l),
(472,421,l),
(458,368,o),
(451,343,o),
(376,343,cs),
(268,343,l),
(268,598,l),
(390,598,ls),
(478,598,o),
(507,563,o),
(511,497,c),
(525,497,l),
(525,632,l),
(480,632,o),
(345,629,o),
(308,629,cs),
(284,629,o),
(41,632,o),
(13,632,c),
(13,618,l),
(67,618,o),
(107,618,o),
(107,565,cs),
(107,62,ls),
(107,11,o),
(70,11,o),
(13,11,c),
(13,-3,l)
);
}
);
width = 546;
}
);
metricLeft = H;
note = F;
unicode = 70;
},
{
color = 3;
glyphname = Fhook;
lastChange = "2024-08-03 15:25:52 +0000";
layers = (
{
layerId = "C56BE457-17E3-437C-A42F-4BD1DE972727";
shapes = (
{
closed = 1;
nodes = (
(137,-226,o),
(205,-108,o),
(205,-6,cs),
(205,311,l),
(349,311,ls),
(389,311,o),
(406,286,o),
(408,232,c),
(434,232,l),
(434,417,l),
(408,417,l),
(400,353,o),
(391,343,o),
(329,343,cs),
(205,343,l),
(205,599,l),
(370,599,ls),
(428,599,o),
(439,559,o),
(442,499,c),
(469,499,l),
(467,632,l),
(388,630,o),
(308,629,o),
(268,629,cs),
(209,629,o),
(68,632,o),
(41,632,c),
(41,605,l),
(102,605,o),
(121,605,o),
(121,542,cs),
(121,-59,ls),
(121,-148,o),
(85,-227,o),
(32,-262,c),
(47,-284,l)
);
}
);
width = 498;
},
{
layerId = "3B95F746-F211-4218-A5C8-A7CCC072D238";
shapes = (
{
closed = 1;
nodes = (
(215,-185,o),
(260,-66,o),
(260,9,cs),
(260,307,l),
(380,307,ls),
(428,307,o),
(443,292,o),
(450,217,c),
(485,217,l),
(485,432,l),
(453,432,l),
(443,372,o),
(427,348,o),
(381,348,cs),
(260,348,l),
(260,584,l),
(362,584,ls),
(465,584,o),
(495,559,o),
(500,467,c),
(532,467,l),
(534,632,l),
(497,632,o),
(363,629,o),
(223,629,cs),
(147,629,o),
(44,632,o),
(17,632,c),
(17,600,l),
(51,600,o),
(104,598,o),
(104,544,cs),
(104,-55,ls),
(104,-151,o),
(73,-202,o),
(10,-251,c),
(36,-280,l)
);
}
);
width = 556;
},
{
layerId = "D1413726-767D-4628-9B63-3A1C0748A050";
shapes = (
{
closed = 1;
nodes = (
(128,-226,o),
(190,-108,o),
(190,-6,cs),
(190,320,l),
(334,320,ls),
(382,320,o),
(407,288,o),
(410,232,c),
(420,232,l),
(420,417,l),
(410,417,l),
(401,356,o),
(385,338,o),
(314,338,cs),
(190,338,l),
(190,611,l),
(355,611,ls),
(427,611,o),
(440,576,o),
(443,515,c),
(454,515,l),
(452,632,l),
(373,630,o),
(293,629,o),
(253,629,cs),
(194,629,o),
(59,632,o),
(32,632,c),
(32,621,l),
(93,621,o),
(112,621,o),
(112,558,cs),
(112,-71,ls),
(112,-151,o),
(84,-239,o),
(32,-275,c),
(38,-284,l)
);
}
);
width = 483;
},
{
layerId = "E7B116FE-7576-4B50-8DFF-8E55DA3EEB52";
shapes = (
{
closed = 1;
nodes = (
(232,-185,o),
(268,-66,o),
(268,9,cs),
(268,311,l),
(364,311,ls),
(447,311,o),
(458,286,o),
(470,232,c),
(484,232,l),
(484,421,l),
(470,421,l),
(456,368,o),
(450,342,o),
(375,342,cs),
(267,342,l),
(267,598,l),
(389,598,ls),
(477,598,o),
(506,563,o),
(510,497,c),
(524,497,l),
(524,632,l),
(479,632,o),
(344,629,o),
(307,629,cs),
(283,629,o),
(40,632,o),
(12,632,c),
(12,618,l),
(66,618,o),
(106,618,o),
(106,565,cs),
(106,-55,ls),
(106,-156,o),
(74,-220,o),
(15,-271,c),
(25,-285,l)
);
}
);
width = 545;
}
);
metricLeft = U;
metricRight = F;
unicode = 401;
},
{
color = 3;
glyphname = G;
kernLeft = O;
kernRight = G;
lastChange = "2024-10-18 09:19:06 +0000";
layers = (
{
anchors = (
{
name = bottom;
pos = (359,0);
},
{
name = top;
pos = (391,629);
}
);
hints = (
{
horizontal = 1;
origin = (0,46);
target = (0,23);
type = Stem;
},
{
horizontal = 1;
origin = (0,16);
target = (0,14);
type = Stem;
},
{
horizontal = 1;
origin = (0,40);
target = (0,29);
type = Stem;
},
{
origin = (0,43);
target = (0,26);
type = Stem;
},
{
origin = (0,20);
target = (0,3);
type = Stem;
}
);
layerId = "C56BE457-17E3-437C-A42F-4BD1DE972727";
shapes = (
{
closed = 1;
nodes = (
(496,-11,o),
(561,-6,o),
(613,1,c),
(613,152,ls),
(613,210,o),
(625,217,o),
(677,217,cs),
(694,217,l),
(694,244,l),
(645,242,o),
(594,241,o),
(569,241,cs),
(525,241,o),
(472,244,o),
(435,244,c),
(435,217,l),
(463,217,ls),
(515,217,o),
(534,217,o),
(534,154,cs),
(534,67,ls),
(534,25,o),
(488,17,o),
(432,17,cs),
(249,17,o),
(141,124,o),
(141,318,cs),
(141,504,o),
(206,615,o),
(417,615,cs),
(572,615,o),
(578,549,o),
(581,500,c),
(609,500,l),
(609,642,l),
(600,639,o),
(579,637,o),
(544,637,cs),
(519,637,o),
(440,643,o),
(418,643,cs),
(104,643,o),
(43,405,o),
(43,310,cs),
(43,179,o),
(133,-11,o),
(442,-11,cs)
);
}
);
width = 715;
},
{
anchors = (
{
name = bottom;
pos = (385,0);
},
{
name = top;
pos = (424,629);
}
);
background = {
shapes = (
{
closed = 1;
nodes = (
(509,-10,o),
(558,-10,o),
(628,-1,c),
(628,159,ls),
(628,180,o),
(659,189,o),
(691,189,cs),
(703,189,l),
(703,218,l),
(653,220,o),
(578,215,o),
(561,215,cs),
(548,215,o),
(465,218,o),
(379,218,c),
(379,189,l),
(419,189,ls),
(467,189,o),
(483,171,o),
(483,145,cs),
(483,96,ls),
(483,27,o),
(492,20,o),
(436,20,cs),
(242,20,o),
(207,155,o),
(207,302,cs),
(207,507,o),
(296,561,o),
(410,561,cs),
(506,561,o),
(585,548,o),
(588,441,c),
(614,441,l),
(616,588,l),
(604,588,o),
(594,588,o),
(600,588,cs),
(561,588,o),
(510,601,o),
(401,601,cs),
(126,601,o),
(46,433,o),
(46,275,cs),
(46,-48,o),
(285,-10,o),
(437,-10,cs)
);
}
);
};
layerId = "3B95F746-F211-4218-A5C8-A7CCC072D238";
shapes = (
{
closed = 1;
nodes = (
(526,-11,o),
(638,1,o),
(678,11,c),
(678,179,ls),
(678,219,o),
(701,228,o),
(744,228,cs),
(759,228,l),
(759,260,l),
(707,260,o),
(615,257,o),
(588,257,cs),
(557,257,o),
(481,260,o),
(416,260,c),
(416,228,l),
(451,228,ls),
(503,228,o),
(522,218,o),
(522,173,cs),
(522,85,ls),
(522,27,o),
(504,25,o),
(451,25,cs),
(284,25,o),
(222,146,o),
(222,322,cs),
(222,526,o),
(302,606,o),
(443,606,cs),
(590,606,o),
(626,564,o),
(630,474,c),
(663,474,l),
(664,638,l),
(654,636,o),
(636,633,o),
(618,633,cs),
(580,633,o),
(504,645,o),
(426,646,cs),
(147,649,o),
(48,486,o),
(48,303,cs),
(48,96,o),
(216,-11,o),
(472,-11,cs)
);
}
);
width = 770;
},
{
anchors = (
{
name = bottom;
pos = (357,0);
},
{
name = top;
pos = (398,629);
}
);
layerId = "D1413726-767D-4628-9B63-3A1C0748A050";
shapes = (
{
closed = 1;
nodes = (
(494,-12,o),
(559,-8,o),
(611,0,c),
(611,157,ls),
(611,214,o),
(623,221,o),
(675,221,cs),
(692,221,l),
(692,232,l),
(643,230,o),
(592,230,o),
(567,230,cs),
(523,230,o),
(470,232,o),
(433,232,c),
(433,221,l),
(461,221,ls),
(513,221,o),
(532,221,o),
(532,159,cs),
(532,55,ls),
(532,10,o),
(486,2,o),
(430,2,cs),
(244,2,o),
(135,114,o),
(135,318,cs),
(135,515,o),
(201,625,o),
(415,625,cs),
(589,625,o),
(593,559,o),
(596,508,c),
(607,508,l),
(607,639,l),
(588,636,o),
(577,634,o),
(542,634,cs),
(517,634,o),
(438,639,o),
(416,639,cs),
(104,639,o),
(43,405,o),
(43,310,cs),
(43,179,o),
(133,-12,o),
(440,-12,cs)
);
}
);
width = 713;
},
{
anchors = (
{
name = bottom;
pos = (389,0);
},
{
name = top;
pos = (434,629);
}
);
layerId = "E7B116FE-7576-4B50-8DFF-8E55DA3EEB52";
shapes = (
{
closed = 1;
nodes = (
(550,-11,o),
(616,-5,o),
(687,3,c),
(687,173,ls),
(687,213,o),
(710,221,o),
(753,221,cs),
(768,221,l),
(768,235,l),
(708,235,o),
(613,232,o),
(585,232,cs),
(556,232,o),
(485,235,o),
(420,235,c),
(420,221,l),
(456,221,ls),
(508,221,o),
(526,212,o),
(526,166,cs),
(526,85,ls),
(526,21,o),
(513,6,o),
(471,6,cs),
(291,6,o),
(221,140,o),
(221,322,cs),
(221,541,o),
(296,624,o),
(449,624,cs),
(594,624,o),
(649,584,o),
(652,494,c),
(666,494,l),
(667,635,l),
(653,634,o),
(635,632,o),
(615,633,cs),
(554,635,o),
(486,641,o),
(445,641,cs),
(123,641,o),
(45,447,o),
(45,314,cs),
(45,75,o),
(228,-11,o),
(476,-11,cs)
);
}
);
width = 777;
}
);
metricLeft = O;
note = G;
unicode = 71;
},
{
color = 3;
glyphname = H;
kernLeft = H;
kernRight = H;
lastChange = "2024-10-18 09:19:06 +0000";
layers = (
{
anchors = (
{
name = bottom;
pos = (363,0);
},
{
name = center;
pos = (363,315);
},
{
name = top;
pos = (363,629);
},
{
name = topleft;
pos = (24,629);
}
);
hints = (
{
horizontal = 1;
origin = (0,71);
target = (0,70);
type = Stem;
},
{
horizontal = 1;
origin = (0,12);
target = (0,48);
type = Stem;
},
{
horizontal = 1;
origin = (0,60);
target = (0,62);
type = Stem;
},
{
origin = (0,66);
target = (0,49);
type = Stem;
},
{
origin = (0,47);
target = (0,30);
type = Stem;
}
);
layerId = "C56BE457-17E3-437C-A42F-4BD1DE972727";
shapes = (
{
closed = 1;
nodes = (
(80,-1,o),
(116,0,o),
(162,0,cs),
(205,0,o),
(244,-1,o),
(286,-3,c),
(286,24,l),
(259,24,ls),
(212,24,o),
(199,32,o),
(199,89,cs),
(199,311,l),
(526,311,l),
(526,89,ls),
(526,33,o),
(514,24,o),
(467,24,cs),
(439,24,l),
(439,-3,l),
(483,-1,o),
(527,0,o),
(571,0,cs),
(612,0,o),
(653,-1,o),
(689,-3,c),
(689,24,l),
(685,24,l),
(627,24,o),
(611,25,o),
(611,86,cs),
(611,542,ls),
(611,604,o),
(629,605,o),
(687,605,c),
(689,605,l),
(689,632,l),
(643,630,o),
(594,629,o),
(571,629,cs),
(527,629,o),
(482,631,o),
(439,632,c),
(439,605,l),
(457,605,ls),
(512,605,o),
(526,600,o),
(526,542,cs),
(526,347,l),
(199,347,l),
(199,541,ls),
(199,595,o),
(211,605,o),
(262,605,cs),
(286,605,l),
(286,632,l),
(230,630,o),
(197,629,o),
(160,629,cs),
(132,629,o),
(82,630,o),
(36,632,c),
(36,605,l),
(38,605,l),
(102,605,o),
(114,602,o),
(114,541,cs),
(114,93,ls),
(114,30,o),
(105,24,o),
(41,24,c),
(37,24,l),
(37,-3,l)
);
}
);
width = 725;
},
{
anchors = (
{
name = bottom;
pos = (395,0);
},
{
name = center;
pos = (395,315);
},
{
name = top;
pos = (395,629);
},
{
name = topleft;
pos = (20,629);
}
);
background = {
shapes = (
{
closed = 1;
nodes = (
(96,-1,o),
(129,0,o),
(168,0,cs),
(206,0,o),
(242,-1,o),
(281,-3,c),
(281,17,l),
(256,17,ls),
(213,17,o),
(201,25,o),
(201,77,cs),
(201,290,l),
(507,290,l),
(507,77,ls),
(507,26,o),
(496,17,o),
(453,17,cs),
(427,17,l),
(427,-3,l),
(467,-1,o),
(504,0,o),
(543,0,cs),
(581,0,o),
(619,-1,o),
(653,-3,c),
(653,17,l),
(596,17,o),
(580,18,o),
(580,75,cs),
(580,507,ls),
(580,564,o),
(597,565,o),
(653,565,c),
(653,585,l),
(610,583,o),
(565,582,o),
(543,582,cs),
(516,582,o),
(448,585,o),
(427,585,c),
(427,565,l),
(443,565,ls),
(494,565,o),
(507,561,o),
(507,507,cs),
(507,318,l),
(201,318,l),
(201,506,ls),
(201,556,o),
(212,565,o),
(259,565,cs),
(281,565,l),
(281,585,l),
(231,583,o),
(199,582,o),
(166,582,cs),
(144,582,o),
(98,583,o),
(55,585,c),
(55,565,l),
(116,565,o),
(128,562,o),
(128,506,cs),
(128,81,ls),
(128,23,o),
(118,17,o),
(56,17,c),
(56,-3,l)
);
}
);
};
layerId = "3B95F746-F211-4218-A5C8-A7CCC072D238";
shapes = (
{
closed = 1;
nodes = (
(73,-1,o),
(120,0,o),
(149,0,cs),
(175,0,o),
(292,-1,o),
(336,-3,c),
(336,29,l),
(332,29,ls),
(285,29,o),
(256,21,o),
(256,81,cs),
(256,303,l),
(535,303,l),
(535,81,ls),
(535,29,o),
(504,29,o),
(456,29,cs),
(455,29,l),
(455,-3,l),
(524,-1,o),
(557,0,o),
(586,0,cs),
(615,0,o),
(707,-1,o),
(779,-3,c),
(779,29,l),
(774,29,l),
(744,29,o),
(691,32,o),
(691,83,cs),
(691,549,ls),
(691,596,o),
(727,600,o),
(772,600,cs),
(779,600,l),
(779,632,l),
(721,630,o),
(686,629,o),
(640,629,cs),
(579,629,o),
(516,629,o),
(455,632,c),
(455,600,l),
(464,600,ls),
(507,600,o),
(535,599,o),
(535,549,cs),
(535,350,l),
(256,350,l),
(256,550,ls),
(256,596,o),
(282,600,o),
(326,600,cs),
(336,600,l),
(336,632,l),
(310,632,o),
(232,629,o),
(201,629,cs),
(156,629,o),
(78,630,o),
(12,632,c),
(12,600,l),
(21,600,ls),
(57,600,o),
(99,597,o),
(99,548,cs),
(99,83,ls),
(99,29,o),
(44,29,o),
(28,29,cs),
(11,29,l),
(11,-3,l)
);
}
);
width = 790;
},
{
anchors = (
{
name = bottom;
pos = (359,0);
},
{
name = center;
pos = (359,315);
},
{
name = top;
pos = (359,629);
},
{
name = topleft;
pos = (20,629);
}
);
layerId = "D1413726-767D-4628-9B63-3A1C0748A050";
shapes = (
{
closed = 1;
nodes = (
(80,-1,o),
(116,0,o),
(158,0,cs),
(199,0,o),
(238,-1,o),
(280,-3,c),
(280,8,l),
(253,8,ls),
(206,8,o),
(193,16,o),
(193,72,cs),
(193,318,l),
(524,318,l),
(524,72,ls),
(524,17,o),
(512,8,o),
(465,8,cs),
(437,8,l),
(437,-3,l),
(481,-1,o),
(521,0,o),
(563,0,cs),
(604,0,o),
(645,-1,o),
(681,-3,c),
(681,8,l),
(677,8,l),
(619,8,o),
(603,9,o),
(603,70,cs),
(603,558,ls),
(603,620,o),
(621,621,o),
(679,621,c),
(681,621,l),
(681,632,l),
(635,630,o),
(586,629,o),
(563,629,cs),
(521,629,o),
(480,631,o),
(437,632,c),
(437,621,l),
(455,621,ls),
(510,621,o),
(524,617,o),
(524,558,cs),
(524,336,l),
(193,336,l),
(193,557,ls),
(193,611,o),
(205,621,o),
(256,621,cs),
(280,621,l),
(280,632,l),
(224,630,o),
(191,629,o),
(156,629,cs),
(132,629,o),
(82,630,o),
(36,632,c),
(36,621,l),
(38,621,l),
(102,621,o),
(114,618,o),
(114,557,cs),
(114,77,ls),
(114,14,o),
(105,8,o),
(41,8,c),
(37,8,l),
(37,-3,l)
);
}
);
width = 717;
},
{
anchors = (
{
name = bottom;
pos = (404,0);
},
{
name = center;
pos = (404,315);
},
{
name = top;
pos = (404,629);
},
{
name = topleft;
pos = (20,629);
}
);
background = {
shapes = (
{
closed = 1;
nodes = (
(77,-1,o),
(120,0,o),
(147,0,cs),
(171,0,o),
(279,-1,o),
(320,-3,c),
(320,28,l),
(316,28,ls),
(273,28,o),
(246,20,o),
(246,76,cs),
(246,276,l),
(504,276,l),
(504,76,ls),
(504,28,o),
(476,28,o),
(431,28,cs),
(430,28,l),
(430,-3,l),
(494,-1,o),
(525,0,o),
(552,0,cs),
(578,0,o),
(664,-1,o),
(730,-3,c),
(730,28,l),
(726,28,l),
(698,28,o),
(649,31,o),
(649,78,cs),
(649,508,ls),
(649,552,o),
(682,556,o),
(724,556,cs),
(730,556,l),
(730,585,l),
(677,583,o),
(644,582,o),
(602,582,cs),
(545,582,o),
(487,582,o),
(430,585,c),
(430,556,l),
(439,556,ls),
(478,556,o),
(504,555,o),
(504,508,cs),
(504,329,l),
(246,329,l),
(246,509,ls),
(246,552,o),
(270,556,o),
(311,556,cs),
(320,556,l),
(320,585,l),
(296,585,o),
(224,582,o),
(195,582,cs),
(153,582,o),
(81,583,o),
(20,585,c),
(20,556,l),
(28,556,ls),
(62,556,o),
(101,553,o),
(101,507,cs),
(101,78,ls),
(101,28,o),
(50,28,o),
(35,28,cs),
(19,28,l),
(19,-3,l)
);
}
);
};
layerId = "E7B116FE-7576-4B50-8DFF-8E55DA3EEB52";
shapes = (
{
closed = 1;
nodes = (
(70,-2,o),
(113,0,o),
(175,0,cs),
(230,0,o),
(308,-2,o),
(351,-3,c),
(351,11,l),
(347,11,l),
(300,11,o),
(268,12,o),
(268,64,cs),
(268,309,l),
(540,309,l),
(540,64,ls),
(540,11,o),
(502,11,o),
(451,11,c),
(446,11,l),
(446,-3,l),
(507,-1,o),
(546,0,o),
(585,0,cs),
(645,0,o),
(738,-1,o),
(795,-3,c),
(795,11,l),
(791,11,l),
(740,11,o),
(701,12,o),
(701,64,cs),
(701,566,ls),
(701,618,o),
(739,618,o),
(791,618,c),
(795,618,l),
(795,632,l),
(739,630,o),
(693,629,o),
(656,629,cs),
(578,629,o),
(501,630,o),
(446,632,c),
(446,618,l),
(447,618,l),
(501,618,o),
(540,618,o),
(540,566,cs),
(540,349,l),
(268,349,l),
(268,566,ls),
(268,618,o),
(299,618,o),
(347,618,c),
(351,618,l),
(351,632,l),
(310,632,o),
(255,629,o),
(200,629,cs),
(140,629,o),
(72,630,o),
(13,632,c),
(13,618,l),
(18,618,l),
(66,618,o),
(107,618,o),
(107,566,cs),
(107,64,ls),
(107,11,o),
(70,11,o),
(24,11,c),
(13,11,l),
(13,-3,l)
);
}
);
width = 808;
}
);
metricRight = "=|";
note = H;
unicode = 72;
},
{
color = 3;
glyphname = Hbar;
kernLeft = H;
kernRight = H;
lastChange = "2024-06-21 22:07:50 +0000";
layers = (
{
layerId = "C56BE457-17E3-437C-A42F-4BD1DE972727";
shapes = (
{
closed = 1;
nodes = (
(676,460,l),
(676,487,l),
(48,487,l),
(48,460,l)
);
},
{
ref = H;
}
);
width = 717;
},
{
layerId = "3B95F746-F211-4218-A5C8-A7CCC072D238";
shapes = (
{
closed = 1;
nodes = (
(772,451,l),
(772,488,l),
(18,488,l),
(18,451,l)
);
},
{
ref = H;
}
);
width = 790;
},
{
layerId = "D1413726-767D-4628-9B63-3A1C0748A050";
shapes = (
{
closed = 1;
nodes = (
(670,461,l),
(670,478,l),
(48,478,l),
(48,461,l)
);
},
{
ref = H;
}
);
width = 717;
},
{
layerId = "E7B116FE-7576-4B50-8DFF-8E55DA3EEB52";
shapes = (
{
closed = 1;
nodes = (
(790,461,l),
(790,488,l),
(18,488,l),
(18,461,l)
);
},
{
ref = H;
}
);
width = 808;
}
);
unicode = 294;
},
{
color = 3;
glyphname = I;
kernLeft = H;
kernRight = H;
lastChange = "2024-10-18 09:19:06 +0000";
layers = (
{
anchors = (
{
name = bottom;
pos = (157,0);
},
{
name = ogonek;
pos = (256,10);
},
{
name = top;
pos = (157,629);
},
{
name = topleft;
pos = (20,629);
}
);
background = {
shapes = (
{
closed = 1;
nodes = (
(83,0,o),
(100,0,o),
(122,0,cs),
(157,0,o),
(195,-3,o),
(235,-3,c),
(235,13,l),
(178,13,o),
(162,13,o),
(162,71,cs),
(162,507,ls),
(162,560,o),
(173,568,o),
(218,568,cs),
(242,568,l),
(242,585,l),
(197,583,o),
(151,582,o),
(129,582,cs),
(113,582,o),
(27,585,o),
(16,585,c),
(16,568,l),
(35,568,ls),
(80,568,o),
(89,557,o),
(89,507,cs),
(89,72,ls),
(89,20,o),
(76,13,o),
(32,13,cs),
(9,13,l),
(9,-3,l)
);
}
);
};
hints = (
{
horizontal = 1;
origin = (0,29);
target = (0,28);
type = Stem;
},
{
horizontal = 1;
origin = (0,17);
target = (0,21);
type = Stem;
},
{
horizontal = 1;
origin = (0,20);
target = (0,21);
type = Stem;
},
{
origin = (0,25);
target = (0,10);
type = Stem;
}
);
layerId = "C56BE457-17E3-437C-A42F-4BD1DE972727";
shapes = (
{
closed = 1;
nodes = (
(76,-1,o),
(127,0,o),
(150,0,cs),
(194,0,o),
(235,-1,o),
(278,-3,c),
(278,24,l),
(217,24,o),
(199,28,o),
(199,91,cs),
(199,539,ls),
(199,603,o),
(208,605,o),
(278,605,c),
(278,632,l),
(233,630,o),
(186,629,o),
(164,629,cs),
(146,629,o),
(77,631,o),
(36,632,c),
(36,605,l),
(102,605,o),
(114,602,o),
(114,539,cs),
(114,92,ls),
(114,29,o),
(104,24,o),
(36,24,c),
(36,-3,l)
);
}
);
width = 314;
},
{
anchors = (
{
name = bottom;
pos = (177,0);
},
{
name = ogonek;
pos = (293,10);
},
{
name = top;
pos = (177,629);
},
{
name = topleft;
pos = (20,629);
}
);
layerId = "3B95F746-F211-4218-A5C8-A7CCC072D238";
shapes = (
{
closed = 1;
nodes = (
(68,-3,o),
(72,0,o),
(153,0,cs),
(204,0,o),
(278,-3,o),
(342,-3,c),
(342,29,l),
(287,29,o),
(255,34,o),
(255,84,cs),
(255,544,ls),
(255,598,o),
(296,600,o),
(342,600,c),
(342,632,l),
(297,630,o),
(246,629,o),
(198,629,cs),
(159,629,o),
(82,629,o),
(11,632,c),
(11,600,l),
(51,600,o),
(98,599,o),
(98,544,cs),
(98,82,ls),
(98,32,o),
(38,29,o),
(11,29,c),
(11,-3,l)
);
}
);
width = 353;
},
{
anchors = (
{
name = bottom;
pos = (154,0);
},
{
name = ogonek;
pos = (254,10);
},
{
name = top;
pos = (154,629);
},
{
name = topleft;
pos = (20,629);
}
);
background = {
shapes = (
{
closed = 1;
nodes = (
(83,0,o),
(100,0,o),
(122,0,cs),
(157,0,o),
(195,-3,o),
(235,-3,c),
(235,13,l),
(178,13,o),
(162,13,o),
(162,71,cs),
(162,507,ls),
(162,560,o),
(173,568,o),
(218,568,cs),
(242,568,l),
(242,585,l),
(197,583,o),
(151,582,o),
(129,582,cs),
(113,582,o),
(27,585,o),
(16,585,c),
(16,568,l),
(35,568,ls),
(80,568,o),
(89,557,o),
(89,507,cs),
(89,72,ls),
(89,20,o),
(76,13,o),
(32,13,cs),
(9,13,l),
(9,-3,l)
);
}
);
};
layerId = "D1413726-767D-4628-9B63-3A1C0748A050";
shapes = (
{
closed = 1;
nodes = (
(76,-1,o),
(127,0,o),
(150,0,cs),
(188,0,o),
(229,-1,o),
(272,-3,c),
(272,8,l),
(211,8,o),
(193,12,o),
(193,75,cs),
(193,555,ls),
(193,619,o),
(202,621,o),
(272,621,c),
(272,632,l),
(227,630,o),
(180,629,o),
(158,629,cs),
(140,629,o),
(77,631,o),
(36,632,c),
(36,621,l),
(102,621,o),
(114,618,o),
(114,555,cs),
(114,76,ls),
(114,13,o),
(104,8,o),
(36,8,c),
(36,-3,l)
);
}
);
width = 308;
},
{
anchors = (
{
name = bottom;
pos = (188,0);
},
{
name = ogonek;
pos = (314,11);
},
{
name = top;
pos = (188,629);
},
{
name = topleft;
pos = (20,629);
}
);
layerId = "E7B116FE-7576-4B50-8DFF-8E55DA3EEB52";
shapes = (
{
closed = 1;
nodes = (
(62,-2,o),
(100,0,o),
(152,0,cs),
(240,0,o),
(308,-2,o),
(362,-3,c),
(362,11,l),
(314,11,o),
(268,11,o),
(268,64,cs),
(268,565,ls),
(268,618,o),
(314,618,o),
(362,618,c),
(362,632,l),
(316,630,o),
(257,629,o),
(221,629,cs),
(193,629,o),
(69,630,o),
(13,632,c),
(13,618,l),
(60,618,o),
(107,618,o),
(107,565,cs),
(107,64,ls),
(107,11,o),
(60,11,o),
(13,11,c),
(13,-3,l)
);
}
);
width = 375;
}
);
metricLeft = H;
metricRight = "=|";
note = I;
unicode = 73;
},
{
color = 3;
glyphname = J;
kernLeft = J;
kernRight = J;
lastChange = "2024-10-18 09:19:06 +0000";
layers = (
{
anchors = (
{
name = bottom;
pos = (141,0);
},
{
name = top;
pos = (141,629);
}
);
hints = (
{
horizontal = 1;
origin = (0,15);
target = (0,17);
type = Stem;
},
{
origin = (0,21);
target = (0,4);
type = Stem;
}
);
layerId = "C56BE457-17E3-437C-A42F-4BD1DE972727";
shapes = (
{
closed = 1;
nodes = (
(42,-269,l),
(138,-176,o),
(188,-80,o),
(188,25,cs),
(188,542,ls),
(188,605,o),
(204,605,o),
(268,605,c),
(269,605,l),
(269,632,l),
(219,630,o),
(167,629,o),
(139,629,cs),
(111,629,o),
(59,630,o),
(13,632,c),
(13,605,l),
(14,605,l),
(79,604,o),
(103,605,o),
(103,542,cs),
(103,10,ls),
(103,-110,o),
(83,-187,o),
(13,-269,c)
);
}
);
width = 284;
},
{
anchors = (
{
name = bottom;
pos = (169,0);
},
{
name = top;
pos = (169,629);
}
);
layerId = "3B95F746-F211-4218-A5C8-A7CCC072D238";
shapes = (
{
closed = 1;
nodes = (
(44,-269,l),
(186,-181,o),
(249,-84,o),
(249,40,cs),
(249,547,ls),
(249,600,o),
(285,600,o),
(333,600,c),
(334,600,l),
(334,632,l),
(284,630,o),
(202,629,o),
(166,629,cs),
(144,629,o),
(54,630,o),
(9,632,c),
(9,600,l),
(10,600,l),
(58,600,o),
(93,600,o),
(93,547,cs),
(93,-29,ls),
(93,-120,o),
(65,-199,o),
(4,-269,c)
);
}
);
width = 338;
},
{
anchors = (
{
name = bottom;
pos = (141,0);
},
{
name = top;
pos = (141,629);
}
);
layerId = "D1413726-767D-4628-9B63-3A1C0748A050";
shapes = (
{
closed = 1;
nodes = (
(27,-269,l),
(127,-176,o),
(185,-80,o),
(185,25,cs),
(185,558,ls),
(185,621,o),
(201,621,o),
(265,621,c),
(266,621,l),
(266,632,l),
(216,630,o),
(164,629,o),
(139,629,cs),
(114,629,o),
(62,630,o),
(13,632,c),
(13,621,l),
(14,621,l),
(82,620,o),
(106,621,o),
(106,558,cs),
(106,10,ls),
(106,-110,o),
(83,-187,o),
(13,-269,c)
);
}
);
width = 281;
},
{
anchors = (
{
name = bottom;
pos = (178,0);
},
{
name = top;
pos = (178,629);
}
);
layerId = "E7B116FE-7576-4B50-8DFF-8E55DA3EEB52";
shapes = (
{
closed = 1;
nodes = (
(28,-269,l),
(177,-181,o),
(257,-84,o),
(257,40,cs),
(257,565,ls),
(257,618,o),
(293,618,o),
(340,618,c),
(341,618,l),
(341,632,l),
(292,630,o),
(240,629,o),
(170,629,cs),
(147,629,o),
(57,630,o),
(12,632,c),
(12,618,l),
(13,618,l),
(62,618,o),
(96,618,o),
(96,565,cs),
(96,-29,ls),
(96,-120,o),
(71,-199,o),
(11,-269,c)
);
}
);
width = 355;
}
);
note = J;
unicode = 74;
},
{
color = 3;
glyphname = K;
kernLeft = H;
kernRight = X;
lastChange = "2024-10-18 09:19:06 +0000";
layers = (
{
anchors = (
{
name = bottom;
pos = (309,0);
},
{
name = top;
pos = (309,629);
}
);
hints = (
{
horizontal = 1;
origin = (0,86);
target = (0,85);
type = Stem;
},
{
horizontal = 1;
origin = (0,75);
target = (0,77);
type = Stem;
},
{
origin = (0,81);
target = (0,64);
type = Stem;
}
);
layerId = "C56BE457-17E3-437C-A42F-4BD1DE972727";
shapes = (
{
closed = 1;
nodes = (
(80,-1,o),
(116,0,o),
(164,0,cs),
(205,0,o),
(244,-1,o),
(286,-3,c),
(286,24,l),
(259,24,ls),
(212,24,o),
(199,32,o),
(199,89,cs),
(199,282,ls),
(199,289,o),
(200,299,o),
(207,299,cs),
(212,299,o),
(214,297,o),
(228,281,cs),
(401,75,ls),
(410,65,o),
(416,55,o),
(416,46,cs),
(416,26,o),
(390,24,o),
(356,24,c),
(356,-3,l),
(401,-2,o),
(460,0,o),
(487,0,cs),
(504,0,o),
(561,-2,o),
(596,-3,c),
(596,24,l),
(571,26,o),
(538,30,o),
(499,77,cs),
(274,345,l),
(427,512,ls),
(483,573,o),
(519,606,o),
(581,606,cs),
(596,606,l),
(596,632,l),
(556,630,o),
(519,629,o),
(486,629,cs),
(447,629,o),
(410,630,o),
(368,632,c),
(368,606,l),
(393,606,ls),
(434,606,o),
(444,603,o),
(444,591,cs),
(444,586,o),
(441,572,o),
(420,549,cs),
(248,359,ls),
(219,326,o),
(208,316,o),
(204,316,cs),
(200,316,o),
(199,322,o),
(199,330,cs),
(199,541,ls),
(199,595,o),
(211,605,o),
(262,605,cs),
(286,605,l),
(286,632,l),
(230,630,o),
(197,629,o),
(162,629,cs),
(132,629,o),
(82,630,o),
(36,632,c),
(36,605,l),
(38,605,l),
(102,605,o),
(114,602,o),
(114,541,cs),
(114,93,ls),
(114,30,o),
(105,24,o),
(41,24,c),
(37,24,l),
(37,-3,l)
);
}
);
width = 612;
},
{
anchors = (
{
name = bottom;
pos = (357,0);
},
{
name = top;
pos = (357,629);
}
);
background = {
shapes = (
{
closed = 1;
nodes = (
(67,-1,o),
(110,0,o),
(137,0,cs),
(161,0,o),
(269,-1,o),
(310,-3,c),
(310,24,l),
(327,24,ls),
(284,24,o),
(236,18,o),
(236,62,cs),
(236,285,ls),
(236,290,o),
(239,285,o),
(239,285,cs),
(244,285,o),
(256,271,o),
(255,270,cs),
(391,89,ls),
(395,82,o),
(415,63,o),
(415,43,cs),
(415,26,o),
(381,26,o),
(367,24,c),
(367,-3,l),
(423,0,o),
(455,0,o),
(468,0,cs),
(510,0,o),
(591,0,o),
(659,-3,c),
(659,24,l),
(606,28,o),
(593,51,o),
(546,114,cs),
(361,356,l),
(495,472,ls),
(577,549,o),
(636,555,o),
(673,561,cs),
(661,561,l),
(661,585,l),
(648,585,o),
(550,582,o),
(547,582,cs),
(533,582,o),
(459,585,o),
(424,585,c),
(424,561,l),
(407,561,ls),
(415,561,o),
(495,566,o),
(495,545,cs),
(495,533,o),
(482,524,o),
(474,518,cs),
(217,280,ls),
(236,302,o),
(238,307,o),
(238,307,cs),
(237,307,o),
(236,304,o),
(236,306,cs),
(236,523,ls),
(236,569,o),
(287,560,o),
(322,560,cs),
(310,560,l),
(310,585,l),
(286,585,o),
(214,582,o),
(185,582,cs),
(143,582,o),
(71,583,o),
(10,585,c),
(10,560,l),
(18,560,l),
(37,560,o),
(91,563,o),
(91,523,cs),
(91,58,ls),
(91,18,o),
(40,24,o),
(25,24,c),
(9,24,l),
(9,-3,l)
);
}
);
};
layerId = "3B95F746-F211-4218-A5C8-A7CCC072D238";
shapes = (
{
closed = 1;
nodes = (
(64,-1,o),
(117,0,o),
(152,0,cs),
(186,0,o),
(295,-1,o),
(338,-3,c),
(338,29,l),
(334,29,l),
(287,29,o),
(255,30,o),
(255,82,cs),
(255,295,ls),
(255,301,o),
(257,303,o),
(260,303,cs),
(266,303,o),
(273,295,o),
(280,286,cs),
(429,90,ls),
(436,81,o),
(449,66,o),
(449,51,cs),
(449,31,o),
(418,30,o),
(393,29,c),
(393,-3,l),
(446,-1,o),
(501,0,o),
(524,0,cs),
(555,0,o),
(659,-1,o),
(713,-3,c),
(713,29,l),
(672,33,o),
(648,46,o),
(603,103,cs),
(387,378,l),
(534,510,ls),
(610,578,o),
(649,600,o),
(700,600,cs),
(703,600,l),
(703,632,l),
(676,631,o),
(603,629,o),
(584,629,cs),
(557,629,o),
(499,631,o),
(459,632,c),
(459,600,l),
(462,600,ls),
(487,600,o),
(529,598,o),
(529,581,cs),
(529,572,o),
(516,554,o),
(500,540,cs),
(269,330,ls),
(265,326,o),
(260,324,o),
(258,324,cs),
(256,324,o),
(255,325,o),
(255,330,cs),
(255,548,ls),
(255,600,o),
(288,600,o),
(333,600,c),
(338,600,l),
(338,632,l),
(297,631,o),
(242,629,o),
(177,629,cs),
(143,629,o),
(67,630,o),
(11,632,c),
(11,600,l),
(16,600,ls),
(58,600,o),
(98,600,o),
(98,548,cs),
(98,82,ls),
(98,29,o),
(62,29,o),
(22,29,c),
(11,29,l),
(11,-3,l)
);
}
);
width = 713;
},
{
anchors = (
{
name = bottom;
pos = (300,0);
},
{
name = top;
pos = (300,629);
}
);
layerId = "D1413726-767D-4628-9B63-3A1C0748A050";
shapes = (
{
closed = 1;
nodes = (
(80,-1,o),
(116,0,o),
(158,0,cs),
(199,0,o),
(238,-1,o),
(280,-3,c),
(280,8,l),
(253,8,ls),
(206,8,o),
(193,16,o),
(193,72,cs),
(193,286,ls),
(193,294,o),
(194,303,o),
(201,303,cs),
(206,303,o),
(209,302,o),
(222,285,cs),
(395,58,ls),
(402,48,o),
(410,39,o),
(410,30,cs),
(410,10,o),
(384,8,o),
(350,8,c),
(350,-3,l),
(395,-2,o),
(454,0,o),
(481,0,cs),
(498,0,o),
(555,-2,o),
(590,-3,c),
(590,8,l),
(565,10,o),
(528,10,o),
(491,57,cs),
(262,351,l),
(444,555,ls),
(476,590,o),
(511,621,o),
(573,621,cs),
(590,621,l),
(590,632,l),
(550,630,o),
(513,629,o),
(480,629,cs),
(441,629,o),
(415,630,o),
(373,632,c),
(373,621,l),
(387,621,ls),
(438,621,o),
(449,618,o),
(449,606,cs),
(449,598,o),
(446,588,o),
(424,564,cs),
(242,359,ls),
(213,326,o),
(202,316,o),
(198,316,cs),
(194,316,o),
(193,322,o),
(193,330,cs),
(193,557,ls),
(193,611,o),
(205,621,o),
(256,621,cs),
(280,621,l),
(280,632,l),
(224,630,o),
(191,629,o),
(156,629,cs),
(132,629,o),
(82,630,o),
(36,632,c),
(36,621,l),
(38,621,l),
(102,621,o),
(114,618,o),
(114,557,cs),
(114,77,ls),
(114,14,o),
(105,8,o),
(41,8,c),
(37,8,l),
(37,-3,l)
);
}
);
width = 600;
},
{
anchors = (
{
name = bottom;
pos = (357,0);
},
{
name = top;
pos = (357,629);
}
);
layerId = "E7B116FE-7576-4B50-8DFF-8E55DA3EEB52";
shapes = (
{
closed = 1;
nodes = (
(66,-1,o),
(118,0,o),
(175,0,cs),
(230,0,o),
(319,-1,o),
(362,-3,c),
(362,11,l),
(357,11,l),
(311,11,o),
(268,12,o),
(268,64,cs),
(268,298,ls),
(268,305,o),
(270,307,o),
(273,307,cs),
(279,307,o),
(287,298,o),
(293,289,cs),
(433,77,ls),
(446,57,o),
(451,44,o),
(451,35,cs),
(451,13,o),
(420,12,o),
(395,11,c),
(395,-3,l),
(448,-1,o),
(516,0,o),
(537,0,cs),
(593,0,o),
(667,-1,o),
(725,-3,c),
(725,11,l),
(684,14,o),
(661,28,o),
(619,87,cs),
(401,401,l),
(528,529,ls),
(602,603,o),
(636,615,o),
(700,618,c),
(701,618,l),
(701,632,l),
(673,631,o),
(598,629,o),
(579,629,cs),
(554,629,o),
(501,631,o),
(464,632,c),
(464,618,l),
(468,618,ls),
(492,618,o),
(541,616,o),
(541,598,cs),
(541,588,o),
(529,570,o),
(514,555,cs),
(282,324,ls),
(278,320,o),
(273,318,o),
(271,318,cs),
(269,318,o),
(268,319,o),
(268,324,cs),
(268,565,ls),
(268,617,o),
(301,617,o),
(346,617,c),
(362,617,l),
(362,632,l),
(321,631,o),
(233,629,o),
(200,629,cs),
(165,629,o),
(69,630,o),
(13,632,c),
(13,617,l),
(18,617,ls),
(60,617,o),
(107,617,o),
(107,565,cs),
(107,64,ls),
(107,11,o),
(75,11,o),
(35,11,c),
(13,11,l),
(13,-3,l)
);
}
);
width = 714;
}
);
metricLeft = H;
note = K;
unicode = 75;
},
{
color = 3;
glyphname = Khook;
kernLeft = H;
kernRight = X;
lastChange = "2024-09-17 15:18:47 +0000";
layers = (
{
layerId = "C56BE457-17E3-437C-A42F-4BD1DE972727";
shapes = (
{
closed = 1;
nodes = (
(80,-1,o),
(116,0,o),
(164,0,cs),
(205,0,o),
(244,-1,o),
(286,-3,c),
(286,24,l),
(259,24,ls),
(212,24,o),
(199,32,o),
(199,89,cs),
(199,282,ls),
(199,289,o),
(200,299,o),
(207,299,cs),
(212,299,o),
(214,297,o),
(228,281,cs),
(401,75,ls),
(410,65,o),
(416,55,o),
(416,46,cs),
(416,26,o),
(390,24,o),
(356,24,c),
(356,-3,l),
(401,-2,o),
(460,0,o),
(487,0,cs),
(504,0,o),
(561,-2,o),
(596,-3,c),
(596,24,l),
(571,26,o),
(538,30,o),
(499,77,cs),
(270,354,l),
(388,513,ls),
(424,562,o),
(444,570,o),
(462,570,cs),
(484,571,o),
(503,552,o),
(515,552,cs),
(538,552,o),
(568,594,o),
(568,613,cs),
(568,626,o),
(549,636,o),
(515,636,cs),
(473,636,o),
(432,618,o),
(371,536,cs),
(248,369,ls),
(224,336,o),
(208,316,o),
(204,316,cs),
(200,316,o),
(199,322,o),
(199,330,cs),
(199,541,ls),
(199,595,o),
(211,605,o),
(262,605,cs),
(286,605,l),
(286,632,l),
(230,630,o),
(197,629,o),
(162,629,cs),
(132,629,o),
(82,630,o),
(36,632,c),
(36,605,l),
(38,605,l),
(102,605,o),
(114,602,o),
(114,541,cs),
(114,93,ls),
(114,30,o),
(105,24,o),
(41,24,c),
(37,24,l),
(37,-3,l)
);
}
);
width = 612;
},
{
layerId = "3B95F746-F211-4218-A5C8-A7CCC072D238";
shapes = (
{
closed = 1;
nodes = (
(64,-1,o),
(117,0,o),
(152,0,cs),
(186,0,o),
(295,-1,o),
(338,-3,c),
(338,29,l),
(334,29,l),
(287,29,o),
(255,30,o),
(255,82,cs),
(255,295,ls),
(255,301,o),
(257,303,o),
(260,303,cs),
(266,303,o),
(273,295,o),
(280,286,cs),
(429,90,ls),
(436,81,o),
(449,66,o),
(449,51,cs),
(449,31,o),
(418,30,o),
(393,29,c),
(393,-3,l),
(446,-1,o),
(501,0,o),
(524,0,cs),
(555,0,o),
(659,-1,o),
(713,-3,c),
(713,29,l),
(672,33,o),
(648,46,o),
(603,103,cs),
(382,385,l),
(469,473,ls),
(512,516,o),
(531,526,o),
(545,526,cs),
(570,526,o),
(592,499,o),
(610,499,cs),
(648,499,o),
(691,576,o),
(691,597,cs),
(691,616,o),
(656,635,o),
(619,635,cs),
(585,635,o),
(543,616,o),
(469,539,cs),
(269,330,ls),
(265,326,o),
(260,324,o),
(258,324,cs),
(256,324,o),
(255,325,o),
(255,330,cs),
(255,546,ls),
(255,600,o),
(288,600,o),
(333,600,c),
(338,600,l),
(338,632,l),
(297,631,o),
(242,629,o),
(177,629,cs),
(143,629,o),
(67,630,o),
(11,632,c),
(11,600,l),
(16,600,ls),
(58,600,o),
(98,600,o),
(98,546,cs),
(98,82,ls),
(98,29,o),
(62,29,o),
(22,29,c),
(11,29,l),
(11,-3,l)
);
}
);
width = 713;
},
{
layerId = "D1413726-767D-4628-9B63-3A1C0748A050";
shapes = (
{
closed = 1;
nodes = (
(80,-1,o),
(116,0,o),
(158,0,cs),
(199,0,o),
(238,-1,o),
(280,-3,c),
(280,8,l),
(253,8,ls),
(206,8,o),
(193,16,o),
(193,72,cs),
(193,286,ls),
(193,294,o),
(194,303,o),
(201,303,cs),
(206,303,o),
(209,302,o),
(222,285,cs),
(395,58,ls),
(402,48,o),
(410,39,o),
(410,30,cs),
(410,10,o),
(384,8,o),
(350,8,c),
(350,-3,l),
(395,-2,o),
(454,0,o),
(481,0,cs),
(498,0,o),
(555,-2,o),
(590,-3,c),
(590,8,l),
(565,10,o),
(527,10,o),
(491,57,cs),
(262,354,l),
(371,493,ls),
(404,535,o),
(434,564,o),
(459,566,cs),
(484,567,o),
(496,548,o),
(510,548,cs),
(531,548,o),
(565,595,o),
(565,609,cs),
(565,622,o),
(546,633,o),
(525,633,cs),
(477,633,o),
(430,599,o),
(362,512,cs),
(242,359,ls),
(214,324,o),
(202,316,o),
(198,316,cs),
(194,316,o),
(193,322,o),
(193,330,cs),
(193,557,ls),
(193,611,o),
(205,621,o),
(256,621,cs),
(280,621,l),
(280,632,l),
(224,630,o),
(191,629,o),
(156,629,cs),
(132,629,o),
(82,630,o),
(36,632,c),
(36,621,l),
(38,621,l),
(102,621,o),
(114,618,o),
(114,557,cs),
(114,77,ls),
(114,14,o),
(105,8,o),
(41,8,c),
(37,8,l),
(37,-3,l)
);
}
);
width = 600;
},
{
layerId = "E7B116FE-7576-4B50-8DFF-8E55DA3EEB52";
shapes = (
{
closed = 1;
nodes = (
(66,-1,o),
(118,0,o),
(175,0,cs),
(230,0,o),
(319,-1,o),
(362,-3,c),
(362,11,l),
(357,11,l),
(311,11,o),
(268,12,o),
(268,64,cs),
(268,298,ls),
(268,305,o),
(270,307,o),
(273,307,cs),
(279,307,o),
(287,298,o),
(293,289,cs),
(433,77,ls),
(446,57,o),
(451,44,o),
(451,35,cs),
(451,13,o),
(420,12,o),
(395,11,c),
(395,-3,l),
(448,-1,o),
(516,0,o),
(537,0,cs),
(593,0,o),
(667,-1,o),
(725,-3,c),
(725,11,l),
(684,14,o),
(660,28,o),
(619,87,cs),
(395,412,l),
(451,473,ls),
(492,517,o),
(517,526,o),
(531,526,cs),
(556,526,o),
(585,499,o),
(603,499,cs),
(641,499,o),
(684,576,o),
(684,597,cs),
(684,616,o),
(649,635,o),
(612,635,cs),
(564,635,o),
(528,601,o),
(474,540,cs),
(282,324,ls),
(278,320,o),
(273,318,o),
(271,318,cs),
(269,318,o),
(268,319,o),
(268,324,cs),
(268,565,ls),
(268,617,o),
(301,617,o),
(346,617,c),
(362,617,l),
(362,632,l),
(321,631,o),
(233,629,o),
(200,629,cs),
(165,629,o),
(69,630,o),
(13,632,c),
(13,617,l),
(18,617,ls),
(60,617,o),
(107,617,o),
(107,565,cs),
(107,64,ls),
(107,11,o),
(75,11,o),
(35,11,c),
(13,11,l),
(13,-3,l)
);
}
);
width = 714;
}
);
metricRight = K;
unicode = 408;
},
{
color = 3;
glyphname = L;
kernLeft = H;
kernRight = L;
lastChange = "2024-10-18 09:19:06 +0000";
layers = (
{
anchors = (
{
name = bottom;
pos = (252,0);
},
{
name = center;
pos = (242,315);
},
{
name = top;
pos = (168,629);
},
{
name = topright;
pos = (396,629);
}
);
hints = (
{
horizontal = 1;
origin = (0,25);
target = (0,26);
type = Stem;
},
{
horizontal = 1;
origin = (0,34);
target = (0,33);
type = Stem;
},
{
origin = (0,30);
target = (0,15);
type = Stem;
}
);
layerId = "C56BE457-17E3-437C-A42F-4BD1DE972727";
shapes = (
{
closed = 1;
nodes = (
(103,-1,o),
(173,0,o),
(238,0,cs),
(298,0,o),
(356,-1,o),
(415,-3,c),
(465,130,l),
(438,130,l),
(407,64,o),
(387,31,o),
(322,31,cs),
(246,31,ls),
(216,31,o),
(201,43,o),
(201,70,cs),
(201,538,ls),
(201,596,o),
(211,606,o),
(288,606,c),
(288,632,l),
(238,630,o),
(191,629,o),
(166,629,cs),
(138,629,o),
(53,632,o),
(38,632,c),
(38,605,l),
(98,605,o),
(117,605,o),
(117,542,cs),
(117,87,ls),
(117,31,o),
(104,24,o),
(36,24,c),
(36,-3,l)
);
}
);
width = 477;
},
{
anchors = (
{
name = bottom;
pos = (296,0);
},
{
name = center;
pos = (276,315);
},
{
name = top;
pos = (185,629);
},
{
name = topright;
pos = (459,629);
}
);
background = {
shapes = (
{
closed = 1;
nodes = (
(35,-3,o),
(85,0,o),
(157,0,cs),
(208,0,o),
(460,-3,o),
(481,-3,c),
(519,126,l),
(492,126,l),
(443,49,o),
(413,39,o),
(311,35,cs),
(348,35,ls),
(274,35,o),
(237,34,o),
(237,81,cs),
(237,524,ls),
(237,568,o),
(296,559,o),
(313,559,c),
(313,585,l),
(231,583,o),
(205,582,o),
(184,582,cs),
(152,582,o),
(93,581,o),
(11,585,c),
(11,560,l),
(43,560,o),
(92,560,o),
(92,520,cs),
(92,59,ls),
(92,15,o),
(36,22,o),
(11,22,c),
(11,-3,l)
);
}
);
};
layerId = "3B95F746-F211-4218-A5C8-A7CCC072D238";
shapes = (
{
closed = 1;
nodes = (
(57,-2,o),
(151,0,o),
(231,0,cs),
(288,0,o),
(454,-2,o),
(495,-3,c),
(540,144,l),
(507,144,l),
(464,60,o),
(445,40,o),
(357,40,cs),
(338,40,ls),
(283,40,o),
(256,41,o),
(256,80,cs),
(256,547,ls),
(256,600,o),
(293,600,o),
(340,600,c),
(340,632,l),
(271,630,o),
(183,629,o),
(159,629,cs),
(122,629,o),
(64,630,o),
(12,632,c),
(12,600,l),
(59,600,o),
(99,600,o),
(99,547,cs),
(99,81,ls),
(99,29,o),
(58,29,o),
(11,29,c),
(11,-3,l)
);
}
);
width = 551;
},
{
anchors = (
{
name = bottom;
pos = (257,0);
},
{
name = center;
pos = (237,315);
},
{
name = top;
pos = (161,629);
},
{
name = topright;
pos = (394,629);
}
);
layerId = "D1413726-767D-4628-9B63-3A1C0748A050";
shapes = (
{
closed = 1;
nodes = (
(103,-1,o),
(167,0,o),
(232,0,cs),
(292,0,o),
(350,-1,o),
(409,-3,c),
(459,120,l),
(448,120,l),
(416,52,o),
(388,18,o),
(320,18,cs),
(240,18,ls),
(210,18,o),
(195,29,o),
(195,54,cs),
(195,554,ls),
(195,612,o),
(205,621,o),
(282,621,c),
(282,632,l),
(232,630,o),
(185,629,o),
(160,629,cs),
(138,629,o),
(53,632,o),
(38,632,c),
(38,621,l),
(98,621,o),
(117,621,o),
(117,558,cs),
(117,71,ls),
(117,15,o),
(104,8,o),
(36,8,c),
(36,-3,l)
);
}
);
width = 473;
},
{
anchors = (
{
name = bottom;
pos = (297,0);
},
{
name = center;
pos = (277,315);
},
{
name = top;
pos = (203,629);
},
{
name = topright;
pos = (462,629);
}
);
layerId = "E7B116FE-7576-4B50-8DFF-8E55DA3EEB52";
shapes = (
{
closed = 1;
nodes = (
(62,-3,o),
(147,0,o),
(244,0,cs),
(301,0,o),
(456,-3,o),
(497,-3,c),
(542,133,l),
(528,133,l),
(486,60,o),
(448,31,o),
(363,31,cs),
(351,31,ls),
(296,31,o),
(269,40,o),
(269,79,cs),
(269,564,ls),
(269,617,o),
(306,618,o),
(353,618,c),
(353,632,l),
(284,630,o),
(246,629,o),
(222,629,cs),
(193,629,o),
(69,630,o),
(14,632,c),
(14,618,l),
(68,618,o),
(108,617,o),
(108,564,cs),
(108,66,ls),
(108,14,o),
(67,11,o),
(13,11,c),
(13,-3,l)
);
}
);
width = 553;
}
);
metricLeft = H;
note = L;
unicode = 76;
},
{
color = 3;
glyphname = Lslash;
kernLeft = H;
kernRight = L;
lastChange = "2024-10-18 09:15:43 +0000";
layers = (
{
layerId = "C56BE457-17E3-437C-A42F-4BD1DE972727";
shapes = (
{
closed = 1;
nodes = (
(105,-1,o),
(173,0,o),
(238,0,cs),
(298,0,o),
(356,-1,o),
(415,-3,c),
(465,130,l),
(438,130,l),
(407,64,o),
(387,31,o),
(322,31,cs),
(246,31,ls),
(216,31,o),
(201,43,o),
(201,70,cs),
(201,538,ls),
(201,596,o),
(211,606,o),
(288,606,c),
(288,632,l),
(238,630,o),
(191,629,o),
(166,629,cs),
(140,629,o),
(55,632,o),
(40,632,c),
(40,605,l),
(100,605,o),
(119,605,o),
(119,542,cs),
(119,87,ls),
(119,31,o),
(106,24,o),
(38,24,c),
(38,-3,l)
);
},
{
closed = 1;
nodes = (
(309,421,l),
(294,439,l),
(33,234,l),
(48,215,l)
);
}
);
width = 477;
},
{
layerId = "3B95F746-F211-4218-A5C8-A7CCC072D238";
shapes = (
{
closed = 1;
nodes = (
(57,-2,o),
(151,0,o),
(231,0,cs),
(288,0,o),
(454,-2,o),
(495,-3,c),
(540,144,l),
(507,144,l),
(464,60,o),
(445,40,o),
(357,40,cs),
(338,40,ls),
(283,40,o),
(256,41,o),
(256,80,cs),
(256,545,ls),
(256,598,o),
(293,598,o),
(340,598,c),
(340,632,l),
(271,630,o),
(183,629,o),
(159,629,cs),
(122,629,o),
(64,630,o),
(12,632,c),
(12,598,l),
(59,598,o),
(99,598,o),
(99,545,cs),
(99,82,ls),
(99,30,o),
(58,30,o),
(11,30,c),
(11,-3,l)
);
},
{
closed = 1;
nodes = (
(371,441,l),
(351,466,l),
(6,191,l),
(26,165,l)
);
}
);
width = 551;
},
{
layerId = "D1413726-767D-4628-9B63-3A1C0748A050";
shapes = (
{
closed = 1;
nodes = (
(103,-1,o),
(167,0,o),
(232,0,cs),
(292,0,o),
(350,-1,o),
(409,-3,c),
(459,120,l),
(449,120,l),
(417,50,o),
(388,15,o),
(320,15,cs),
(240,15,ls),
(210,15,o),
(195,27,o),
(195,54,cs),
(195,554,ls),
(195,612,o),
(205,622,o),
(282,622,c),
(282,632,l),
(232,630,o),
(185,629,o),
(160,629,cs),
(138,629,o),
(53,632,o),
(38,632,c),
(38,621,l),
(98,621,o),
(117,621,o),
(117,558,cs),
(117,71,ls),
(117,15,o),
(104,8,o),
(36,8,c),
(36,-3,l)
);
},
{
closed = 1;
nodes = (
(299,424,l),
(288,436,l),
(45,244,l),
(55,231,l)
);
}
);
width = 473;
},
{
layerId = "E7B116FE-7576-4B50-8DFF-8E55DA3EEB52";
shapes = (
{
closed = 1;
nodes = (
(62,-3,o),
(147,0,o),
(244,0,cs),
(301,0,o),
(456,-3,o),
(497,-3,c),
(542,133,l),
(528,133,l),
(486,60,o),
(448,31,o),
(363,31,cs),
(351,31,ls),
(296,31,o),
(269,40,o),
(269,79,cs),
(269,564,ls),
(269,617,o),
(306,618,o),
(353,618,c),
(353,632,l),
(284,630,o),
(246,629,o),
(222,629,cs),
(193,629,o),
(69,630,o),
(14,632,c),
(14,618,l),
(68,618,o),
(108,617,o),
(108,564,cs),
(108,66,ls),
(108,14,o),
(67,11,o),
(13,11,c),
(13,-3,l)
);
},
{
closed = 1;
nodes = (
(396,465,l),
(381,484,l),
(8,187,l),
(23,167,l)
);
}
);
width = 553;
}
);
metricRight = L;
metricWidth = L;
note = Lslash;
unicode = 321;
},
{
color = 3;
glyphname = M;
kernLeft = M;
kernRight = M;
lastChange = "2024-10-18 09:19:06 +0000";
layers = (
{
anchors = (
{
name = bottom;
pos = (428,0);
},
{
name = top;
pos = (428,629);
}
);
hints = (
{
horizontal = 1;
origin = (0,70);
target = up;
type = BottomGhost;
},
{
horizontal = 1;
origin = (0,42);
target = (0,44);
type = Stem;
},
{
horizontal = 1;
origin = (0,61);
target = (0,63);
type = Stem;
}
);
layerId = "C56BE457-17E3-437C-A42F-4BD1DE972727";
shapes = (
{
closed = 1;
nodes = (
(419,-14,l),
(661,577,l),
(664,431,o),
(670,143,o),
(670,76,cs),
(670,40,o),
(642,24,o),
(600,24,cs),
(579,24,l),
(579,-3,l),
(624,-2,o),
(687,0,o),
(720,0,cs),
(744,0,o),
(795,-1,o),
(841,-3,c),
(841,24,l),
(840,24,l),
(766,24,o),
(753,30,o),
(752,108,cs),
(748,320,o),
(744,494,o),
(744,543,cs),
(744,604,o),
(793,605,o),
(839,605,c),
(840,605,l),
(840,632,l),
(806,631,o),
(778,629,o),
(747,629,cs),
(717,629,o),
(683,631,o),
(649,632,c),
(433,99,l),
(191,632,l),
(172,631,o),
(129,629,o),
(97,629,cs),
(68,629,o),
(38,631,o),
(16,632,c),
(16,605,l),
(17,605,l),
(95,605,o),
(129,595,o),
(129,513,cs),
(129,488,o),
(122,229,o),
(119,87,cs),
(118,42,o),
(92,24,o),
(33,24,cs),
(19,24,l),
(19,-3,l),
(60,-2,o),
(124,0,o),
(139,0,cs),
(158,0,o),
(199,-2,o),
(246,-3,c),
(246,24,l),
(225,24,ls),
(171,24,o),
(152,33,o),
(152,76,cs),
(152,113,o),
(159,418,o),
(161,508,c),
(400,-14,l)
);
}
);
width = 861;
},
{
anchors = (
{
name = bottom;
pos = (447,0);
},
{
name = top;
pos = (447,629);
}
);
background = {
shapes = (
{
closed = 1;
nodes = (
(403,-9,l),
(577,514,l),
(588,343,o),
(579,182,o),
(579,52,cs),
(579,29,o),
(563,30,o),
(483,24,cs),
(501,24,l),
(501,-3,l),
(549,-2,o),
(638,0,o),
(666,0,cs),
(700,0,o),
(756,-3,o),
(794,-3,c),
(794,24,l),
(771,24,l),
(761,24,o),
(721,32,o),
(722,60,cs),
(726,-14,o),
(726,387,o),
(726,519,cs),
(726,553,o),
(742,558,o),
(798,558,c),
(799,558,l),
(799,585,l),
(808,582,o),
(698,582,o),
(673,582,cs),
(635,582,o),
(583,580,o),
(556,585,c),
(430,190,l),
(285,585,l),
(250,582,o),
(136,582,o),
(127,582,cs),
(122,582,o),
(98,582,o),
(36,585,c),
(36,558,l),
(49,558,l),
(97,558,o),
(116,487,o),
(116,467,cs),
(116,422,o),
(112,230,o),
(109,107,cs),
(108,29,o),
(100,26,o),
(18,24,cs),
(29,24,l),
(29,-3,l),
(53,-2,o),
(102,0,o),
(132,0,cs),
(145,0,o),
(247,-2,o),
(247,-3,c),
(247,24,l),
(233,24,ls),
(165,24,o),
(156,29,o),
(156,94,cs),
(156,183,o),
(156,347,o),
(160,492,c),
(363,-9,l)
);
}
);
};
layerId = "3B95F746-F211-4218-A5C8-A7CCC072D238";
shapes = (
{
closed = 1;
nodes = (
(421,-12,l),
(635,563,l),
(642,402,o),
(640,185,o),
(640,84,cs),
(640,43,o),
(624,34,o),
(561,29,c),
(559,29,l),
(559,-3,l),
(608,-2,o),
(717,0,o),
(748,0,cs),
(779,0,o),
(835,-2,o),
(878,-3,c),
(878,29,l),
(865,29,ls),
(823,29,o),
(795,37,o),
(795,91,cs),
(795,157,o),
(793,452,o),
(793,548,cs),
(793,597,o),
(826,600,o),
(879,600,c),
(880,600,l),
(880,632,l),
(868,630,o),
(795,629,o),
(766,629,cs),
(730,629,o),
(646,629,o),
(614,632,c),
(453,201,l),
(267,632,l),
(239,630,o),
(126,629,o),
(106,629,cs),
(89,629,o),
(60,630,o),
(16,632,c),
(16,600,l),
(24,600,ls),
(89,600,o),
(116,567,o),
(116,515,cs),
(116,478,o),
(110,243,o),
(107,106,cs),
(106,41,o),
(89,30,o),
(15,29,c),
(14,29,l),
(14,-3,l),
(48,-2,o),
(106,0,o),
(130,0,cs),
(152,0,o),
(228,-2,o),
(252,-3,c),
(252,29,l),
(233,29,ls),
(170,29,o),
(156,37,o),
(156,93,cs),
(156,160,o),
(159,385,o),
(162,509,c),
(384,-12,l)
);
}
);
width = 894;
},
{
anchors = (
{
name = bottom;
pos = (428,0);
},
{
name = top;
pos = (428,629);
}
);
layerId = "D1413726-767D-4628-9B63-3A1C0748A050";
shapes = (
{
closed = 1;
nodes = (
(419,-14,l),
(661,602,l),
(664,453,o),
(670,126,o),
(670,59,cs),
(670,24,o),
(642,8,o),
(600,8,cs),
(579,8,l),
(579,-3,l),
(624,-2,o),
(681,0,o),
(714,0,cs),
(738,0,o),
(789,-1,o),
(835,-3,c),
(835,8,l),
(834,8,l),
(760,8,o),
(747,14,o),
(746,92,cs),
(742,313,o),
(738,509,o),
(738,559,cs),
(738,620,o),
(787,621,o),
(833,621,c),
(834,621,l),
(834,632,l),
(800,631,o),
(772,629,o),
(741,629,cs),
(711,629,o),
(688,631,o),
(654,632,c),
(439,90,l),
(190,632,l),
(172,632,o),
(129,629,o),
(97,629,cs),
(68,629,o),
(38,631,o),
(16,632,c),
(16,621,l),
(17,621,l),
(95,621,o),
(131,612,o),
(131,523,cs),
(131,504,o),
(124,219,o),
(121,64,cs),
(120,26,o),
(92,8,o),
(33,8,cs),
(19,8,l),
(19,-3,l),
(60,-2,o),
(117,0,o),
(131,0,cs),
(140,0,o),
(189,-2,o),
(237,-3,c),
(237,8,l),
(215,8,ls),
(161,8,o),
(141,17,o),
(141,59,cs),
(141,97,o),
(147,443,o),
(150,546,c),
(408,-14,l)
);
}
);
width = 855;
},
{
anchors = (
{
name = bottom;
pos = (428,0);
},
{
name = top;
pos = (428,629);
}
);
layerId = "E7B116FE-7576-4B50-8DFF-8E55DA3EEB52";
shapes = (
{
closed = 1;
nodes = (
(407,-12,l),
(628,576,l),
(635,407,o),
(633,158,o),
(633,52,cs),
(633,22,o),
(611,11,o),
(557,11,cs),
(546,11,l),
(546,-3,l),
(594,-3,o),
(714,0,o),
(746,0,cs),
(776,0,o),
(832,-3,o),
(875,-3,c),
(875,11,l),
(862,11,ls),
(820,11,o),
(792,18,o),
(792,72,cs),
(792,141,o),
(790,465,o),
(790,566,cs),
(790,615,o),
(820,618,o),
(873,618,cs),
(877,618,l),
(877,632,l),
(866,632,o),
(756,629,o),
(727,629,cs),
(691,629,o),
(650,631,o),
(618,632,c),
(452,193,l),
(268,632,l),
(240,631,o),
(178,629,o),
(158,629,cs),
(141,629,o),
(60,631,o),
(16,632,c),
(16,618,l),
(24,618,ls),
(93,618,o),
(121,569,o),
(121,512,cs),
(121,474,o),
(112,228,o),
(109,87,cs),
(108,23,o),
(91,11,o),
(15,11,cs),
(14,11,l),
(14,-3,l),
(48,-3,o),
(106,0,o),
(130,0,cs),
(150,0,o),
(226,-3,o),
(249,-3,c),
(249,11,l),
(231,11,ls),
(162,11,o),
(141,18,o),
(141,75,cs),
(141,141,o),
(149,406,o),
(151,531,c),
(384,-12,l)
);
}
);
width = 891;
}
);
note = M;
unicode = 77;
},
{
color = 3;
glyphname = N;
kernLeft = H;
kernRight = N;
lastChange = "2024-10-18 09:19:06 +0000";
layers = (
{
anchors = (
{
name = bottom;
pos = (354,0);
},
{
name = top;
pos = (364,629);
}
);
hints = (
{
horizontal = 1;
origin = (0,56);
target = up;
type = BottomGhost;
},
{
horizontal = 1;
origin = (0,29);
target = (0,30);
type = Stem;
},
{
horizontal = 1;
origin = (0,47);
target = (0,49);
type = Stem;
},
{
origin = (0,36);
target = (0,55);
type = Stem;
}
);
layerId = "C56BE457-17E3-437C-A42F-4BD1DE972727";
shapes = (
{
closed = 1;
nodes = (
(613,-12,l),
(612,102,o),
(606,433,o),
(606,550,cs),
(606,594,o),
(632,605,o),
(672,605,cs),
(684,605,l),
(684,632,l),
(645,630,o),
(606,629,o),
(586,629,cs),
(553,629,o),
(511,632,o),
(484,632,c),
(484,605,l),
(500,605,ls),
(551,605,o),
(572,594,o),
(573,524,cs),
(576,392,o),
(578,266,o),
(580,135,c),
(169,632,l),
(147,631,o),
(124,629,o),
(100,629,cs),
(77,629,o),
(37,632,o),
(23,632,c),
(23,605,l),
(43,605,o),
(91,592,o),
(117,557,c),
(117,511,o),
(116,160,o),
(116,89,cs),
(116,58,o),
(108,24,o),
(51,24,cs),
(35,24,l),
(35,-3,l),
(72,-3,o),
(108,0,o),
(141,0,cs),
(177,0,o),
(220,-3,o),
(248,-3,c),
(248,24,l),
(231,24,ls),
(176,24,o),
(149,30,o),
(148,120,cs),
(146,239,o),
(148,411,o),
(148,530,c),
(598,-12,l)
);
}
);
width = 708;
},
{
anchors = (
{
name = bottom;
pos = (388,0);
},
{
name = top;
pos = (398,629);
}
);
background = {
shapes = (
{
closed = 1;
nodes = (
(642,-9,l),
(643,226,o),
(649,257,o),
(649,489,cs),
(649,548,o),
(673,552,o),
(722,560,cs),
(713,560,l),
(713,585,l),
(711,587,o),
(631,582,o),
(621,582,cs),
(622,582,o),
(519,585,o),
(508,585,c),
(508,560,l),
(495,560,ls),
(436,560,o),
(604,564,o),
(603,497,cs),
(601,407,o),
(599,314,o),
(597,224,c),
(241,585,l),
(209,586,o),
(167,582,o),
(149,582,cs),
(91,582,o),
(20,585,o),
(-3,585,c),
(-3,560,l),
(58,560,o),
(50,558,o),
(98,532,c),
(98,275,o),
(92,318,o),
(92,84,cs),
(92,12,o),
(-71,20,o),
(-6,20,cs),
(5,20,l),
(5,-3,l),
(28,-3,o),
(109,0,o),
(114,0,cs),
(131,0,o),
(211,-3,o),
(249,-3,c),
(249,20,l),
(227,20,ls),
(164,20,o),
(139,44,o),
(140,144,cs),
(142,255,o),
(145,364,o),
(147,475,c),
(620,-9,l)
);
}
);
};
layerId = "3B95F746-F211-4218-A5C8-A7CCC072D238";
shapes = (
{
closed = 1;
nodes = (
(687,-11,l),
(687,173,o),
(687,351,o),
(687,534,cs),
(687,588,o),
(717,596,o),
(770,600,c),
(771,600,l),
(771,632,l),
(748,632,o),
(672,629,o),
(656,629,cs),
(639,629,o),
(552,632,o),
(532,632,c),
(532,600,l),
(534,600,ls),
(591,600,o),
(636,597,o),
(637,526,cs),
(639,429,o),
(639,284,o),
(639,229,c),
(265,632,l),
(224,632,o),
(180,629,o),
(149,629,cs),
(98,629,o),
(19,632,o),
(0,632,c),
(0,600,l),
(48,600,o),
(69,596,o),
(112,564,c),
(112,515,o),
(112,258,o),
(110,96,cs),
(109,42,o),
(89,29,o),
(25,29,cs),
(23,29,l),
(23,-3,l),
(54,-3,o),
(122,0,o),
(141,0,cs),
(168,0,o),
(233,-3,o),
(268,-3,c),
(268,29,l),
(247,29,ls),
(186,29,o),
(159,45,o),
(159,131,cs),
(159,264,o),
(158,393,o),
(162,524,c),
(661,-11,l)
);
}
);
width = 775;
},
{
anchors = (
{
name = bottom;
pos = (354,0);
},
{
name = top;
pos = (364,629);
}
);
layerId = "D1413726-767D-4628-9B63-3A1C0748A050";
shapes = (
{
closed = 1;
nodes = (
(611,-12,l),
(609,77,o),
(604,544,o),
(604,565,cs),
(604,610,o),
(631,621,o),
(672,621,cs),
(684,621,l),
(684,632,l),
(645,630,o),
(606,629,o),
(586,629,cs),
(553,629,o),
(511,632,o),
(484,632,c),
(484,621,l),
(500,621,ls),
(551,621,o),
(583,609,o),
(584,539,cs),
(586,404,o),
(587,263,o),
(589,128,c),
(163,632,l),
(141,631,o),
(114,629,o),
(91,629,cs),
(67,629,o),
(37,632,o),
(23,632,c),
(23,621,l),
(65,621,o),
(77,615,o),
(122,565,c),
(126,470,o),
(131,97,o),
(131,78,cs),
(131,48,o),
(116,8,o),
(58,8,cs),
(42,8,l),
(42,-3,l),
(80,-3,o),
(116,0,o),
(149,0,cs),
(185,0,o),
(222,-3,o),
(250,-3,c),
(250,8,l),
(239,8,ls),
(184,8,o),
(152,15,o),
(151,77,cs),
(149,227,o),
(144,390,o),
(142,540,c),
(604,-12,l)
);
}
);
width = 708;
},
{
anchors = (
{
name = bottom;
pos = (388,0);
},
{
name = top;
pos = (398,629);
}
);
layerId = "E7B116FE-7576-4B50-8DFF-8E55DA3EEB52";
shapes = (
{
closed = 1;
nodes = (
(672,-11,l),
(672,177,o),
(672,364,o),
(672,552,cs),
(672,606,o),
(707,613,o),
(760,618,c),
(761,618,l),
(761,632,l),
(739,632,o),
(700,629,o),
(660,629,cs),
(621,629,o),
(556,632,o),
(537,632,c),
(537,618,l),
(538,618,l),
(595,618,o),
(644,615,o),
(644,543,cs),
(644,424,o),
(644,347,o),
(644,228,c),
(266,632,l),
(222,632,o),
(174,629,o),
(140,629,cs),
(93,629,o),
(28,632,o),
(9,632,c),
(9,618,l),
(56,618,o),
(78,603,o),
(121,566,c),
(121,403,o),
(121,241,o),
(121,78,cs),
(121,24,o),
(94,13,o),
(23,11,c),
(22,11,l),
(22,-3,l),
(56,-3,o),
(124,0,o),
(146,0,cs),
(159,0,o),
(224,-3,o),
(259,-3,c),
(259,11,l),
(238,11,ls),
(177,11,o),
(150,27,o),
(150,112,cs),
(150,248,o),
(150,399,o),
(150,535,c),
(661,-11,l)
);
}
);
width = 775;
}
);
note = N;
unicode = 78;
},
{
color = 3;
glyphname = Eng;
kernLeft = H;
kernRight = N;
lastChange = "2024-08-03 02:39:38 +0000";
layers = (
{
layerId = "C56BE457-17E3-437C-A42F-4BD1DE972727";
shapes = (
{
closed = 1;
nodes = (
(613,-12,l),
(612,102,o),
(606,433,o),
(606,550,cs),
(606,594,o),
(632,605,o),
(672,605,cs),
(684,605,l),
(684,632,l),
(645,630,o),
(606,629,o),
(586,629,cs),
(553,629,o),
(511,632,o),
(484,632,c),
(484,605,l),
(500,605,ls),
(551,605,o),
(572,594,o),
(573,524,cs),
(576,392,o),
(578,261,o),
(580,130,c),
(163,632,l),
(141,631,o),
(124,629,o),
(100,629,cs),
(77,629,o),
(37,632,o),
(23,632,c),
(23,605,l),
(43,605,o),
(91,592,o),
(117,557,c),
(117,511,o),
(116,160,o),
(116,89,cs),
(116,58,o),
(108,24,o),
(51,24,cs),
(35,24,l),
(35,-3,l),
(72,-3,o),
(108,0,o),
(141,0,cs),
(177,0,o),
(220,-3,o),
(248,-3,c),
(248,24,l),
(231,24,ls),
(176,24,o),
(149,30,o),
(148,120,cs),
(146,239,o),
(149,384,o),
(148,530,c),
(598,-12,l)
);
},
{
closed = 1;
nodes = (
(559,-226,o),
(612,-108,o),
(613,-12,c),
(578,19,l),
(578,-104,o),
(528,-214,o),
(454,-262,c),
(469,-284,l)
);
}
);
width = 708;
},
{
layerId = "3B95F746-F211-4218-A5C8-A7CCC072D238";
shapes = (
{
closed = 1;
nodes = (
(687,-11,l),
(687,173,o),
(687,351,o),
(687,534,cs),
(687,588,o),
(717,596,o),
(770,600,c),
(771,600,l),
(771,632,l),
(748,632,o),
(672,629,o),
(656,629,cs),
(639,629,o),
(552,632,o),
(532,632,c),
(532,600,l),
(534,600,ls),
(591,600,o),
(636,597,o),
(637,526,cs),
(639,429,o),
(639,284,o),
(639,229,c),
(267,632,l),
(226,632,o),
(180,629,o),
(149,629,cs),
(98,629,o),
(19,632,o),
(0,632,c),
(0,600,l),
(48,600,o),
(69,591,o),
(112,559,c),
(112,510,o),
(112,258,o),
(110,96,cs),
(109,42,o),
(89,29,o),
(25,29,cs),
(23,29,l),
(23,-3,l),
(54,-3,o),
(122,0,o),
(141,0,cs),
(168,0,o),
(233,-3,o),
(268,-3,c),
(268,29,l),
(247,29,ls),
(186,29,o),
(159,45,o),
(159,131,cs),
(159,264,o),
(158,388,o),
(162,519,c),
(661,-11,l)
);
},
{
closed = 1;
nodes = (
(656,-192,o),
(687,-81,o),
(687,-11,c),
(636,43,l),
(636,-101,o),
(576,-177,o),
(452,-251,c),
(478,-280,l)
);
}
);
width = 775;
},
{
layerId = "D1413726-767D-4628-9B63-3A1C0748A050";
shapes = (
{
closed = 1;
nodes = (
(611,-12,l),
(609,77,o),
(604,544,o),
(604,565,cs),
(604,610,o),
(631,621,o),
(672,621,cs),
(684,621,l),
(684,632,l),
(645,630,o),
(606,629,o),
(586,629,cs),
(553,629,o),
(511,632,o),
(484,632,c),
(484,621,l),
(500,621,ls),
(551,621,o),
(583,609,o),
(584,539,cs),
(586,404,o),
(587,263,o),
(589,128,c),
(163,632,l),
(141,631,o),
(114,629,o),
(91,629,cs),
(67,629,o),
(37,632,o),
(23,632,c),
(23,621,l),
(65,621,o),
(77,615,o),
(122,565,c),
(126,470,o),
(131,97,o),
(131,78,cs),
(131,48,o),
(116,8,o),
(58,8,cs),
(42,8,l),
(42,-3,l),
(80,-3,o),
(116,0,o),
(149,0,cs),
(185,0,o),
(222,-3,o),
(250,-3,c),
(250,8,l),
(239,8,ls),
(184,8,o),
(152,15,o),
(151,77,cs),
(149,227,o),
(144,390,o),
(142,540,c),
(604,-12,l)
);
},
{
closed = 1;
nodes = (
(557,-226,o),
(610,-108,o),
(611,-12,c),
(582,25,l),
(582,-117,o),
(540,-222,o),
(461,-275,c),
(467,-284,l)
);
}
);
width = 708;
},
{
layerId = "E7B116FE-7576-4B50-8DFF-8E55DA3EEB52";
shapes = (
{
closed = 1;
nodes = (
(676,-11,l),
(676,177,o),
(676,364,o),
(676,552,cs),
(676,606,o),
(707,613,o),
(760,618,c),
(761,618,l),
(761,632,l),
(739,632,o),
(700,629,o),
(660,629,cs),
(621,629,o),
(556,632,o),
(537,632,c),
(537,618,l),
(538,618,l),
(595,618,o),
(644,615,o),
(644,543,cs),
(644,424,o),
(644,347,o),
(644,228,c),
(266,632,l),
(222,632,o),
(174,629,o),
(140,629,cs),
(93,629,o),
(28,632,o),
(9,632,c),
(9,618,l),
(56,618,o),
(78,603,o),
(121,566,c),
(121,403,o),
(121,241,o),
(121,78,cs),
(121,24,o),
(94,13,o),
(23,11,c),
(22,11,l),
(22,-3,l),
(56,-3,o),
(124,0,o),
(146,0,cs),
(165,0,o),
(230,-3,o),
(265,-3,c),
(265,11,l),
(244,11,ls),
(183,11,o),
(156,27,o),
(156,112,cs),
(156,248,o),
(156,392,o),
(156,528,c),
(665,-11,l)
);
},
{
closed = 1;
nodes = (
(643,-192,o),
(676,-81,o),
(676,-11,c),
(638,22,l),
(638,-79,o),
(581,-210,o),
(445,-271,c),
(455,-285,l)
);
}
);
width = 775;
}
);
metricLeft = N;
metricRight = N;
unicode = 330;
},
{
color = 3;
glyphname = O;
kernLeft = O;
kernRight = O;
lastChange = "2024-10-18 09:19:06 +0000";
layers = (
{
anchors = (
{
name = bottom;
pos = (357,0);
},
{
name = center;
pos = (357,315);
},
{
name = ogonek;
pos = (510,10);
},
{
name = top;
pos = (357,629);
},
{
name = topleft;
pos = (22,629);
},
{
name = topright;
pos = (691,629);
}
);
hints = (
{
horizontal = 1;
origin = (0,11);
target = (1,11);
type = Stem;
},
{
horizontal = 1;
origin = (0,5);
target = (1,5);
type = Stem;
},
{
origin = (0,8);
target = (1,2);
type = Stem;
},
{
origin = (1,8);
target = (0,2);
type = Stem;
}
);
layerId = "C56BE457-17E3-437C-A42F-4BD1DE972727";
shapes = (
{
closed = 1;
nodes = (
(538,-11,o),
(670,133,o),
(670,314,cs),
(670,498,o),
(531,639,o),
(351,639,cs),
(152,639,o),
(43,480,o),
(43,318,cs),
(43,146,o),
(172,-11,o),
(370,-11,cs)
);
},
{
closed = 1;
nodes = (
(199,17,o),
(140,162,o),
(140,316,cs),
(140,497,o),
(189,611,o),
(352,611,cs),
(510,611,o),
(575,478,o),
(575,313,cs),
(575,136,o),
(525,17,o),
(365,17,cs)
);
}
);
width = 713;
},
{
anchors = (
{
name = bottom;
pos = (398,0);
},
{
name = center;
pos = (398,315);
},
{
name = ogonek;
pos = (581,10);
},
{
name = top;
pos = (398,629);
},
{
name = topleft;
pos = (20,629);
},
{
name = topright;
pos = (776,629);
}
);
background = {
shapes = (
{
closed = 1;
nodes = (
(568,-12,o),
(705,105,o),
(705,299,cs),
(705,451,o),
(606,592,o),
(364,592,cs),
(192,592,o),
(34,490,o),
(34,292,cs),
(34,91,o),
(166,-12,o),
(376,-12,cs)
);
},
{
closed = 1;
nodes = (
(240,29,o),
(196,146,o),
(196,277,cs),
(196,434,o),
(224,550,o),
(364,550,cs),
(474,550,o),
(543,461,o),
(543,302,cs),
(543,152,o),
(508,29,o),
(376,29,cs)
);
}
);
};
layerId = "3B95F746-F211-4218-A5C8-A7CCC072D238";
shapes = (
{
closed = 1;
nodes = (
(600,-11,o),
(748,133,o),
(748,314,cs),
(748,498,o),
(626,639,o),
(393,639,cs),
(170,639,o),
(48,478,o),
(48,315,cs),
(48,145,o),
(159,-11,o),
(413,-11,cs)
);
},
{
closed = 1;
nodes = (
(270,31,o),
(221,170,o),
(221,316,cs),
(221,487,o),
(261,595,o),
(394,595,cs),
(525,595,o),
(576,470,o),
(576,313,cs),
(576,145,o),
(538,31,o),
(406,31,cs)
);
}
);
width = 796;
},
{
anchors = (
{
name = bottom;
pos = (355,0);
},
{
name = center;
pos = (355,315);
},
{
name = ogonek;
pos = (507,10);
},
{
name = top;
pos = (355,629);
},
{
name = topleft;
pos = (20,629);
},
{
name = topright;
pos = (689,629);
}
);
layerId = "D1413726-767D-4628-9B63-3A1C0748A050";
shapes = (
{
closed = 1;
nodes = (
(543,-11,o),
(666,139,o),
(666,314,cs),
(666,498,o),
(529,639,o),
(349,639,cs),
(151,639,o),
(43,480,o),
(43,318,cs),
(43,146,o),
(171,-11,o),
(368,-11,cs)
);
},
{
closed = 1;
nodes = (
(194,3,o),
(134,143,o),
(134,316,cs),
(134,517,o),
(184,625,o),
(350,625,cs),
(512,625,o),
(576,499,o),
(576,313,cs),
(576,116,o),
(527,3,o),
(363,3,cs)
);
}
);
width = 709;
},
{
anchors = (
{
name = bottom;
pos = (399,0);
},
{
name = center;
pos = (399,315);
},
{
name = ogonek;
pos = (579,10);
},
{
name = top;
pos = (399,629);
},
{
name = topleft;
pos = (20,629);
},
{
name = topright;
pos = (777,629);
}
);
layerId = "E7B116FE-7576-4B50-8DFF-8E55DA3EEB52";
shapes = (
{
closed = 1;
nodes = (
(608,-10,o),
(752,123,o),
(752,319,cs),
(752,492,o),
(626,638,o),
(394,638,cs),
(193,638,o),
(45,504,o),
(45,316,cs),
(45,122,o),
(189,-10,o),
(396,-10,cs)
);
},
{
closed = 1;
nodes = (
(270,7,o),
(221,150,o),
(221,308,cs),
(221,494,o),
(257,621,o),
(392,621,cs),
(517,621,o),
(576,499,o),
(576,320,cs),
(576,139,o),
(539,7,o),
(405,7,cs)
);
}
);
width = 797;
}
);
metricRight = "=|";
note = O;
unicode = 79;
},
{
color = 3;
glyphname = Ohorn;
lastChange = "2024-06-27 01:31:45 +0000";
layers = (
{
anchors = (
{
name = bottom;
pos = (370,0);
},
{
name = top;
pos = (370,629);
}
);
layerId = "C56BE457-17E3-437C-A42F-4BD1DE972727";
shapes = (
{
closed = 1;
nodes = (
(538,-11,o),
(670,133,o),
(670,314,cs),
(670,498,o),
(531,639,o),
(351,639,cs),
(152,639,o),
(43,480,o),
(43,318,cs),
(43,146,o),
(172,-11,o),
(370,-11,cs)
);
},
{
closed = 1;
nodes = (
(199,17,o),
(140,162,o),
(140,316,cs),
(140,497,o),
(189,611,o),
(352,611,cs),
(510,611,o),
(575,478,o),
(575,313,cs),
(575,136,o),
(525,17,o),
(365,17,cs)
);
},
{
closed = 1;
nodes = (
(703,429,o),
(739,474,o),
(739,541,cs),
(739,596,o),
(712,636,o),
(674,636,cs),
(649,636,o),
(630,622,o),
(630,595,cs),
(630,545,o),
(692,566,o),
(692,502,cs),
(692,466,o),
(662,451,o),
(622,440,c),
(627,413,l)
);
}
);
width = 739;
},
{
anchors = (
{
name = bottom;
pos = (422,0);
},
{
name = top;
pos = (422,629);
}
);
layerId = "3B95F746-F211-4218-A5C8-A7CCC072D238";
shapes = (
{
closed = 1;
nodes = (
(600,-11,o),
(748,133,o),
(748,314,cs),
(748,498,o),
(626,639,o),
(393,639,cs),
(170,639,o),
(48,478,o),
(48,315,cs),
(48,145,o),
(159,-11,o),
(413,-11,cs)
);
},
{
closed = 1;
nodes = (
(270,31,o),
(221,170,o),
(221,316,cs),
(221,487,o),
(261,595,o),
(394,595,cs),
(525,595,o),
(576,470,o),
(576,313,cs),
(576,145,o),
(538,31,o),
(406,31,cs)
);
},
{
closed = 1;
nodes = (
(796,407,o),
(843,453,o),
(843,536,cs),
(843,597,o),
(811,639,o),
(763,639,cs),
(729,639,o),
(706,618,o),
(706,585,cs),
(706,517,o),
(784,545,o),
(784,488,cs),
(784,454,o),
(757,435,o),
(703,428,c),
(709,400,l)
);
}
);
width = 843;
},
{
anchors = (
{
name = bottom;
pos = (372,0);
},
{
name = top;
pos = (372,629);
}
);
layerId = "D1413726-767D-4628-9B63-3A1C0748A050";
shapes = (
{
closed = 1;
nodes = (
(543,-11,o),
(666,139,o),
(666,314,cs),
(666,498,o),
(529,639,o),
(349,639,cs),
(151,639,o),
(43,480,o),
(43,318,cs),
(43,146,o),
(171,-11,o),
(368,-11,cs)
);
},
{
closed = 1;
nodes = (
(194,0,o),
(134,143,o),
(134,316,cs),
(134,517,o),
(184,627,o),
(350,627,cs),
(512,627,o),
(576,499,o),
(576,313,cs),
(576,116,o),
(527,0,o),
(363,0,cs)
);
},
{
closed = 1;
nodes = (
(699,434,o),
(744,477,o),
(744,544,cs),
(744,599,o),
(717,639,o),
(679,639,cs),
(654,639,o),
(635,624,o),
(635,595,cs),
(635,536,o),
(707,560,o),
(707,505,cs),
(707,463,o),
(673,441,o),
(630,429,c),
(633,418,l)
);
}
);
width = 744;
},
{
anchors = (
{
name = bottom;
pos = (430,0);
},
{
name = top;
pos = (430,629);
}
);
layerId = "E7B116FE-7576-4B50-8DFF-8E55DA3EEB52";
shapes = (
{
closed = 1;
nodes = (
(608,-10,o),
(752,123,o),
(752,319,cs),
(752,492,o),
(626,638,o),
(394,638,cs),
(193,638,o),
(45,504,o),
(45,316,cs),
(45,122,o),
(189,-10,o),
(396,-10,cs)
);
},
{
closed = 1;
nodes = (
(270,4,o),
(221,148,o),
(221,308,cs),
(221,496,o),
(257,624,o),
(392,624,cs),
(517,624,o),
(576,501,o),
(576,320,cs),
(576,137,o),
(539,4,o),
(405,4,cs)
);
},
{
closed = 1;
nodes = (
(803,394,o),
(859,438,o),
(859,524,cs),
(859,591,o),
(826,638,o),
(774,638,cs),
(731,638,o),
(711,602,o),
(711,577,cs),
(711,509,o),
(805,521,o),
(805,464,cs),
(805,437,o),
(780,413,o),
(724,397,c),
(726,379,l)
);
}
);
width = 859;
}
);
unicode = 416;
},
{
color = 3;
glyphname = Oopen;
lastChange = "2024-08-03 15:26:09 +0000";
layers = (
{
layerId = "C56BE457-17E3-437C-A42F-4BD1DE972727";
shapes = (
{
closed = 1;
nodes = (
(538,-11,o),
(670,133,o),
(670,314,cs),
(670,498,o),
(531,639,o),
(351,639,cs),
(194,639,o),
(93,540,o),
(57,418,c),
(147,418,l),
(165,539,o),
(222,611,o),
(352,611,cs),
(510,611,o),
(575,478,o),
(575,313,cs),
(575,136,o),
(525,17,o),
(365,17,cs),
(232,17,o),
(167,110,o),
(147,227,c),
(55,227,l),
(92,94,o),
(208,-11,o),
(370,-11,cs)
);
}
);
width = 713;
},
{
layerId = "3B95F746-F211-4218-A5C8-A7CCC072D238";
shapes = (
{
closed = 1;
nodes = (
(600,-11,o),
(748,133,o),
(748,314,cs),
(748,498,o),
(626,639,o),
(393,639,cs),
(221,639,o),
(109,543,o),
(67,425,c),
(228,425,l),
(245,531,o),
(292,595,o),
(394,595,cs),
(525,595,o),
(576,470,o),
(576,313,cs),
(576,145,o),
(538,31,o),
(406,31,cs),
(298,31,o),
(245,118,o),
(228,227,c),
(59,227,l),
(92,95,o),
(204,-11,o),
(413,-11,cs)
);
}
);
width = 796;
},
{
background = {
shapes = (
{
closed = 1;
nodes = (
(538,-11,o),
(670,133,o),
(670,314,cs),
(670,498,o),
(531,639,o),
(351,639,cs),
(194,639,o),
(93,540,o),
(57,418,c),
(147,418,l),
(165,539,o),
(222,611,o),
(352,611,cs),
(510,611,o),
(575,478,o),
(575,313,cs),
(575,136,o),
(525,17,o),
(365,17,cs),
(232,17,o),
(167,110,o),
(147,227,c),
(55,227,l),
(92,94,o),
(208,-11,o),
(370,-11,cs)
);
}
);
};
layerId = "D1413726-767D-4628-9B63-3A1C0748A050";
shapes = (
{
closed = 1;
nodes = (
(543,-11,o),
(666,139,o),
(666,314,cs),
(666,498,o),
(529,639,o),
(349,639,cs),
(194,639,o),
(94,541,o),
(58,421,c),
(140,421,l),
(157,555,o),
(216,627,o),
(350,627,cs),
(512,627,o),
(576,499,o),
(576,313,cs),
(576,116,o),
(527,1,o),
(365,1,cs),
(225,1,o),
(160,95,o),
(140,225,c),
(56,225,l),
(93,93,o),
(208,-11,o),
(368,-11,cs)
);
}
);
width = 709;
},
{
background = {
shapes = (
{
closed = 1;
nodes = (
(600,-11,o),
(748,133,o),
(748,314,cs),
(748,498,o),
(626,639,o),
(393,639,cs),
(221,639,o),
(109,543,o),
(67,425,c),
(228,425,l),
(245,531,o),
(292,595,o),
(394,595,cs),
(525,595,o),
(576,470,o),
(576,313,cs),
(576,145,o),
(538,31,o),
(406,31,cs),
(298,31,o),
(245,118,o),
(228,227,c),
(59,227,l),
(92,95,o),
(204,-11,o),
(413,-11,cs)
);
}
);
};
layerId = "E7B116FE-7576-4B50-8DFF-8E55DA3EEB52";
shapes = (
{
closed = 1;
nodes = (
(608,-10,o),
(752,123,o),
(752,319,cs),
(752,492,o),
(626,638,o),
(394,638,cs),
(236,638,o),
(110,555,o),
(64,427,c),
(227,427,l),
(243,548,o),
(288,621,o),
(392,621,cs),
(517,621,o),
(576,501,o),
(576,320,cs),
(576,137,o),
(539,7,o),
(405,7,cs),
(293,7,o),
(240,103,o),
(226,228,c),
(56,228,l),
(93,83,o),
(222,-10,o),
(396,-10,cs)
);
}
);
width = 797;
}
);
metricRight = O;
unicode = 390;
},
{
color = 3;
glyphname = Oslash;
kernLeft = O;
kernRight = O;
lastChange = "2024-10-18 09:15:43 +0000";
layers = (
{
anchors = (
{
name = top;
pos = (357,629);
}
);
background = {
shapes = (
{
closed = 1;
nodes = (
(153,69,l),
(213,15,o),
(289,-12,o),
(370,-12,cs),
(538,-12,o),
(668,133,o),
(668,314,cs),
(668,406,o),
(636,488,o),
(580,548,c),
(652,629,l),
(634,643,l),
(564,564,l),
(507,615,o),
(433,645,o),
(351,645,cs),
(135,645,o),
(45,456,o),
(45,318,cs),
(45,231,o),
(78,148,o),
(137,86,c),
(62,3,l),
(81,-13,l)
);
},
{
closed = 1;
nodes = (
(282,4,o),
(221,38,o),
(183,103,c),
(543,507,l),
(565,461,o),
(578,400,o),
(578,313,cs),
(578,119,o),
(529,4,o),
(365,4,cs)
);
},
{
closed = 1;
nodes = (
(150,172,o),
(136,235,o),
(136,316,cs),
(136,517,o),
(186,627,o),
(352,627,cs),
(432,627,o),
(493,597,o),
(532,528,c),
(172,125,l)
);
}
);
};
layerId = "C56BE457-17E3-437C-A42F-4BD1DE972727";
shapes = (
{
closed = 1;
nodes = (
(538,-11,o),
(670,133,o),
(670,314,cs),
(670,498,o),
(531,639,o),
(351,639,cs),
(153,639,o),
(43,480,o),
(43,318,cs),
(43,146,o),
(173,-11,o),
(370,-11,cs)
);
},
{
closed = 1;
nodes = (
(196,17,o),
(140,162,o),
(140,316,cs),
(140,497,o),
(186,611,o),
(352,611,cs),
(514,611,o),
(574,478,o),
(574,313,cs),
(574,136,o),
(529,17,o),
(365,17,cs)
);
},
{
closed = 1;
nodes = (
(646,625,l),
(628,641,l),
(68,5,l),
(86,-11,l)
);
}
);
width = 713;
},
{
anchors = (
{
name = top;
pos = (398,629);
}
);
layerId = "3B95F746-F211-4218-A5C8-A7CCC072D238";
shapes = (
{
closed = 1;
nodes = (
(600,-11,o),
(748,133,o),
(748,314,cs),
(748,498,o),
(626,639,o),
(393,639,cs),
(170,639,o),
(48,478,o),
(48,315,cs),
(48,145,o),
(159,-11,o),
(413,-11,cs)
);
},
{
closed = 1;
nodes = (
(270,31,o),
(221,170,o),
(221,316,cs),
(221,487,o),
(261,595,o),
(394,595,cs),
(525,595,o),
(576,470,o),
(576,313,cs),
(576,145,o),
(538,31,o),
(406,31,cs)
);
},
{
closed = 1;
nodes = (
(689,615,l),
(661,638,l),
(98,13,l),
(126,-9,l)
);
}
);
width = 796;
},
{
anchors = (
{
name = top;
pos = (355,629);
}
);
layerId = "D1413726-767D-4628-9B63-3A1C0748A050";
shapes = (
{
closed = 1;
nodes = (
(543,-11,o),
(666,139,o),
(666,314,cs),
(666,498,o),
(529,639,o),
(349,639,cs),
(151,639,o),
(43,480,o),
(43,318,cs),
(43,146,o),
(171,-11,o),
(368,-11,cs)
);
},
{
closed = 1;
nodes = (
(194,0,o),
(134,143,o),
(134,316,cs),
(134,517,o),
(184,627,o),
(350,627,cs),
(512,627,o),
(576,499,o),
(576,313,cs),
(576,116,o),
(527,0,o),
(363,0,cs)
);
},
{
closed = 1;
nodes = (
(643,626,l),
(630,638,l),
(66,1,l),
(79,-10,l)
);
}
);
width = 709;
},
{
anchors = (
{
name = top;
pos = (399,629);
}
);
layerId = "E7B116FE-7576-4B50-8DFF-8E55DA3EEB52";
shapes = (
{
closed = 1;
nodes = (
(608,-10,o),
(752,123,o),
(752,319,cs),
(752,492,o),
(626,638,o),
(394,638,cs),
(193,638,o),
(45,504,o),
(45,316,cs),
(45,122,o),
(189,-10,o),
(396,-10,cs)
);
},
{
closed = 1;
nodes = (
(270,7,o),
(221,148,o),
(221,308,cs),
(221,496,o),
(257,621,o),
(392,621,cs),
(517,621,o),
(576,501,o),
(576,320,cs),
(576,137,o),
(539,7,o),
(405,7,cs)
);
},
{
closed = 1;
nodes = (
(690,629,l),
(669,646,l),
(94,1,l),
(115,-15,l)
);
}
);
width = 797;
}
);
metricLeft = O;
metricRight = O;
note = Oslash;
unicode = 216;
},
{
color = 3;
glyphname = OE;
kernLeft = O;
kernRight = O;
lastChange = "2024-10-18 09:15:43 +0000";
layers = (
{
anchors = (
{
name = bottom;
pos = (431,0);
},
{
name = top;
pos = (431,629);
}
);
background = {
shapes = (
{
closed = 1;
nodes = (
(427,-12,o),
(430,0,o),
(592,0,cs),
(653,0,o),
(716,-2,o),
(780,-3,c),
(825,118,l),
(808,118,l),
(777,56,o),
(752,22,o),
(685,22,cs),
(553,22,ls),
(522,22,o),
(511,33,o),
(511,68,cs),
(511,321,l),
(664,321,ls),
(705,321,o),
(725,292,o),
(727,235,c),
(743,235,l),
(743,413,l),
(726,413,l),
(721,367,o),
(716,341,o),
(673,341,cs),
(511,341,l),
(511,609,l),
(688,609,ls),
(741,609,o),
(766,573,o),
(766,508,c),
(782,508,l),
(778,632,l),
(727,631,o),
(662,629,o),
(624,629,cs),
(488,629,o),
(356,637,o),
(352,637,cs),
(135,637,o),
(41,471,o),
(41,327,cs),
(41,185,o),
(141,-12,o),
(353,-12,cs)
);
},
{
closed = 1;
nodes = (
(173,6,o),
(132,247,o),
(132,359,cs),
(132,513,o),
(179,620,o),
(337,620,cs),
(422,620,o),
(441,607,o),
(441,426,cs),
(441,136,ls),
(441,42,o),
(441,6,o),
(338,6,cs)
);
}
);
};
layerId = "C56BE457-17E3-437C-A42F-4BD1DE972727";
shapes = (
{
closed = 1;
nodes = (
(394,-11,o),
(419,-8,o),
(443,-1,c),
(492,0,o),
(554,0,o),
(567,0,cs),
(622,0,o),
(733,-2,o),
(800,-3,c),
(845,126,l),
(818,126,l),
(777,55,o),
(758,29,o),
(699,29,cs),
(579,29,ls),
(544,29,o),
(529,44,o),
(529,79,cs),
(529,314,l),
(673,314,ls),
(712,314,o),
(735,283,o),
(736,229,c),
(763,229,l),
(763,418,l),
(736,418,l),
(733,378,o),
(725,347,o),
(679,347,cs),
(529,347,l),
(529,598,l),
(688,598,ls),
(760,598,o),
(771,564,o),
(776,497,c),
(803,497,l),
(799,632,l),
(734,630,o),
(673,629,o),
(602,629,cs),
(551,629,o),
(479,630,o),
(423,631,c),
(400,636,o),
(375,639,o),
(349,639,cs),
(151,639,o),
(43,480,o),
(43,318,cs),
(43,146,o),
(171,-11,o),
(368,-11,cs)
);
},
{
closed = 1;
nodes = (
(198,17,o),
(140,162,o),
(140,316,cs),
(140,497,o),
(189,611,o),
(350,611,cs),
(411,611,o),
(444,604,o),
(444,542,cs),
(444,86,ls),
(444,21,o),
(417,17,o),
(363,17,cs)
);
}
);
width = 861;
},
{
anchors = (
{
name = bottom;
pos = (493,0);
},
{
name = top;
pos = (493,629);
}
);
layerId = "3B95F746-F211-4218-A5C8-A7CCC072D238";
shapes = (
{
closed = 1;
nodes = (
(440,-11,o),
(467,-8,o),
(511,-2,c),
(547,-1,o),
(619,0,o),
(705,0,cs),
(751,0,o),
(818,-2,o),
(903,-3,c),
(948,139,l),
(916,139,l),
(888,75,o),
(858,44,o),
(759,44,cs),
(680,44,ls),
(648,44,o),
(626,68,o),
(626,100,cs),
(626,316,l),
(764,316,ls),
(804,316,o),
(820,292,o),
(826,233,c),
(858,233,l),
(858,431,l),
(826,431,l),
(822,374,o),
(801,355,o),
(764,355,cs),
(626,355,l),
(626,585,l),
(772,585,ls),
(852,585,o),
(875,559,o),
(874,488,c),
(906,488,l),
(906,632,l),
(798,634,o),
(707,629,o),
(610,629,cs),
(568,629,o),
(526,630,o),
(489,633,c),
(459,636,o),
(427,639,o),
(393,639,cs),
(170,639,o),
(48,478,o),
(48,315,cs),
(48,145,o),
(159,-11,o),
(413,-11,cs)
);
},
{
closed = 1;
nodes = (
(270,31,o),
(221,170,o),
(221,316,cs),
(221,487,o),
(261,595,o),
(394,595,cs),
(430,595,o),
(470,589,o),
(470,536,cs),
(470,82,ls),
(470,45,o),
(443,31,o),
(406,31,cs)
);
}
);
width = 986;
},
{
anchors = (
{
name = bottom;
pos = (429,0);
},
{
name = top;
pos = (429,629);
}
);
layerId = "D1413726-767D-4628-9B63-3A1C0748A050";
shapes = (
{
closed = 1;
nodes = (
(393,-11,o),
(417,-8,o),
(440,-2,c),
(477,-1,o),
(515,-1,o),
(552,0,cs),
(599,0,o),
(732,-2,o),
(799,-3,c),
(845,111,l),
(834,111,l),
(793,40,o),
(768,18,o),
(710,18,cs),
(580,18,ls),
(545,18,o),
(530,29,o),
(530,64,cs),
(530,322,l),
(685,322,ls),
(730,322,o),
(752,293,o),
(753,239,c),
(763,239,l),
(763,409,l),
(753,409,l),
(749,369,o),
(743,340,o),
(697,340,cs),
(530,340,l),
(530,611,l),
(699,611,ls),
(770,611,o),
(786,580,o),
(792,513,c),
(802,513,l),
(798,632,l),
(733,630,o),
(627,629,o),
(563,629,cs),
(473,630,o),
(511,629,o),
(421,631,c),
(398,636,o),
(374,639,o),
(349,639,cs),
(151,639,o),
(43,480,o),
(43,318,cs),
(43,146,o),
(171,-11,o),
(368,-11,cs)
);
},
{
closed = 1;
nodes = (
(194,3,o),
(134,143,o),
(134,316,cs),
(134,517,o),
(184,625,o),
(350,625,cs),
(394,625,o),
(451,620,o),
(451,556,cs),
(451,76,ls),
(451,12,o),
(419,3,o),
(363,3,cs)
);
}
);
width = 868;
},
{
anchors = (
{
name = bottom;
pos = (498,0);
},
{
name = top;
pos = (498,629);
}
);
layerId = "E7B116FE-7576-4B50-8DFF-8E55DA3EEB52";
shapes = (
{
closed = 1;
nodes = (
(427,-10,o),
(457,-7,o),
(486,-1,c),
(565,0,o),
(672,0,o),
(720,0,cs),
(782,0,o),
(852,-2,o),
(928,-3,c),
(973,133,l),
(957,133,l),
(931,75,o),
(877,31,o),
(806,31,cs),
(714,31,ls),
(680,31,o),
(661,51,o),
(661,84,cs),
(661,318,l),
(792,318,ls),
(833,318,o),
(854,289,o),
(862,233,c),
(876,233,l),
(876,422,l),
(862,422,l),
(855,374,o),
(833,349,o),
(785,349,cs),
(662,349,l),
(662,598,l),
(796,598,ls),
(867,598,o),
(904,565,o),
(906,496,c),
(920,496,l),
(918,632,l),
(831,632,o),
(725,629,o),
(693,629,cs),
(622,630,o),
(550,630,o),
(479,631,c),
(452,636,o),
(424,638,o),
(394,638,cs),
(193,638,o),
(45,504,o),
(45,316,cs),
(45,122,o),
(189,-10,o),
(396,-10,cs)
);
},
{
closed = 1;
nodes = (
(270,7,o),
(221,148,o),
(221,308,cs),
(221,496,o),
(257,621,o),
(392,621,cs),
(448,621,o),
(501,596,o),
(501,544,cs),
(501,79,ls),
(501,35,o),
(493,12,o),
(405,7,cs)
);
}
);
width = 995;
}
);
metricLeft = O;
metricRight = E;
note = OE;
unicode = 338;
},
{
color = 3;
glyphname = P;
kernLeft = H;
kernRight = P;
lastChange = "2024-10-18 09:19:06 +0000";
layers = (
{
anchors = (
{
name = bottom;
pos = (246,0);
},
{
name = top;
pos = (246,629);
}
);
hints = (
{
horizontal = 1;
origin = (0,33);
target = (0,32);
type = Stem;
},
{
horizontal = 1;
origin = (0,14);
target = (1,12);
type = Stem;
},
{
horizontal = 1;
origin = (0,20);
target = (1,6);
type = Stem;
},
{
origin = (0,28);
target = (1,3);
type = Stem;
},
{
origin = (1,9);
target = (0,17);
type = Stem;
}
);
layerId = "C56BE457-17E3-437C-A42F-4BD1DE972727";
shapes = (
{
closed = 1;
nodes = (
(83,-3,o),
(123,0,o),
(169,0,cs),
(183,0,o),
(246,-2,o),
(286,-3,c),
(286,24,l),
(264,24,ls),
(214,24,o),
(198,28,o),
(198,85,cs),
(198,316,l),
(211,315,o),
(225,315,o),
(245,315,cs),
(391,315,o),
(465,386,o),
(465,481,cs),
(465,608,o),
(341,642,o),
(233,642,cs),
(186,642,o),
(111,635,o),
(36,629,c),
(36,602,l),
(95,602,o),
(113,602,o),
(113,539,cs),
(113,86,ls),
(113,31,o),
(97,24,o),
(55,24,cs),
(38,24,l),
(38,-3,l)
);
},
{
closed = 1;
nodes = (
(230,341,o),
(211,341,o),
(198,342,c),
(198,611,l),
(213,613,o),
(225,615,o),
(240,615,cs),
(322,615,o),
(369,561,o),
(369,475,cs),
(369,389,o),
(331,341,o),
(245,341,cs)
);
}
);
width = 487;
},
{
anchors = (
{
name = bottom;
pos = (289,0);
},
{
name = top;
pos = (289,629);
}
);
background = {
shapes = (
{
closed = 1;
nodes = (
(94,-3,o),
(111,0,o),
(130,0,cs),
(171,0,o),
(255,-4,o),
(312,-3,c),
(312,24,l),
(310,24,ls),
(250,24,o),
(237,34,o),
(237,97,cs),
(237,281,l),
(259,282,o),
(276,280,o),
(282,280,cs),
(471,280,o),
(514,351,o),
(514,441,cs),
(514,471,o),
(544,592,o),
(263,592,cs),
(213,592,o),
(46,582,o),
(8,582,c),
(8,555,l),
(75,553,o),
(94,547,o),
(94,503,cs),
(94,64,ls),
(94,17,o),
(47,24,o),
(-4,24,cs),
(8,24,l),
(8,-3,l)
);
},
{
closed = 1;
nodes = (
(250,310,o),
(243,312,o),
(237,311,c),
(237,562,l),
(247,562,o),
(262,563,o),
(272,563,cs),
(332,563,o),
(357,527,o),
(357,430,cs),
(357,340,o),
(309,314,o),
(264,310,cs)
);
}
);
};
layerId = "3B95F746-F211-4218-A5C8-A7CCC072D238";
shapes = (
{
closed = 1;
nodes = (
(84,-3,o),
(112,0,o),
(148,0,cs),
(211,0,o),
(309,-3,o),
(360,-3,c),
(360,29,l),
(334,29,ls),
(276,29,o),
(256,37,o),
(256,99,cs),
(256,299,l),
(267,299,o),
(276,298,o),
(284,298,cs),
(486,298,o),
(553,370,o),
(553,473,cs),
(553,553,o),
(504,640,o),
(285,640,cs),
(233,640,o),
(79,632,o),
(11,629,c),
(11,597,l),
(81,596,o),
(99,593,o),
(99,538,cs),
(99,82,ls),
(99,29,o),
(66,29,o),
(14,29,c),
(12,29,l),
(12,-3,l)
);
},
{
closed = 1;
nodes = (
(270,333,o),
(261,334,o),
(256,334,c),
(256,604,l),
(269,605,o),
(278,606,o),
(291,606,cs),
(347,606,o),
(384,566,o),
(384,464,cs),
(384,381,o),
(338,335,o),
(278,333,cs)
);
}
);
width = 577;
},
{
anchors = (
{
name = bottom;
pos = (239,0);
},
{
name = top;
pos = (239,629);
}
);
layerId = "D1413726-767D-4628-9B63-3A1C0748A050";
shapes = (
{
closed = 1;
nodes = (
(83,-3,o),
(123,0,o),
(163,0,cs),
(177,0,o),
(240,-2,o),
(280,-3,c),
(280,8,l),
(258,8,ls),
(208,8,o),
(192,12,o),
(192,69,cs),
(192,318,l),
(205,317,o),
(219,317,o),
(231,317,cs),
(384,317,o),
(457,387,o),
(457,481,cs),
(457,608,o),
(334,642,o),
(229,642,cs),
(181,642,o),
(111,636,o),
(36,630,c),
(36,619,l),
(95,619,o),
(113,618,o),
(113,555,cs),
(113,70,ls),
(113,15,o),
(97,8,o),
(55,8,cs),
(38,8,l),
(38,-3,l)
);
},
{
closed = 1;
nodes = (
(219,331,o),
(201,332,o),
(192,332,c),
(192,625,l),
(207,627,o),
(219,628,o),
(229,628,cs),
(319,628,o),
(367,569,o),
(367,475,cs),
(367,386,o),
(324,331,o),
(234,331,cs)
);
}
);
width = 478;
},
{
anchors = (
{
name = bottom;
pos = (298,0);
},
{
name = top;
pos = (298,629);
}
);
layerId = "E7B116FE-7576-4B50-8DFF-8E55DA3EEB52";
shapes = (
{
closed = 1;
nodes = (
(52,-3,o),
(137,0,o),
(175,0,cs),
(226,0,o),
(335,-3,o),
(364,-3,c),
(364,11,l),
(341,11,ls),
(284,11,o),
(268,24,o),
(268,86,cs),
(269,310,l),
(287,310,o),
(302,309,o),
(318,309,cs),
(504,309,o),
(572,382,o),
(572,478,cs),
(572,558,o),
(523,640,o),
(299,640,cs),
(244,640,o),
(79,632,o),
(13,629,c),
(13,615,l),
(87,613,o),
(109,610,o),
(109,555,cs),
(109,67,ls),
(109,14,o),
(69,11,o),
(14,11,c),
(13,11,l),
(13,-3,l)
);
},
{
closed = 1;
nodes = (
(292,326,o),
(279,327,o),
(269,327,c),
(269,621,l),
(282,622,o),
(296,623,o),
(309,623,cs),
(369,623,o),
(400,573,o),
(400,469,cs),
(400,372,o),
(364,328,o),
(307,326,cs)
);
}
);
width = 595;
}
);
metricLeft = H;
metricRight = "=O*.5";
note = P;
unicode = 80;
},
{
color = 3;
glyphname = Thorn;
kernLeft = H;
kernRight = O;
lastChange = "2024-10-18 09:19:06 +0000";
layers = (
{
background = {
shapes = (
{
closed = 1;
nodes = (
(99,-2,o),
(134,0,o),
(163,0,cs),
(186,0,o),
(215,-2,o),
(280,-3,c),
(280,15,l),
(257,15,ls),
(208,15,o),
(193,21,o),
(193,78,cs),
(193,202,l),
(204,201,o),
(221,201,o),
(234,201,cs),
(386,202,o),
(457,270,o),
(457,364,cs),
(457,438,o),
(414,525,o),
(214,525,cs),
(193,525,l),
(194,608,o),
(194,613,o),
(268,613,c),
(268,632,l),
(254,631,o),
(209,629,o),
(144,629,cs),
(105,629,o),
(70,630,o),
(25,632,c),
(25,613,l),
(90,612,o),
(114,620,o),
(114,552,cs),
(114,78,ls),
(114,15,o),
(94,15,o),
(38,15,c),
(38,-3,l)
);
},
{
closed = 1;
nodes = (
(224,218,o),
(208,219,o),
(193,219,c),
(193,503,l),
(215,505,o),
(220,507,o),
(229,507,cs),
(319,507,o),
(367,449,o),
(367,357,cs),
(367,268,o),
(329,218,o),
(239,218,cs)
);
}
);
};
hints = (
{
horizontal = 1;
origin = (0,33);
target = (0,32);
type = Stem;
},
{
horizontal = 1;
origin = (1,12);
target = (2,12);
type = Stem;
},
{
horizontal = 1;
origin = (2,6);
target = (1,5);
type = Stem;
},
{
horizontal = 1;
origin = (0,22);
target = (0,24);
type = Stem;
},
{
origin = (0,28);
target = (0,11);
type = Stem;
},
{
origin = (2,9);
target = (1,2);
type = Stem;
}
);
layerId = "C56BE457-17E3-437C-A42F-4BD1DE972727";
shapes = (
{
closed = 1;
nodes = (
(80,-1,o),
(116,0,o),
(158,0,cs),
(205,0,o),
(244,-1,o),
(286,-3,c),
(286,24,l),
(259,24,ls),
(212,24,o),
(199,32,o),
(199,89,cs),
(199,541,ls),
(199,595,o),
(211,605,o),
(262,605,cs),
(286,605,l),
(286,632,l),
(230,630,o),
(197,629,o),
(156,629,cs),
(132,629,o),
(82,630,o),
(36,632,c),
(36,605,l),
(38,605,l),
(102,605,o),
(114,602,o),
(114,541,cs),
(114,93,ls),
(114,30,o),
(105,24,o),
(41,24,c),
(37,24,l),
(37,-3,l)
);
},
{
closed = 1;
nodes = (
(390,169,o),
(463,240,o),
(463,335,cs),
(463,462,o),
(340,496,o),
(233,496,cs),
(218,496,o),
(198,495,o),
(187,492,c),
(178,170,l),
(211,169,o),
(225,169,o),
(245,169,cs)
);
},
{
closed = 1;
nodes = (
(230,195,o),
(206,195,o),
(193,196,c),
(193,467,l),
(208,469,o),
(225,469,o),
(240,469,cs),
(321,469,o),
(367,415,o),
(367,329,cs),
(367,243,o),
(330,195,o),
(245,195,cs)
);
}
);
width = 485;
},
{
background = {
shapes = (
{
closed = 1;
nodes = (
(122,-3,o),
(161,0,o),
(182,0,cs),
(210,0,o),
(286,-3,o),
(338,-3,c),
(338,15,l),
(291,15,o),
(254,15,o),
(254,68,cs),
(254,145,l),
(270,145,o),
(296,144,o),
(312,144,cs),
(481,144,o),
(535,226,o),
(535,311,cs),
(535,401,o),
(476,475,o),
(280,475,cs),
(254,475,l),
(254,564,ls),
(254,617,o),
(292,617,o),
(338,617,c),
(339,634,l),
(292,634,o),
(244,631,o),
(208,631,cs),
(175,631,o),
(106,634,o),
(54,634,c),
(54,617,l),
(101,617,o),
(137,617,o),
(137,564,cs),
(137,69,ls),
(137,15,o),
(99,15,o),
(53,15,c),
(53,-3,l)
);
},
{
closed = 1;
nodes = (
(254,444,l),
(265,445,o),
(280,446,o),
(294,446,cs),
(368,446,o),
(406,400,o),
(406,314,cs),
(406,199,o),
(365,174,o),
(283,174,cs),
(254,174,l)
);
}
);
};
layerId = "3B95F746-F211-4218-A5C8-A7CCC072D238";
shapes = (
{
closed = 1;
nodes = (
(73,-1,o),
(120,0,o),
(149,0,cs),
(175,0,o),
(292,-1,o),
(336,-3,c),
(336,29,l),
(332,29,ls),
(285,29,o),
(256,21,o),
(256,81,cs),
(256,550,ls),
(256,596,o),
(282,600,o),
(326,600,cs),
(336,600,l),
(336,632,l),
(310,632,o),
(232,629,o),
(201,629,cs),
(156,629,o),
(78,630,o),
(12,632,c),
(12,600,l),
(21,600,ls),
(57,600,o),
(99,597,o),
(99,548,cs),
(99,83,ls),
(99,29,o),
(44,29,o),
(28,29,cs),
(11,29,l),
(11,-3,l)
);
},
{
closed = 1;
nodes = (
(484,160,o),
(553,232,o),
(553,335,cs),
(553,415,o),
(503,509,o),
(285,502,cs),
(254,501,o),
(226,498,o),
(221,496,c),
(254,161,l),
(265,161,o),
(274,160,o),
(282,160,cs)
);
},
{
closed = 1;
nodes = (
(268,195,o),
(259,196,o),
(254,196,c),
(254,466,l),
(267,467,o),
(276,468,o),
(289,468,cs),
(345,468,o),
(384,428,o),
(384,334,cs),
(384,243,o),
(336,197,o),
(276,195,cs)
);
}
);
width = 577;
},
{
layerId = "D1413726-767D-4628-9B63-3A1C0748A050";
shapes = (
{
closed = 1;
nodes = (
(80,-1,o),
(116,0,o),
(158,0,cs),
(199,0,o),
(238,-1,o),
(280,-3,c),
(280,8,l),
(253,8,ls),
(206,8,o),
(193,16,o),
(193,72,cs),
(193,557,ls),
(193,611,o),
(205,621,o),
(256,621,cs),
(280,621,l),
(280,632,l),
(224,630,o),
(191,629,o),
(156,629,cs),
(132,629,o),
(82,630,o),
(36,632,c),
(36,621,l),
(38,621,l),
(102,621,o),
(114,618,o),
(114,557,cs),
(114,77,ls),
(114,14,o),
(105,8,o),
(41,8,c),
(37,8,l),
(37,-3,l)
);
},
{
closed = 1;
nodes = (
(384,166,o),
(457,235,o),
(457,329,cs),
(457,456,o),
(334,489,o),
(229,489,cs),
(212,489,o),
(194,489,o),
(177,485,c),
(176,167,l),
(205,166,o),
(219,166,o),
(231,166,cs)
);
},
{
closed = 1;
nodes = (
(219,180,o),
(198,181,o),
(189,181,c),
(189,472,l),
(204,474,o),
(219,475,o),
(229,475,cs),
(319,475,o),
(367,417,o),
(367,323,cs),
(367,234,o),
(324,180,o),
(234,180,cs)
);
}
);
width = 478;
},
{
layerId = "E7B116FE-7576-4B50-8DFF-8E55DA3EEB52";
shapes = (
{
closed = 1;
nodes = (
(70,-2,o),
(113,0,o),
(175,0,cs),
(230,0,o),
(308,-2,o),
(351,-3,c),
(351,11,l),
(347,11,l),
(300,11,o),
(268,12,o),
(268,64,cs),
(268,566,ls),
(268,618,o),
(299,618,o),
(347,618,c),
(351,618,l),
(351,632,l),
(310,632,o),
(255,629,o),
(200,629,cs),
(140,629,o),
(72,630,o),
(13,632,c),
(13,618,l),
(18,618,l),
(66,618,o),
(107,618,o),
(107,566,cs),
(107,64,ls),
(107,11,o),
(70,11,o),
(24,11,c),
(13,11,l),
(13,-3,l)
);
},
{
closed = 1;
nodes = (
(504,167,o),
(572,240,o),
(572,336,cs),
(572,416,o),
(523,498,o),
(304,498,cs),
(281,498,o),
(263,495,o),
(245,493,c),
(245,168,l),
(287,168,o),
(302,167,o),
(318,167,cs)
);
},
{
closed = 1;
nodes = (
(292,184,o),
(276,185,o),
(266,185,c),
(266,479,l),
(279,480,o),
(296,481,o),
(309,481,cs),
(369,481,o),
(400,428,o),
(400,327,cs),
(400,235,o),
(364,186,o),
(307,184,cs)
);
}
);
width = 595;
}
);
metricLeft = H;
metricRight = P;
note = Thorn;
unicode = 222;
},
{
color = 3;
glyphname = Q;
kernLeft = O;
kernRight = O;
lastChange = "2024-10-18 09:19:06 +0000";
layers = (
{
anchors = (
{
name = bottom;
pos = (357,0);
},
{
name = top;
pos = (357,629);
}
);
hints = (
{
horizontal = 1;
origin = (0,30);
target = (0,6);
type = Stem;
},
{
horizontal = 1;
origin = (0,9);
target = (1,11);
type = Stem;
},
{
horizontal = 1;
origin = (0,15);
target = (1,5);
type = Stem;
},
{
origin = (0,18);
target = (1,2);
type = Stem;
},
{
origin = (1,8);
target = (0,12);
type = Stem;
}
);
layerId = "C56BE457-17E3-437C-A42F-4BD1DE972727";
shapes = (
{
closed = 1;
nodes = (
(723,-200,o),
(777,-166,o),
(820,-126,c),
(811,-113,l),
(781,-139,o),
(745,-153,o),
(710,-153,cs),
(645,-153,o),
(436,-28,o),
(399,-10,c),
(585,14,o),
(670,177,o),
(670,310,cs),
(670,496,o),
(533,639,o),
(351,639,cs),
(127,639,o),
(43,443,o),
(43,316,cs),
(43,210,o),
(92,121,o),
(140,77,cs),
(176,44,o),
(201,27,o),
(261,2,cs),
(305,-16,o),
(334,-29,o),
(417,-83,cs),
(498,-136,o),
(574,-200,o),
(671,-200,cs)
);
},
{
closed = 1;
nodes = (
(196,16,o),
(140,153,o),
(140,311,cs),
(140,505,o),
(188,611,o),
(352,611,cs),
(496,611,o),
(574,511,o),
(574,308,cs),
(574,121,o),
(524,16,o),
(363,16,cs)
);
}
);
width = 713;
},
{
anchors = (
{
name = bottom;
pos = (398,0);
},
{
name = top;
pos = (398,629);
}
);
background = {
shapes = (
{
closed = 1;
nodes = (
(748,-175,o),
(792,-170,o),
(867,-111,c),
(845,-83,l),
(805,-109,o),
(790,-110,o),
(768,-110,cs),
(669,-110,o),
(636,-72,o),
(424,-9,c),
(593,7,o),
(717,106,o),
(717,295,cs),
(717,471,o),
(601,600,o),
(391,600,cs),
(223,600,o),
(44,538,o),
(44,287,cs),
(44,164,o),
(70,138,o),
(118,83,cs),
(165,27,o),
(262,-1,o),
(282,-4,cs),
(333,-19,o),
(499,-125,o),
(500,-121,cs),
(657,-210,o),
(666,-175,o),
(667,-175,cs)
);
},
{
closed = 1;
nodes = (
(299,31,o),
(206,94,o),
(206,276,cs),
(206,374,o),
(219,558,o),
(374,558,cs),
(514,558,o),
(555,425,o),
(555,301,cs),
(555,152,o),
(514,31,o),
(390,31,cs)
);
}
);
};
layerId = "3B95F746-F211-4218-A5C8-A7CCC072D238";
shapes = (
{
closed = 1;
nodes = (
(820,-194,o),
(873,-177,o),
(932,-118,c),
(910,-91,l),
(874,-116,o),
(848,-123,o),
(819,-123,cs),
(732,-123,o),
(639,-43,o),
(477,-1,c),
(659,30,o),
(753,153,o),
(753,323,cs),
(753,504,o),
(618,641,o),
(406,641,cs),
(193,641,o),
(48,513,o),
(48,316,cs),
(48,198,o),
(83,137,o),
(138,87,cs),
(189,42,o),
(258,12,o),
(305,-4,cs),
(352,-21,o),
(450,-83,o),
(489,-107,cs),
(635,-193,o),
(694,-194,o),
(753,-194,cs)
);
},
{
closed = 1;
nodes = (
(292,33,o),
(221,133,o),
(221,305,cs),
(221,453,o),
(249,600,o),
(397,600,cs),
(527,600,o),
(578,483,o),
(578,316,cs),
(578,148,o),
(540,33,o),
(411,33,cs)
);
}
);
width = 796;
},
{
anchors = (
{
name = bottom;
pos = (355,0);
},
{
name = top;
pos = (355,629);
}
);
layerId = "D1413726-767D-4628-9B63-3A1C0748A050";
shapes = (
{
closed = 1;
nodes = (
(720,-200,o),
(774,-164,o),
(815,-121,c),
(809,-113,l),
(779,-139,o),
(754,-153,o),
(708,-153,cs),
(630,-153,o),
(467,-39,o),
(389,-11,c),
(582,14,o),
(666,177,o),
(666,310,cs),
(666,496,o),
(530,639,o),
(349,639,cs),
(126,639,o),
(43,443,o),
(43,316,cs),
(43,210,o),
(91,121,o),
(138,77,cs),
(174,44,o),
(199,27,o),
(259,2,cs),
(303,-16,o),
(332,-29,o),
(415,-83,cs),
(496,-136,o),
(572,-200,o),
(660,-200,cs)
);
},
{
closed = 1;
nodes = (
(191,1,o),
(134,144,o),
(134,311,cs),
(134,516,o),
(183,627,o),
(350,627,cs),
(497,627,o),
(576,523,o),
(576,308,cs),
(576,110,o),
(525,1,o),
(361,1,cs)
);
}
);
width = 709;
},
{
anchors = (
{
name = bottom;
pos = (399,0);
},
{
name = top;
pos = (399,629);
}
);
background = {
shapes = (
{
closed = 1;
nodes = (
(757,-180,o),
(806,-164,o),
(861,-109,c),
(841,-84,l),
(807,-107,o),
(783,-114,o),
(756,-114,cs),
(676,-114,o),
(590,-40,o),
(440,-1,c),
(608,28,o),
(695,142,o),
(695,299,cs),
(695,467,o),
(570,596,o),
(374,596,cs),
(177,596,o),
(42,475,o),
(42,293,cs),
(42,183,o),
(75,127,o),
(126,81,cs),
(173,39,o),
(237,11,o),
(280,-4,cs),
(324,-19,o),
(415,-77,o),
(451,-99,cs),
(586,-179,o),
(641,-180,o),
(695,-180,cs)
);
},
{
closed = 1;
nodes = (
(268,31,o),
(203,123,o),
(203,282,cs),
(203,419,o),
(229,558,o),
(366,558,cs),
(486,558,o),
(533,447,o),
(533,293,cs),
(533,137,o),
(498,31,o),
(379,31,cs)
);
}
);
};
layerId = "E7B116FE-7576-4B50-8DFF-8E55DA3EEB52";
shapes = (
{
closed = 1;
nodes = (
(785,-199,o),
(840,-173,o),
(908,-102,c),
(901,-92,l),
(862,-119,o),
(835,-127,o),
(805,-127,cs),
(744,-127,o),
(617,-44,o),
(485,-5,c),
(645,27,o),
(751,146,o),
(751,310,cs),
(751,498,o),
(613,639,o),
(401,639,cs),
(190,639,o),
(45,512,o),
(45,313,cs),
(45,193,o),
(82,129,o),
(139,78,cs),
(192,31,o),
(254,6,o),
(295,-8,cs),
(345,-25,o),
(446,-86,o),
(501,-119,cs),
(606,-180,o),
(657,-199,o),
(720,-199,cs)
);
},
{
closed = 1;
nodes = (
(288,-1,o),
(219,109,o),
(219,300,cs),
(219,461,o),
(246,622,o),
(392,622,cs),
(522,622,o),
(576,492,o),
(576,312,cs),
(576,125,o),
(535,-1,o),
(406,-1,cs)
);
}
);
width = 797;
}
);
metricLeft = O;
metricWidth = O;
note = Q;
unicode = 81;
},
{
color = 3;
glyphname = R;
kernLeft = H;
kernRight = R;
lastChange = "2024-10-18 09:19:06 +0000";
layers = (
{
anchors = (
{
name = bottom;
pos = (341,0);
},
{
name = top;
pos = (283,629);
}
);
background = {
shapes = (
{
closed = 1;
nodes = (
(528,-12,o),
(557,-9,o),
(603,-2,c),
(603,23,l),
(532,23,o),
(515,29,o),
(455,118,cs),
(415,177,o),
(374,235,o),
(330,294,c),
(409,344,o),
(438,384,o),
(438,441,cs),
(438,535,o),
(351,587,o),
(239,587,cs),
(222,587,o),
(121,583,o),
(39,574,c),
(39,549,l),
(94,549,o),
(111,549,o),
(111,491,cs),
(111,80,ls),
(111,28,o),
(96,22,o),
(56,22,cs),
(40,22,l),
(40,-3,l),
(86,-1,o),
(134,0,o),
(157,0,cs),
(181,0,o),
(229,-2,o),
(265,-3,c),
(265,22,l),
(247,22,ls),
(200,22,o),
(184,24,o),
(184,80,cs),
(184,268,l),
(198,270,o),
(215,271,o),
(226,271,cs),
(279,271,o),
(311,206,o),
(346,139,cs),
(383,64,o),
(426,-12,o),
(505,-12,cs)
);
},
{
closed = 1;
nodes = (
(219,296,o),
(202,297,o),
(184,300,c),
(184,560,l),
(201,563,o),
(215,564,o),
(224,564,cs),
(310,564,o),
(355,508,o),
(355,420,cs),
(355,333,o),
(316,296,o),
(234,296,cs)
);
}
);
};
hints = (
{
horizontal = 1;
origin = (0,43);
target = (1,12);
type = Stem;
},
{
horizontal = 1;
origin = (0,34);
target = (0,36);
type = Stem;
},
{
origin = (0,23);
target = (1,3);
type = Stem;
},
{
origin = (1,9);
target = (0,12);
type = Stem;
},
{
horizontal = 1;
origin = (0,15);
target = (1,6);
type = Stem;
}
);
layerId = "C56BE457-17E3-437C-A42F-4BD1DE972727";
shapes = (
{
closed = 1;
nodes = (
(570,-13,o),
(601,-10,o),
(651,-2,c),
(651,25,l),
(574,25,o),
(556,31,o),
(494,123,cs),
(448,191,o),
(406,254,o),
(356,318,c),
(441,372,o),
(473,415,o),
(473,476,cs),
(473,578,o),
(379,634,o),
(258,634,cs),
(238,634,o),
(124,630,o),
(36,620,c),
(36,593,l),
(95,593,o),
(113,593,o),
(113,530,cs),
(113,86,ls),
(113,30,o),
(97,24,o),
(54,24,cs),
(37,24,l),
(37,-3,l),
(86,-1,o),
(138,0,o),
(169,0,cs),
(195,0,o),
(247,-2,o),
(286,-3,c),
(286,24,l),
(266,24,ls),
(216,24,o),
(198,26,o),
(198,86,cs),
(198,289,l),
(213,292,o),
(232,293,o),
(244,293,cs),
(300,293,o),
(332,222,o),
(382,135,cs),
(429,51,o),
(473,-13,o),
(545,-13,cs)
);
},
{
closed = 1;
nodes = (
(236,320,o),
(218,321,o),
(198,324,c),
(198,605,l),
(217,608,o),
(232,609,o),
(241,609,cs),
(332,609,o),
(380,549,o),
(380,454,cs),
(380,360,o),
(339,320,o),
(252,320,cs)
);
}
);
width = 640;
},
{
anchors = (
{
name = bottom;
pos = (382,0);
},
{
name = top;
pos = (309,629);
}
);
background = {
shapes = (
{
closed = 1;
nodes = (
(623,-8,o),
(660,-3,o),
(688,6,c),
(688,27,l),
(645,27,o),
(588,63,o),
(563,98,cs),
(518,163,o),
(463,237,o),
(403,306,c),
(470,342,o),
(509,390,o),
(509,459,cs),
(509,583,o),
(378,589,o),
(268,589,cs),
(157,589,o),
(82,579,o),
(0,578,c),
(0,553,l),
(57,551,o),
(90,547,o),
(90,499,cs),
(90,64,ls),
(90,18,o),
(39,24,o),
(-11,24,cs),
(3,24,l),
(3,-3,l),
(83,-1,o),
(69,0,o),
(126,0,cs),
(168,0,o),
(246,0,o),
(308,-3,c),
(308,24,l),
(324,24,ls),
(211,24,o),
(233,62,o),
(233,108,cs),
(233,260,l),
(241,260,o),
(256,263,o),
(267,263,cs),
(287,265,o),
(285,296,o),
(353,177,cs),
(461,-13,o),
(481,-8,o),
(568,-8,cs)
);
},
{
closed = 1;
nodes = (
(244,312,o),
(237,313,o),
(233,312,c),
(233,538,l),
(240,539,o),
(252,540,o),
(263,540,cs),
(317,540,o),
(352,498,o),
(352,430,cs),
(352,379,o),
(351,312,o),
(263,312,cs)
);
}
);
};
layerId = "3B95F746-F211-4218-A5C8-A7CCC072D238";
shapes = (
{
closed = 1;
nodes = (
(658,-11,o),
(686,-6,o),
(729,2,c),
(729,34,l),
(674,34,o),
(642,56,o),
(598,118,cs),
(549,189,o),
(492,279,o),
(438,327,c),
(516,377,o),
(551,419,o),
(551,486,cs),
(551,604,o),
(423,635,o),
(295,635,cs),
(220,635,o),
(99,627,o),
(11,622,c),
(11,590,l),
(71,589,o),
(98,587,o),
(98,529,cs),
(98,77,ls),
(98,29,o),
(63,29,o),
(14,29,c),
(13,29,l),
(13,-3,l),
(81,-1,o),
(99,0,o),
(174,0,cs),
(210,0,o),
(283,-1,o),
(336,-3,c),
(336,29,l),
(335,29,l),
(251,29,o),
(255,51,o),
(255,101,cs),
(255,285,l),
(266,286,o),
(276,288,o),
(287,288,cs),
(319,289,o),
(334,271,o),
(404,147,cs),
(478,18,o),
(528,-11,o),
(611,-11,cs)
);
},
{
closed = 1;
nodes = (
(276,328,o),
(266,329,o),
(255,330,c),
(255,585,l),
(267,587,o),
(274,588,o),
(284,588,cs),
(351,588,o),
(389,538,o),
(389,459,cs),
(389,384,o),
(369,328,o),
(289,328,cs)
);
}
);
width = 718;
},
{
anchors = (
{
name = bottom;
pos = (327,0);
},
{
name = top;
pos = (269,629);
}
);
layerId = "D1413726-767D-4628-9B63-3A1C0748A050";
shapes = (
{
closed = 1;
nodes = (
(564,-13,o),
(595,-10,o),
(645,0,c),
(645,10,l),
(568,10,o),
(555,24,o),
(485,127,cs),
(442,191,o),
(406,260,o),
(350,323,c),
(435,372,o),
(467,415,o),
(467,476,cs),
(467,578,o),
(373,634,o),
(252,634,cs),
(233,634,o),
(124,630,o),
(36,620,c),
(36,609,l),
(95,609,o),
(113,609,o),
(113,547,cs),
(113,70,ls),
(113,14,o),
(97,8,o),
(54,8,cs),
(37,8,l),
(37,-3,l),
(86,-1,o),
(138,0,o),
(163,0,cs),
(189,0,o),
(241,-2,o),
(280,-3,c),
(280,8,l),
(260,8,ls),
(210,8,o),
(192,10,o),
(192,70,cs),
(192,298,l),
(207,300,o),
(222,301,o),
(238,301,cs),
(295,301,o),
(327,226,o),
(367,150,cs),
(407,69,o),
(454,-13,o),
(539,-13,cs)
);
},
{
closed = 1;
nodes = (
(230,312,o),
(212,313,o),
(192,316,c),
(192,618,l),
(214,621,o),
(226,622,o),
(235,622,cs),
(328,622,o),
(377,556,o),
(377,454,cs),
(377,354,o),
(335,312,o),
(246,312,cs)
);
}
);
width = 638;
},
{
anchors = (
{
name = bottom;
pos = (389,0);
},
{
name = top;
pos = (329,629);
}
);
layerId = "E7B116FE-7576-4B50-8DFF-8E55DA3EEB52";
shapes = (
{
closed = 1;
nodes = (
(672,-11,o),
(711,-6,o),
(754,2,c),
(754,14,l),
(697,14,o),
(669,41,o),
(618,116,cs),
(571,184,o),
(516,263,o),
(457,323,c),
(541,365,o),
(579,418,o),
(579,486,cs),
(579,604,o),
(450,635,o),
(320,635,cs),
(242,635,o),
(112,627,o),
(13,622,c),
(13,609,l),
(81,608,o),
(111,606,o),
(111,549,cs),
(111,64,ls),
(111,11,o),
(71,11,o),
(16,11,c),
(15,11,l),
(15,-3,l),
(89,-1,o),
(108,0,o),
(177,0,cs),
(234,0,o),
(302,-1,o),
(355,-3,c),
(355,11,l),
(354,11,l),
(268,11,o),
(271,32,o),
(271,87,cs),
(271,293,l),
(283,295,o),
(294,296,o),
(306,296,cs),
(336,297,o),
(348,267,o),
(413,152,cs),
(492,12,o),
(536,-11,o),
(625,-11,cs)
);
},
{
closed = 1;
nodes = (
(301,313,o),
(283,314,o),
(271,315,c),
(271,615,l),
(284,617,o),
(298,618,o),
(309,618,cs),
(370,618,o),
(406,554,o),
(406,459,cs),
(406,376,o),
(389,313,o),
(314,313,cs)
);
}
);
width = 738;
}
);
metricLeft = H;
note = R;
unicode = 82;
},
{
color = 3;
glyphname = S;
kernLeft = S;
kernRight = S;
lastChange = "2024-10-18 09:19:06 +0000";
layers = (
{
anchors = (
{
name = bottom;
pos = (229,0);
},
{
name = top;
pos = (249,629);
}
);
hints = (
{
origin = (0,26);
target = (0,8);
type = Stem;
},
{
origin = (0,32);
target = (0,2);
type = Stem;
},
{
horizontal = 1;
origin = (0,47);
target = (0,35);
type = Stem;
},
{
horizontal = 1;
origin = (0,23);
target = (0,11);
type = Stem;
}
);
layerId = "C56BE457-17E3-437C-A42F-4BD1DE972727";
shapes = (
{
closed = 1;
nodes = (
(358,-11,o),
(447,68,o),
(447,175,cs),
(447,274,o),
(370,324,o),
(291,363,cs),
(210,403,o),
(126,438,o),
(126,514,cs),
(126,573,o),
(180,616,o),
(259,616,cs),
(343,616,o),
(391,575,o),
(397,490,c),
(420,490,l),
(416,626,l),
(399,626,l),
(392,623,o),
(386,622,o),
(378,622,cs),
(351,622,o),
(310,639,o),
(255,639,cs),
(142,639,o),
(62,576,o),
(62,480,cs),
(62,376,o),
(154,334,o),
(242,291,cs),
(322,252,o),
(384,213,o),
(384,137,cs),
(384,63,o),
(322,13,o),
(231,13,cs),
(146,13,o),
(93,57,o),
(64,143,c),
(40,135,l),
(65,-3,l),
(83,-3,l),
(91,1,o),
(99,5,o),
(110,5,cs),
(130,5,o),
(173,-11,o),
(233,-11,cs)
);
}
);
width = 497;
},
{
anchors = (
{
name = bottom;
pos = (254,0);
},
{
name = top;
pos = (274,629);
}
);
background = {
shapes = (
{
closed = 1;
nodes = (
(379,-10,o),
(462,57,o),
(462,172,cs),
(462,276,o),
(405,333,o),
(303,379,cs),
(193,429,o),
(162,444,o),
(162,496,cs),
(162,543,o),
(199,572,o),
(254,572,cs),
(296,572,o),
(366,556,o),
(402,452,c),
(425,452,l),
(425,592,l),
(395,592,l),
(395,583,o),
(391,580,o),
(384,580,cs),
(341,580,o),
(309,606,o),
(226,606,cs),
(117,606,o),
(49,543,o),
(49,448,cs),
(49,370,o),
(103,306,o),
(214,252,cs),
(316,203,o),
(352,184,o),
(352,131,cs),
(352,68,o),
(302,24,o),
(228,24,cs),
(151,24,o),
(70,59,o),
(41,136,c),
(23,133,l),
(52,-3,l),
(79,-3,l),
(86,7,o),
(92,11,o),
(102,11,cs),
(130,11,o),
(170,-10,o),
(242,-10,cs)
);
}
);
};
layerId = "3B95F746-F211-4218-A5C8-A7CCC072D238";
shapes = (
{
closed = 1;
nodes = (
(402,-11,o),
(498,67,o),
(498,192,cs),
(498,298,o),
(425,357,o),
(316,404,cs),
(235,439,o),
(190,468,o),
(190,521,cs),
(190,574,o),
(229,600,o),
(284,600,cs),
(354,600,o),
(411,575,o),
(434,478,c),
(467,478,l),
(465,633,l),
(440,633,l),
(437,626,o),
(432,624,o),
(424,624,cs),
(384,624,o),
(351,641,o),
(274,641,cs),
(144,641,o),
(62,575,o),
(62,475,cs),
(62,379,o),
(131,316,o),
(230,272,cs),
(327,229,o),
(372,199,o),
(372,136,cs),
(372,69,o),
(321,30,o),
(245,30,cs),
(161,30,o),
(104,68,o),
(73,156,c),
(40,150,l),
(68,-3,l),
(92,-3,l),
(99,4,o),
(107,9,o),
(118,9,cs),
(143,9,o),
(186,-11,o),
(255,-11,cs)
);
}
);
width = 543;
},
{
anchors = (
{
name = bottom;
pos = (228,-10);
},
{
name = top;
pos = (248,629);
}
);
layerId = "D1413726-767D-4628-9B63-3A1C0748A050";
shapes = (
{
closed = 1;
nodes = (
(357,-12,o),
(446,68,o),
(446,175,cs),
(446,279,o),
(364,326,o),
(282,366,cs),
(203,406,o),
(122,439,o),
(122,512,cs),
(122,580,o),
(175,626,o),
(260,626,cs),
(349,626,o),
(402,584,o),
(408,495,c),
(419,495,l),
(415,625,l),
(406,625,l),
(398,621,o),
(392,620,o),
(385,620,cs),
(357,620,o),
(312,638,o),
(254,638,cs),
(141,638,o),
(61,574,o),
(61,478,cs),
(61,380,o),
(146,337,o),
(229,294,cs),
(309,254,o),
(386,217,o),
(386,137,cs),
(386,54,o),
(323,0,o),
(230,0,cs),
(142,0,o),
(80,43,o),
(51,133,c),
(40,130,l),
(64,-4,l),
(74,-4,l),
(77,0,o),
(85,4,o),
(96,4,cs),
(121,4,o),
(169,-12,o),
(232,-12,cs)
);
}
);
width = 496;
},
{
anchors = (
{
name = bottom;
pos = (241,0);
},
{
name = top;
pos = (271,629);
}
);
background = {
shapes = (
{
closed = 1;
nodes = (
(395,-11,o),
(491,67,o),
(491,192,cs),
(491,298,o),
(418,357,o),
(309,404,cs),
(228,439,o),
(183,468,o),
(183,527,cs),
(183,574,o),
(222,600,o),
(277,600,cs),
(347,600,o),
(404,575,o),
(427,478,c),
(460,478,l),
(458,633,l),
(433,633,l),
(430,626,o),
(425,624,o),
(417,624,cs),
(377,624,o),
(344,641,o),
(267,641,cs),
(137,641,o),
(55,575,o),
(55,475,cs),
(55,379,o),
(124,316,o),
(223,272,cs),
(320,229,o),
(365,199,o),
(365,141,cs),
(365,69,o),
(314,30,o),
(238,30,cs),
(154,30,o),
(97,68,o),
(66,156,c),
(33,150,l),
(61,-3,l),
(85,-3,l),
(92,4,o),
(100,9,o),
(111,9,cs),
(136,9,o),
(179,-11,o),
(248,-11,cs)
);
}
);
};
layerId = "E7B116FE-7576-4B50-8DFF-8E55DA3EEB52";
shapes = (
{
closed = 1;
nodes = (
(401,-11,o),
(496,67,o),
(496,186,cs),
(496,294,o),
(426,351,o),
(327,396,cs),
(237,439,o),
(186,467,o),
(186,530,cs),
(186,587,o),
(224,622,o),
(286,622,cs),
(350,622,o),
(423,590,o),
(444,481,c),
(458,481,l),
(456,625,l),
(444,625,l),
(440,619,o),
(434,616,o),
(426,616,cs),
(390,616,o),
(345,639,o),
(274,639,cs),
(145,639,o),
(60,574,o),
(60,476,cs),
(60,382,o),
(128,323,o),
(230,273,cs),
(321,229,o),
(370,198,o),
(370,134,cs),
(370,67,o),
(326,6,o),
(251,6,cs),
(160,6,o),
(85,51,o),
(54,145,c),
(40,143,l),
(69,-3,l),
(81,-3,l),
(89,4,o),
(96,9,o),
(107,9,cs),
(134,9,o),
(181,-11,o),
(256,-11,cs)
);
}
);
width = 541;
}
);
note = S;
unicode = 83;
},
{
color = 3;
glyphname = Germandbls;
kernLeft = H;
kernRight = S;
lastChange = "2024-08-03 15:26:50 +0000";
layers = (
{
layerId = "C56BE457-17E3-437C-A42F-4BD1DE972727";
shapes = (
{
closed = 1;
nodes = (
(509,-11,o),
(585,57,o),
(585,163,cs),
(585,262,o),
(529,321,o),
(397,387,c),
(540,609,l),
(540,629,l),
(156,629,ls),
(132,629,o),
(82,630,o),
(36,632,c),
(36,605,l),
(38,605,ls),
(102,605,o),
(114,602,o),
(114,541,cs),
(114,93,ls),
(114,30,o),
(105,24,o),
(41,24,cs),
(37,24,l),
(37,-3,l),
(80,-1,o),
(97,0,o),
(139,0,cs),
(153,0,o),
(190,-1,o),
(204,-3,c),
(202,28,o),
(199,119,o),
(199,150,cs),
(199,599,l),
(456,599,l),
(310,364,l),
(310,342,l),
(454,280,o),
(510,215,o),
(510,142,cs),
(510,68,o),
(465,13,o),
(400,13,cs),
(337,13,o),
(297,50,o),
(275,123,c),
(256,115,l),
(266,-3,l),
(281,-3,l),
(287,1,o),
(294,5,o),
(303,5,cs),
(319,5,o),
(353,-11,o),
(402,-11,cs)
);
}
);
width = 628;
},
{
layerId = "3B95F746-F211-4218-A5C8-A7CCC072D238";
shapes = (
{
closed = 1;
nodes = (
(609,-11,o),
(689,67,o),
(689,186,cs),
(689,298,o),
(613,352,o),
(520,401,c),
(643,619,l),
(643,629,l),
(201,629,ls),
(156,629,o),
(78,630,o),
(12,632,c),
(12,600,l),
(21,600,ls),
(57,600,o),
(99,597,o),
(99,548,cs),
(99,83,ls),
(99,29,o),
(44,29,o),
(28,29,cs),
(11,29,l),
(11,-3,l),
(73,-1,o),
(120,0,o),
(149,0,cs),
(174,0,o),
(223,-1,o),
(265,-3,c),
(259,17,o),
(256,99,o),
(256,138,cs),
(256,586,l),
(476,586,l),
(356,371,l),
(356,347,l),
(495,269,o),
(564,220,o),
(564,134,cs),
(564,69,o),
(529,30,o),
(478,30,cs),
(406,30,o),
(357,62,o),
(331,136,c),
(303,130,l),
(327,-3,l),
(347,-3,l),
(353,4,o),
(360,9,o),
(369,9,cs),
(391,9,o),
(427,-11,o),
(486,-11,cs)
);
}
);
width = 737;
},
{
layerId = "D1413726-767D-4628-9B63-3A1C0748A050";
shapes = (
{
closed = 1;
nodes = (
(507,-11,o),
(579,57,o),
(579,163,cs),
(579,253,o),
(523,321,o),
(395,387,c),
(534,625,l),
(534,629,l),
(156,629,ls),
(132,629,o),
(82,630,o),
(36,632,c),
(36,621,l),
(38,621,ls),
(102,621,o),
(114,618,o),
(114,557,cs),
(114,78,ls),
(114,15,o),
(105,8,o),
(41,8,cs),
(37,8,l),
(37,-3,l),
(80,-1,o),
(97,0,o),
(139,0,cs),
(153,0,o),
(184,-1,o),
(198,-3,c),
(196,28,o),
(193,119,o),
(193,150,cs),
(193,611,l),
(454,611,l),
(310,368,l),
(310,354,l),
(464,280,o),
(510,215,o),
(510,142,cs),
(510,59,o),
(467,1,o),
(404,1,cs),
(331,1,o),
(285,34,o),
(259,117,c),
(250,115,l),
(260,-3,l),
(269,-3,l),
(274,1,o),
(280,5,o),
(287,5,cs),
(306,5,o),
(347,-11,o),
(406,-11,cs)
);
}
);
width = 622;
},
{
layerId = "E7B116FE-7576-4B50-8DFF-8E55DA3EEB52";
shapes = (
{
closed = 1;
nodes = (
(609,-11,o),
(689,67,o),
(689,186,cs),
(689,298,o),
(609,352,o),
(516,401,c),
(643,619,l),
(643,629,l),
(201,629,ls),
(141,629,o),
(72,630,o),
(13,632,c),
(13,618,l),
(18,618,l),
(66,618,o),
(107,618,o),
(107,566,cs),
(107,64,ls),
(107,11,o),
(70,11,o),
(24,11,c),
(13,11,l),
(13,-3,l),
(70,-2,o),
(113,0,o),
(175,0,cs),
(206,0,o),
(251,-2,o),
(275,-3,c),
(271,11,o),
(268,60,o),
(268,112,cs),
(268,598,l),
(486,598,l),
(353,371,l),
(353,351,l),
(495,273,o),
(564,220,o),
(564,134,cs),
(564,53,o),
(523,6,o),
(463,6,cs),
(391,6,o),
(343,44,o),
(317,132,c),
(303,130,l),
(327,-3,l),
(347,-3,l),
(353,4,o),
(360,9,o),
(369,9,cs),
(391,9,o),
(427,-11,o),
(486,-11,cs)
);
}
);
width = 734;
}
);
metricLeft = H;
metricRight = B;
unicode = 7838;
},
{
color = 3;
glyphname = T;
kernLeft = T;
kernRight = T;
lastChange = "2024-10-18 09:19:06 +0000";
layers = (
{
anchors = (
{
name = bottom;
pos = (302,0);
},
{
name = center;
pos = (302,315);
},
{
name = top;
pos = (302,629);
}
);
hints = (
{
horizontal = 1;
origin = (0,38);
target = (0,37);
type = Stem;
},
{
horizontal = 1;
origin = (0,22);
target = (0,32);
type = Stem;
},
{
origin = (0,33);
target = (0,11);
type = Stem;
}
);
layerId = "C56BE457-17E3-437C-A42F-4BD1DE972727";
shapes = (
{
closed = 1;
nodes = (
(221,-1,o),
(271,0,o),
(298,0,cs),
(334,0,o),
(373,-3,o),
(423,-3,c),
(423,25,l),
(401,25,ls),
(359,25,o),
(344,31,o),
(344,86,cs),
(344,598,l),
(501,598,ls),
(549,598,o),
(557,577,o),
(563,496,c),
(589,496,l),
(586,644,l),
(573,644,l),
(558,632,o),
(545,629,o),
(527,629,cs),
(77,629,ls),
(58,629,o),
(44,632,o),
(30,644,c),
(17,644,l),
(14,496,l),
(40,496,l),
(46,576,o),
(54,598,o),
(103,598,cs),
(259,598,l),
(259,86,ls),
(259,29,o),
(242,25,o),
(194,25,cs),
(173,25,l),
(173,-3,l)
);
}
);
width = 603;
},
{
anchors = (
{
name = bottom;
pos = (325,0);
},
{
name = center;
pos = (325,315);
},
{
name = top;
pos = (325,629);
}
);
background = {
shapes = (
{
closed = 1;
nodes = (
(214,-3,o),
(258,0,o),
(282,0,cs),
(315,0,o),
(433,-1,o),
(467,-3,c),
(467,23,l),
(477,23,ls),
(420,23,o),
(374,23,o),
(374,64,cs),
(374,542,l),
(481,542,ls),
(562,542,o),
(579,498,o),
(585,449,c),
(613,449,l),
(610,596,l),
(592,596,l),
(578,589,o),
(574,582,o),
(561,582,cs),
(44,582,ls),
(33,582,o),
(20,587,o),
(11,596,c),
(-7,596,l),
(-10,449,l),
(18,449,l),
(24,501,o),
(37,542,o),
(122,542,cs),
(229,542,l),
(229,64,ls),
(229,21,o),
(189,23,o),
(133,23,cs),
(149,23,l),
(149,-3,l)
);
}
);
};
layerId = "3B95F746-F211-4218-A5C8-A7CCC072D238";
shapes = (
{
closed = 1;
nodes = (
(213,-2,o),
(286,0,o),
(313,0,cs),
(348,0,o),
(461,-2,o),
(504,-3,c),
(504,29,l),
(488,29,l),
(436,29,o),
(404,32,o),
(404,82,cs),
(404,585,l),
(529,585,ls),
(597,585,o),
(606,551,o),
(612,484,c),
(645,484,l),
(642,644,l),
(625,644,l),
(610,634,o),
(602,629,o),
(585,629,cs),
(66,629,ls),
(51,629,o),
(37,633,o),
(25,644,c),
(9,644,l),
(5,484,l),
(38,484,l),
(44,552,o),
(51,585,o),
(121,585,cs),
(246,585,l),
(246,82,ls),
(246,30,o),
(212,29,o),
(151,29,c),
(149,29,l),
(149,-3,l)
);
}
);
width = 650;
},
{
anchors = (
{
name = bottom;
pos = (310,0);
},
{
name = center;
pos = (310,315);
},
{
name = top;
pos = (310,629);
}
);
layerId = "D1413726-767D-4628-9B63-3A1C0748A050";
shapes = (
{
closed = 1;
nodes = (
(232,-1,o),
(282,0,o),
(306,0,cs),
(339,0,o),
(378,-3,o),
(428,-3,c),
(428,8,l),
(406,8,ls),
(364,8,o),
(349,14,o),
(349,69,cs),
(349,611,l),
(515,611,ls),
(564,611,o),
(577,593,o),
(583,512,c),
(594,512,l),
(591,644,l),
(589,644,l),
(570,632,o),
(554,629,o),
(531,629,cs),
(87,629,ls),
(65,629,o),
(48,632,o),
(30,644,c),
(28,644,l),
(25,512,l),
(36,512,l),
(43,592,o),
(50,611,o),
(104,611,cs),
(270,611,l),
(270,69,ls),
(270,12,o),
(253,8,o),
(205,8,cs),
(184,8,l),
(184,-3,l)
);
}
);
width = 619;
},
{
anchors = (
{
name = bottom;
pos = (322,0);
},
{
name = center;
pos = (322,315);
},
{
name = top;
pos = (322,629);
}
);
layerId = "E7B116FE-7576-4B50-8DFF-8E55DA3EEB52";
shapes = (
{
closed = 1;
nodes = (
(207,-2,o),
(260,0,o),
(287,0,cs),
(324,0,o),
(457,-2,o),
(502,-3,c),
(502,11,l),
(497,11,l),
(438,11,o),
(402,14,o),
(402,64,cs),
(402,598,l),
(521,598,ls),
(598,598,o),
(611,563,o),
(618,496,c),
(632,496,l),
(629,644,l),
(616,644,l),
(600,634,o),
(592,629,o),
(566,629,cs),
(78,629,ls),
(59,629,o),
(42,633,o),
(27,644,c),
(14,644,l),
(11,496,l),
(25,496,l),
(31,564,o),
(44,598,o),
(122,598,cs),
(241,598,l),
(241,64,ls),
(241,12,o),
(206,11,o),
(146,11,c),
(144,11,l),
(144,-3,l)
);
}
);
width = 643;
}
);
note = T;
unicode = 84;
},
{
color = 3;
glyphname = Tbar;
kernLeft = T;
kernRight = T;
lastChange = "2024-08-24 15:02:40 +0000";
layers = (
{
layerId = "C56BE457-17E3-437C-A42F-4BD1DE972727";
shapes = (
{
closed = 1;
nodes = (
(480,301,l),
(480,328,l),
(118,328,l),
(118,301,l)
);
},
{
ref = T;
}
);
width = 597;
},
{
layerId = "3B95F746-F211-4218-A5C8-A7CCC072D238";
shapes = (
{
closed = 1;
nodes = (
(531,301,l),
(531,338,l),
(119,338,l),
(119,301,l)
);
},
{
ref = T;
}
);
width = 650;
},
{
layerId = "D1413726-767D-4628-9B63-3A1C0748A050";
shapes = (
{
closed = 1;
nodes = (
(491,301,l),
(491,318,l),
(129,318,l),
(129,301,l)
);
},
{
ref = T;
}
);
width = 619;
},
{
layerId = "E7B116FE-7576-4B50-8DFF-8E55DA3EEB52";
shapes = (
{
closed = 1;
nodes = (
(530,301,l),
(530,328,l),
(118,328,l),
(118,301,l)
);
},
{
ref = T;
}
);
width = 643;
}
);
unicode = 358;
},
{
color = 3;
glyphname = U;
kernLeft = U;
kernRight = U;
lastChange = "2024-10-18 09:19:06 +0000";
layers = (
{
anchors = (
{
name = bottom;
pos = (359,0);
},
{
name = ogonek;
pos = (518,10);
},
{
name = top;
pos = (379,629);
},
{
name = topright;
pos = (698,629);
}
);
hints = (
{
horizontal = 1;
origin = (0,47);
target = (0,23);
type = Stem;
},
{
horizontal = 1;
origin = (0,38);
target = (0,40);
type = Stem;
},
{
origin = (0,44);
target = (0,27);
type = Stem;
},
{
origin = (0,20);
target = (0,3);
type = Stem;
}
);
layerId = "C56BE457-17E3-437C-A42F-4BD1DE972727";
shapes = (
{
closed = 1;
nodes = (
(543,-13,o),
(599,94,o),
(599,189,cs),
(599,542,ls),
(599,605,o),
(619,605,o),
(671,605,cs),
(686,605,l),
(686,632,l),
(664,632,o),
(619,629,o),
(579,629,cs),
(543,629,o),
(504,631,o),
(478,632,c),
(478,605,l),
(497,605,ls),
(541,605,o),
(557,599,o),
(557,542,cs),
(557,174,ls),
(557,72,o),
(499,21,o),
(388,21,cs),
(248,21,o),
(196,96,o),
(196,185,cs),
(196,542,ls),
(196,605,o),
(217,605,o),
(268,605,cs),
(282,605,l),
(282,632,l),
(234,630,o),
(184,629,o),
(154,629,cs),
(118,629,o),
(86,631,o),
(32,632,c),
(32,605,l),
(51,605,ls),
(95,605,o),
(111,599,o),
(111,542,cs),
(111,178,ls),
(111,83,o),
(182,-13,o),
(355,-13,cs)
);
}
);
width = 718;
},
{
anchors = (
{
name = bottom;
pos = (377,0);
},
{
name = ogonek;
pos = (564,10);
},
{
name = top;
pos = (407,629);
},
{
name = topright;
pos = (733,629);
}
);
background = {
shapes = (
{
closed = 1;
nodes = (
(507,-10,o),
(609,25,o),
(609,229,cs),
(609,524,ls),
(609,560,o),
(753,560,o),
(707,560,cs),
(695,560,l),
(695,585,l),
(615,585,o),
(621,582,o),
(594,582,cs),
(585,582,o),
(481,586,o),
(447,585,c),
(447,560,l),
(432,560,ls),
(361,560,o),
(536,565,o),
(536,498,cs),
(536,185,ls),
(536,119,o),
(519,33,o),
(365,33,cs),
(267,33,o),
(226,49,o),
(226,191,cs),
(226,520,ls),
(226,560,o),
(353,560,o),
(315,560,cs),
(304,560,l),
(304,585,l),
(241,587,o),
(221,582,o),
(173,582,cs),
(143,582,o),
(46,586,o),
(-2,585,c),
(-2,560,l),
(-17,560,ls),
(-66,560,o),
(81,565,o),
(81,520,cs),
(81,203,ls),
(81,41,o),
(190,-10,o),
(341,-10,cs)
);
}
);
};
layerId = "3B95F746-F211-4218-A5C8-A7CCC072D238";
shapes = (
{
closed = 1;
nodes = (
(555,-12,o),
(653,71,o),
(653,218,cs),
(653,550,ls),
(653,600,o),
(691,600,o),
(742,600,c),
(743,600,l),
(743,632,l),
(689,632,o),
(670,629,o),
(635,629,cs),
(611,629,o),
(530,632,o),
(497,632,c),
(497,600,l),
(498,600,l),
(558,600,o),
(584,600,o),
(584,536,cs),
(584,187,ls),
(584,105,o),
(535,36,o),
(395,36,cs),
(294,36,o),
(244,85,o),
(244,206,cs),
(244,547,ls),
(244,600,o),
(282,600,o),
(328,600,c),
(329,600,l),
(329,632,l),
(271,632,o),
(235,629,o),
(165,629,cs),
(131,629,o),
(63,632,o),
(10,632,c),
(10,600,l),
(11,600,l),
(54,600,o),
(85,600,o),
(85,547,cs),
(85,208,ls),
(85,64,o),
(193,-12,o),
(366,-12,cs)
);
}
);
width = 753;
},
{
anchors = (
{
name = bottom;
pos = (359,0);
},
{
name = ogonek;
pos = (512,10);
},
{
name = top;
pos = (379,629);
},
{
name = topright;
pos = (698,629);
}
);
layerId = "D1413726-767D-4628-9B63-3A1C0748A050";
shapes = (
{
closed = 1;
nodes = (
(540,-13,o),
(596,94,o),
(596,189,cs),
(596,558,ls),
(596,621,o),
(617,621,o),
(671,621,cs),
(686,621,l),
(686,632,l),
(664,632,o),
(619,629,o),
(579,629,cs),
(543,629,o),
(504,631,o),
(478,632,c),
(478,621,l),
(497,621,ls),
(544,621,o),
(562,616,o),
(562,558,cs),
(562,174,ls),
(562,67,o),
(500,9,o),
(386,9,cs),
(243,9,o),
(190,93,o),
(190,185,cs),
(190,558,ls),
(190,621,o),
(211,621,o),
(262,621,cs),
(276,621,l),
(276,632,l),
(228,630,o),
(178,629,o),
(154,629,cs),
(118,629,o),
(86,631,o),
(32,632,c),
(32,621,l),
(51,621,ls),
(95,621,o),
(111,616,o),
(111,558,cs),
(111,178,ls),
(111,83,o),
(181,-13,o),
(353,-13,cs)
);
}
);
width = 718;
},
{
anchors = (
{
name = bottom;
pos = (380,0);
},
{
name = ogonek;
pos = (578,10);
},
{
name = top;
pos = (410,629);
},
{
name = topright;
pos = (739,629);
}
);
layerId = "E7B116FE-7576-4B50-8DFF-8E55DA3EEB52";
shapes = (
{
closed = 1;
nodes = (
(564,-12,o),
(653,60,o),
(653,218,cs),
(653,567,ls),
(653,618,o),
(693,618,o),
(746,618,c),
(747,618,l),
(747,632,l),
(693,632,o),
(674,629,o),
(639,629,cs),
(617,629,o),
(541,632,o),
(510,632,c),
(510,618,l),
(511,618,l),
(576,618,o),
(603,618,o),
(603,553,cs),
(603,211,ls),
(603,104,o),
(555,23,o),
(418,23,cs),
(309,23,o),
(257,78,o),
(257,195,cs),
(257,565,ls),
(257,618,o),
(295,618,o),
(341,618,c),
(342,618,l),
(342,632,l),
(284,632,o),
(248,629,o),
(211,629,cs),
(166,629,o),
(76,632,o),
(12,632,c),
(12,618,l),
(13,618,l),
(62,618,o),
(96,618,o),
(96,565,cs),
(96,199,ls),
(96,64,o),
(209,-12,o),
(389,-12,cs)
);
}
);
width = 759;
}
);
metricLeft = "=H*.9";
metricRight = "=H*.9";
note = U;
unicode = 85;
},
{
color = 3;
glyphname = Uhorn;
lastChange = "2024-06-25 16:38:29 +0000";
layers = (
{
anchors = (
{
name = bottom;
pos = (375,0);
},
{
name = top;
pos = (375,629);
}
);
layerId = "C56BE457-17E3-437C-A42F-4BD1DE972727";
shapes = (
{
closed = 1;
nodes = (
(543,-13,o),
(599,94,o),
(599,189,cs),
(599,629,l),
(563,629,o),
(504,631,o),
(478,632,c),
(478,605,l),
(497,605,ls),
(541,605,o),
(557,599,o),
(557,542,cs),
(557,174,ls),
(557,72,o),
(499,21,o),
(388,21,cs),
(248,21,o),
(196,96,o),
(196,185,cs),
(196,542,ls),
(196,605,o),
(217,605,o),
(268,605,cs),
(282,605,l),
(282,632,l),
(234,630,o),
(184,629,o),
(154,629,cs),
(118,629,o),
(86,631,o),
(32,632,c),
(32,605,l),
(51,605,ls),
(95,605,o),
(111,599,o),
(111,542,cs),
(111,178,ls),
(111,83,o),
(182,-13,o),
(355,-13,cs)
);
},
{
closed = 1;
nodes = (
(701,429,o),
(749,474,o),
(749,541,cs),
(749,596,o),
(722,636,o),
(684,636,cs),
(659,636,o),
(640,622,o),
(640,595,cs),
(640,545,o),
(702,566,o),
(702,502,cs),
(702,466,o),
(656,451,o),
(594,440,c),
(599,413,l)
);
}
);
width = 749;
},
{
anchors = (
{
name = bottom;
pos = (417,0);
},
{
name = top;
pos = (417,629);
}
);
layerId = "3B95F746-F211-4218-A5C8-A7CCC072D238";
shapes = (
{
closed = 1;
nodes = (
(555,-12,o),
(653,71,o),
(653,218,cs),
(653,629,l),
(629,629,o),
(530,632,o),
(497,632,c),
(497,598,l),
(498,598,l),
(558,598,o),
(584,598,o),
(584,534,cs),
(584,187,ls),
(584,105,o),
(535,36,o),
(395,36,cs),
(294,36,o),
(244,85,o),
(244,206,cs),
(244,545,ls),
(244,598,o),
(282,598,o),
(328,598,c),
(329,598,l),
(329,632,l),
(271,632,o),
(235,629,o),
(165,629,cs),
(131,629,o),
(63,632,o),
(10,632,c),
(10,598,l),
(11,598,l),
(54,598,o),
(85,598,o),
(85,545,cs),
(85,208,ls),
(85,64,o),
(193,-12,o),
(366,-12,cs)
);
},
{
closed = 1;
nodes = (
(762,407,o),
(833,453,o),
(833,536,cs),
(833,597,o),
(801,639,o),
(753,639,cs),
(719,639,o),
(696,618,o),
(696,585,cs),
(696,517,o),
(774,545,o),
(774,488,cs),
(774,454,o),
(724,435,o),
(623,428,c),
(629,400,l)
);
}
);
width = 833;
},
{
anchors = (
{
name = bottom;
pos = (372,0);
},
{
name = top;
pos = (372,629);
}
);
layerId = "D1413726-767D-4628-9B63-3A1C0748A050";
shapes = (
{
closed = 1;
nodes = (
(540,-13,o),
(596,94,o),
(596,189,cs),
(596,629,l),
(560,629,o),
(504,631,o),
(478,632,c),
(478,621,l),
(497,621,ls),
(544,621,o),
(562,616,o),
(562,558,cs),
(562,174,ls),
(562,67,o),
(500,13,o),
(386,13,cs),
(243,13,o),
(190,93,o),
(190,185,cs),
(190,558,ls),
(190,621,o),
(211,621,o),
(262,621,cs),
(276,621,l),
(276,632,l),
(228,630,o),
(178,629,o),
(154,629,cs),
(118,629,o),
(86,631,o),
(32,632,c),
(32,621,l),
(51,621,ls),
(95,621,o),
(111,616,o),
(111,558,cs),
(111,178,ls),
(111,83,o),
(181,-13,o),
(353,-13,cs)
);
},
{
closed = 1;
nodes = (
(679,434,o),
(744,477,o),
(744,544,cs),
(744,599,o),
(717,639,o),
(679,639,cs),
(654,639,o),
(635,624,o),
(635,595,cs),
(635,536,o),
(707,560,o),
(707,505,cs),
(707,463,o),
(651,441,o),
(580,429,c),
(583,418,l)
);
}
);
width = 744;
},
{
anchors = (
{
name = bottom;
pos = (422,0);
},
{
name = top;
pos = (422,629);
}
);
layerId = "E7B116FE-7576-4B50-8DFF-8E55DA3EEB52";
shapes = (
{
closed = 1;
nodes = (
(564,-12,o),
(653,60,o),
(653,218,cs),
(653,629,l),
(631,629,o),
(541,632,o),
(510,632,c),
(510,618,l),
(511,618,l),
(576,618,o),
(603,618,o),
(603,553,cs),
(603,211,ls),
(603,104,o),
(555,23,o),
(418,23,cs),
(309,23,o),
(257,78,o),
(257,195,cs),
(257,565,ls),
(257,618,o),
(295,618,o),
(341,618,c),
(342,618,l),
(342,632,l),
(284,632,o),
(248,629,o),
(211,629,cs),
(166,629,o),
(76,632,o),
(12,632,c),
(12,618,l),
(13,618,l),
(62,618,o),
(96,618,o),
(96,565,cs),
(96,199,ls),
(96,64,o),
(209,-12,o),
(389,-12,cs)
);
},
{
closed = 1;
nodes = (
(757,394,o),
(844,438,o),
(844,524,cs),
(844,591,o),
(811,638,o),
(759,638,cs),
(716,638,o),
(696,602,o),
(696,577,cs),
(696,515,o),
(790,526,o),
(790,474,cs),
(790,443,o),
(742,420,o),
(636,401,c),
(638,379,l)
);
}
);
width = 844;
}
);
unicode = 431;
},
{
color = 3;
glyphname = V;
kernLeft = V;
kernRight = V;
lastChange = "2024-10-18 09:19:06 +0000";
layers = (
{
anchors = (
{
name = bottom;
pos = (300,0);
},
{
name = top;
pos = (300,629);
}
);
hints = (
{
horizontal = 1;
origin = (0,43);
target = up;
type = BottomGhost;
},
{
horizontal = 1;
origin = (0,37);
target = (0,39);
type = Stem;
}
);
layerId = "C56BE457-17E3-437C-A42F-4BD1DE972727";
shapes = (
{
closed = 1;
nodes = (
(314,-13,l),
(505,534,ls),
(523,584,o),
(536,605,o),
(581,605,cs),
(599,605,l),
(599,632,l),
(577,632,o),
(539,629,o),
(509,629,cs),
(472,629,o),
(426,632,o),
(411,632,c),
(411,605,l),
(433,605,ls),
(462,605,o),
(481,598,o),
(481,573,cs),
(481,557,o),
(474,535,o),
(464,507,cs),
(309,63,l),
(339,75,l),
(164,552,ls),
(161,561,o),
(156,573,o),
(156,580,cs),
(156,604,o),
(183,605,o),
(219,605,c),
(220,605,l),
(220,632,l),
(183,631,o),
(146,629,o),
(102,629,cs),
(69,629,o),
(36,631,o),
(0,632,c),
(0,605,l),
(1,605,l),
(58,605,o),
(63,589,o),
(89,519,cs),
(289,-13,l)
);
}
);
width = 599;
},
{
anchors = (
{
name = bottom;
pos = (329,0);
},
{
name = top;
pos = (329,629);
}
);
background = {
shapes = (
{
closed = 1;
nodes = (
(335,-16,l),
(532,442,ls),
(581,555,o),
(714,560,o),
(658,560,cs),
(643,560,l),
(643,585,l),
(610,585,o),
(543,582,o),
(543,582,cs),
(545,582,o),
(468,585,o),
(443,585,c),
(443,560,l),
(425,560,ls),
(388,560,o),
(499,562,o),
(499,511,cs),
(499,480,o),
(488,439,o),
(462,381,cs),
(370,173,l),
(250,417,ls),
(248,421,o),
(223,473,o),
(223,519,cs),
(223,561,o),
(258,560,o),
(275,560,c),
(276,560,l),
(276,585,l),
(206,586,o),
(152,582,o),
(138,582,cs),
(122,582,o),
(33,586,o),
(-38,585,c),
(-38,560,l),
(-21,560,l),
(28,560,o),
(54,506,o),
(84,441,cs),
(296,-16,l)
);
}
);
};
layerId = "3B95F746-F211-4218-A5C8-A7CCC072D238";
shapes = (
{
closed = 1;
nodes = (
(368,-17,l),
(557,458,ls),
(600,565,o),
(620,600,o),
(674,600,c),
(676,600,l),
(676,632,l),
(645,632,o),
(588,629,o),
(572,629,cs),
(555,629,o),
(490,632,o),
(469,632,c),
(469,600,l),
(470,600,l),
(505,600,o),
(534,598,o),
(534,558,cs),
(534,533,o),
(525,500,o),
(507,455,cs),
(386,143,l),
(418,144,l),
(281,493,ls),
(275,509,o),
(262,541,o),
(262,563,cs),
(262,597,o),
(295,600,o),
(322,600,c),
(323,600,l),
(323,632,l),
(291,632,o),
(226,629,o),
(159,629,cs),
(121,629,o),
(56,632,o),
(0,632,c),
(0,600,l),
(10,600,ls),
(65,600,o),
(80,564,o),
(110,493,cs),
(323,-17,l)
);
}
);
width = 676;
},
{
anchors = (
{
name = bottom;
pos = (294,0);
},
{
name = top;
pos = (294,629);
}
);
layerId = "D1413726-767D-4628-9B63-3A1C0748A050";
shapes = (
{
closed = 1;
nodes = (
(314,-13,l),
(505,550,ls),
(522,600,o),
(536,621,o),
(581,621,cs),
(599,621,l),
(599,632,l),
(577,632,o),
(539,629,o),
(509,629,cs),
(478,629,o),
(432,632,o),
(418,632,c),
(418,621,l),
(440,621,ls),
(469,621,o),
(487,615,o),
(487,590,cs),
(487,573,o),
(481,551,o),
(471,523,cs),
(313,56,l),
(336,72,l),
(158,568,ls),
(155,577,o),
(150,590,o),
(150,596,cs),
(150,620,o),
(177,621,o),
(213,621,c),
(214,621,l),
(214,632,l),
(177,631,o),
(140,629,o),
(102,629,cs),
(66,629,o),
(28,631,o),
(-11,632,c),
(-11,621,l),
(-10,621,l),
(55,621,o),
(63,606,o),
(89,536,cs),
(289,-13,l)
);
}
);
width = 588;
},
{
anchors = (
{
name = bottom;
pos = (324,0);
},
{
name = top;
pos = (324,629);
}
);
background = {
shapes = (
{
closed = 1;
nodes = (
(332,-16,l),
(511,422,ls),
(552,521,o),
(570,554,o),
(620,554,c),
(621,554,l),
(621,585,l),
(593,585,o),
(540,582,o),
(525,582,cs),
(509,582,o),
(449,585,o),
(430,585,c),
(430,554,l),
(431,554,l),
(463,554,o),
(490,552,o),
(490,515,cs),
(490,492,o),
(481,461,o),
(464,419,cs),
(361,171,l),
(237,455,ls),
(231,469,o),
(220,499,o),
(220,519,cs),
(220,551,o),
(250,554,o),
(275,554,c),
(276,554,l),
(276,585,l),
(246,585,o),
(186,582,o),
(124,582,cs),
(89,582,o),
(29,585,o),
(-23,585,c),
(-23,554,l),
(-14,554,ls),
(37,554,o),
(50,519,o),
(79,455,cs),
(290,-16,l)
);
}
);
};
layerId = "E7B116FE-7576-4B50-8DFF-8E55DA3EEB52";
shapes = (
{
closed = 1;
nodes = (
(354,-15,l),
(561,518,ls),
(595,605,o),
(614,618,o),
(667,618,c),
(668,618,l),
(668,632,l),
(639,632,o),
(584,629,o),
(569,629,cs),
(552,629,o),
(495,632,o),
(475,632,c),
(475,618,l),
(476,618,l),
(511,618,o),
(540,616,o),
(540,576,cs),
(540,551,o),
(530,517,o),
(512,472,cs),
(383,141,l),
(413,142,l),
(260,514,ls),
(250,538,o),
(242,562,o),
(242,583,cs),
(242,618,o),
(274,618,o),
(301,618,c),
(302,618,l),
(302,632,l),
(246,632,o),
(177,629,o),
(146,629,cs),
(104,629,o),
(45,632,o),
(-11,632,c),
(-11,618,l),
(-1,618,ls),
(41,618,o),
(60,585,o),
(92,511,cs),
(317,-15,l)
);
}
);
width = 657;
}
);
metricLeft = A;
metricRight = "=|";
note = V;
unicode = 86;
},
{
glyphname = uni0194;
kernLeft = V;
kernRight = V;
layers = (
{
layerId = "C56BE457-17E3-437C-A42F-4BD1DE972727";
shapes = (
{
closed = 1;
nodes = (
(354,-188,o),
(389,-136,o),
(389,-73,cs),
(389,-16,o),
(375,32,o),
(327,150,cs),
(164,552,ls),
(160,561,o),
(156,573,o),
(156,580,cs),
(156,604,o),
(183,605,o),
(219,605,c),
(220,605,l),
(220,632,l),
(183,631,o),
(146,629,o),
(102,629,cs),
(69,629,o),
(36,631,o),
(0,632,c),
(0,605,l),
(1,605,l),
(51,605,o),
(60,589,o),
(89,519,cs),
(261,99,ls),
(296,13,o),
(320,-44,o),
(320,-104,cs),
(320,-138,o),
(305,-163,o),
(286,-163,cs),
(267,-163,o),
(253,-148,o),
(253,-107,cs),
(253,-58,o),
(279,-2,o),
(325,108,cs),
(505,534,ls),
(526,584,o),
(536,605,o),
(581,605,cs),
(599,605,l),
(599,632,l),
(577,632,o),
(539,629,o),
(509,629,cs),
(472,629,o),
(426,632,o),
(411,632,c),
(411,605,l),
(433,605,ls),
(462,605,o),
(481,598,o),
(481,573,cs),
(481,557,o),
(476,535,o),
(464,507,cs),
(305,126,ls),
(255,6,o),
(225,-55,o),
(225,-109,cs),
(225,-163,o),
(253,-188,o),
(293,-188,cs)
);
}
);
width = 599;
},
{
layerId = "3B95F746-F211-4218-A5C8-A7CCC072D238";
shapes = (
{
closed = 1;
nodes = (
(419,-188,o),
(481,-136,o),
(481,-28,cs),
(481,13,o),
(477,69,o),
(415,204,cs),
(281,493,ls),
(274,509,o),
(262,541,o),
(262,563,cs),
(262,597,o),
(295,600,o),
(322,600,c),
(323,600,l),
(323,632,l),
(291,632,o),
(226,629,o),
(159,629,cs),
(121,629,o),
(56,632,o),
(0,632,c),
(0,600,l),
(10,600,ls),
(65,600,o),
(78,573,o),
(110,503,cs),
(300,95,ls),
(340,9,o),
(352,-56,o),
(352,-96,cs),
(352,-125,o),
(345,-144,o),
(327,-144,cs),
(312,-144,o),
(293,-128,o),
(293,-84,cs),
(293,-28,o),
(332,42,o),
(402,177,cs),
(557,478,ls),
(610,581,o),
(620,600,o),
(674,600,c),
(676,600,l),
(676,632,l),
(645,632,o),
(588,629,o),
(572,629,cs),
(555,629,o),
(490,632,o),
(469,632,c),
(469,600,l),
(470,600,l),
(505,600,o),
(534,598,o),
(534,558,cs),
(534,533,o),
(530,519,o),
(507,475,cs),
(383,240,ls),
(306,93,o),
(247,-11,o),
(247,-87,cs),
(247,-153,o),
(276,-188,o),
(341,-188,cs)
);
}
);
width = 676;
},
{
layerId = "D1413726-767D-4628-9B63-3A1C0748A050";
shapes = (
{
closed = 1;
nodes = (
(354,-188,o),
(389,-136,o),
(389,-73,cs),
(389,-16,o),
(374,29,o),
(327,147,cs),
(158,568,ls),
(154,577,o),
(150,590,o),
(150,596,cs),
(150,620,o),
(177,621,o),
(213,621,c),
(214,621,l),
(214,632,l),
(177,631,o),
(140,629,o),
(102,629,cs),
(66,629,o),
(28,631,o),
(-11,632,c),
(-11,621,l),
(-10,621,l),
(55,621,o),
(61,606,o),
(89,536,cs),
(261,104,ls),
(295,18,o),
(320,-44,o),
(320,-104,cs),
(320,-138,o),
(305,-163,o),
(286,-163,cs),
(267,-163,o),
(253,-148,o),
(253,-107,cs),
(253,-58,o),
(279,-2,o),
(314,84,cs),
(505,550,ls),
(525,600,o),
(536,621,o),
(581,621,cs),
(599,621,l),
(599,632,l),
(577,632,o),
(539,629,o),
(509,629,cs),
(478,629,o),
(432,632,o),
(418,632,c),
(418,621,l),
(440,621,ls),
(469,621,o),
(487,615,o),
(487,590,cs),
(487,573,o),
(483,557,o),
(471,529,cs),
(305,126,ls),
(255,6,o),
(225,-55,o),
(225,-109,cs),
(225,-163,o),
(253,-188,o),
(293,-188,cs)
);
}
);
width = 588;
},
{
layerId = "E7B116FE-7576-4B50-8DFF-8E55DA3EEB52";
shapes = (
{
closed = 1;
nodes = (
(408,-188,o),
(470,-136,o),
(470,-28,cs),
(470,13,o),
(463,68,o),
(404,204,cs),
(270,511,ls),
(263,527,o),
(251,559,o),
(251,581,cs),
(251,615,o),
(284,618,o),
(311,618,c),
(312,618,l),
(312,632,l),
(280,632,o),
(215,629,o),
(148,629,cs),
(110,629,o),
(45,632,o),
(-11,632,c),
(-11,618,l),
(-1,618,ls),
(54,618,o),
(68,591,o),
(99,521,cs),
(289,95,ls),
(328,8,o),
(341,-56,o),
(341,-96,cs),
(341,-134,o),
(334,-159,o),
(316,-159,cs),
(299,-159,o),
(278,-139,o),
(278,-89,cs),
(278,-26,o),
(313,47,o),
(389,204,cs),
(535,505,ls),
(583,605,o),
(603,618,o),
(663,618,c),
(665,618,l),
(665,632,l),
(634,632,o),
(577,629,o),
(561,629,cs),
(544,629,o),
(479,632,o),
(458,632,c),
(458,618,l),
(459,618,l),
(494,618,o),
(523,616,o),
(523,576,cs),
(523,551,o),
(518,538,o),
(496,493,cs),
(372,240,ls),
(300,93,o),
(245,-11,o),
(245,-92,cs),
(245,-155,o),
(273,-188,o),
(338,-188,cs)
);
}
);
width = 654;
}
);
metricLeft = V;
metricRight = V;
unicode = 404;
},
{
color = 3;
glyphname = Vhook;
lastChange = "2024-06-25 22:45:51 +0000";
layers = (
{
layerId = "C56BE457-17E3-437C-A42F-4BD1DE972727";
shapes = (
{
closed = 1;
nodes = (
(543,-13,o),
(599,94,o),
(599,189,cs),
(599,437,ls),
(599,547,o),
(572,637,o),
(458,637,cs),
(411,637,o),
(381,624,o),
(381,602,cs),
(381,583,o),
(394,569,o),
(413,569,cs),
(441,569,o),
(458,614,o),
(488,614,cs),
(529,614,o),
(557,560,o),
(557,502,cs),
(557,174,ls),
(557,72,o),
(499,21,o),
(388,21,cs),
(248,21,o),
(196,96,o),
(196,185,cs),
(196,542,ls),
(196,605,o),
(217,605,o),
(268,605,cs),
(282,605,l),
(282,632,l),
(234,630,o),
(184,629,o),
(154,629,cs),
(118,629,o),
(86,631,o),
(32,632,c),
(32,605,l),
(51,605,ls),
(95,605,o),
(111,599,o),
(111,542,cs),
(111,178,ls),
(111,83,o),
(182,-13,o),
(355,-13,cs)
);
}
);
width = 676;
},
{
layerId = "3B95F746-F211-4218-A5C8-A7CCC072D238";
shapes = (
{
closed = 1;
nodes = (
(555,-12,o),
(653,71,o),
(653,218,cs),
(653,437,ls),
(653,547,o),
(616,637,o),
(492,637,cs),
(433,637,o),
(396,612,o),
(396,582,cs),
(396,565,o),
(409,549,o),
(428,549,cs),
(470,549,o),
(490,604,o),
(522,604,cs),
(559,604,o),
(584,555,o),
(584,502,cs),
(584,187,ls),
(584,105,o),
(535,36,o),
(395,36,cs),
(294,36,o),
(244,85,o),
(244,206,cs),
(244,545,ls),
(244,598,o),
(282,598,o),
(328,598,c),
(329,598,l),
(329,632,l),
(271,632,o),
(235,629,o),
(165,629,cs),
(131,629,o),
(63,632,o),
(10,632,c),
(10,598,l),
(11,598,l),
(54,598,o),
(85,598,o),
(85,545,cs),
(85,208,ls),
(85,64,o),
(193,-12,o),
(366,-12,cs)
);
}
);
width = 739;
},
{
layerId = "D1413726-767D-4628-9B63-3A1C0748A050";
shapes = (
{
closed = 1;
nodes = (
(540,-13,o),
(596,94,o),
(596,189,cs),
(596,448,ls),
(596,558,o),
(572,637,o),
(458,637,cs),
(411,637,o),
(381,621,o),
(381,598,cs),
(381,580,o),
(394,569,o),
(413,569,cs),
(441,569,o),
(458,625,o),
(488,625,cs),
(532,625,o),
(562,576,o),
(562,513,cs),
(562,174,ls),
(562,67,o),
(500,13,o),
(386,13,cs),
(243,13,o),
(190,93,o),
(190,185,cs),
(190,558,ls),
(190,621,o),
(211,621,o),
(262,621,cs),
(276,621,l),
(276,632,l),
(228,630,o),
(178,629,o),
(154,629,cs),
(118,629,o),
(86,631,o),
(32,632,c),
(32,621,l),
(51,621,ls),
(95,621,o),
(111,616,o),
(111,558,cs),
(111,178,ls),
(111,83,o),
(181,-13,o),
(353,-13,cs)
);
}
);
width = 673;
},
{
layerId = "E7B116FE-7576-4B50-8DFF-8E55DA3EEB52";
shapes = (
{
closed = 1;
nodes = (
(564,-12,o),
(653,60,o),
(653,218,cs),
(653,437,ls),
(653,547,o),
(616,637,o),
(492,637,cs),
(433,637,o),
(396,612,o),
(396,582,cs),
(396,565,o),
(409,549,o),
(428,549,cs),
(470,549,o),
(490,622,o),
(522,622,cs),
(570,622,o),
(603,567,o),
(603,508,cs),
(603,211,ls),
(603,104,o),
(555,23,o),
(418,23,cs),
(309,23,o),
(257,78,o),
(257,195,cs),
(257,565,ls),
(257,618,o),
(295,618,o),
(341,618,c),
(342,618,l),
(342,632,l),
(284,632,o),
(248,629,o),
(211,629,cs),
(166,629,o),
(76,632,o),
(12,632,c),
(12,618,l),
(13,618,l),
(62,618,o),
(96,618,o),
(96,565,cs),
(96,199,ls),
(96,64,o),
(209,-12,o),
(389,-12,cs)
);
}
);
width = 734;
}
);
metricRight = "=O*1.8";
unicode = 434;
},
{
color = 3;
glyphname = W;
kernLeft = V;
kernRight = V;
lastChange = "2024-10-18 09:19:06 +0000";
layers = (
{
anchors = (
{
name = bottom;
pos = (402,0);
},
{
name = top;
pos = (402,629);
}
);
background = {
shapes = (
{
closed = 1;
nodes = (
(300,-13,l),
(491,534,ls),
(509,584,o),
(522,605,o),
(567,605,cs),
(585,605,l),
(585,632,l),
(563,632,o),
(525,629,o),
(495,629,cs),
(461,629,o),
(415,632,o),
(400,632,c),
(400,605,l),
(422,605,ls),
(451,605,o),
(470,598,o),
(470,573,cs),
(470,557,o),
(463,535,o),
(453,507,cs),
(298,63,l),
(322,75,l),
(147,552,ls),
(144,561,o),
(139,573,o),
(139,580,cs),
(139,604,o),
(162,605,o),
(192,605,c),
(193,605,l),
(193,632,l),
(159,631,o),
(128,629,o),
(88,629,cs),
(55,629,o),
(32,631,o),
(0,632,c),
(0,605,l),
(1,605,l),
(48,605,o),
(53,589,o),
(79,519,cs),
(275,-13,l)
);
},
{
closed = 1;
nodes = (
(535,-13,l),
(726,534,ls),
(743,584,o),
(755,605,o),
(798,605,cs),
(803,605,l),
(803,632,l),
(782,632,o),
(758,629,o),
(730,629,cs),
(696,629,o),
(650,632,o),
(635,632,c),
(635,605,l),
(657,605,ls),
(686,605,o),
(705,598,o),
(705,573,cs),
(705,557,o),
(698,535,o),
(688,507,cs),
(533,63,l),
(557,75,l),
(382,552,ls),
(379,561,o),
(374,573,o),
(374,580,cs),
(374,604,o),
(397,605,o),
(427,605,c),
(428,605,l),
(428,632,l),
(394,631,o),
(363,629,o),
(323,629,cs),
(290,629,o),
(267,631,o),
(235,632,c),
(235,605,l),
(236,605,l),
(283,605,o),
(288,589,o),
(314,519,cs),
(510,-13,l)
);
}
);
};
hints = (
{
horizontal = 1;
origin = (0,72);
target = (0,73);
type = Stem;
},
{
horizontal = 1;
origin = (0,78);
target = up;
type = BottomGhost;
}
);
layerId = "C56BE457-17E3-437C-A42F-4BD1DE972727";
shapes = (
{
closed = 1;
nodes = (
(300,-13,l),
(491,534,ls),
(509,584,o),
(522,605,o),
(567,605,cs),
(585,605,l),
(585,632,l),
(563,632,o),
(525,629,o),
(495,629,cs),
(323,629,ls),
(290,629,o),
(267,631,o),
(235,632,c),
(235,605,l),
(236,605,l),
(283,605,o),
(288,589,o),
(314,519,cs),
(510,-13,l),
(535,-13,l),
(726,534,ls),
(743,584,o),
(755,605,o),
(798,605,cs),
(803,605,l),
(803,632,l),
(782,632,o),
(758,629,o),
(730,629,cs),
(696,629,o),
(650,632,o),
(635,632,c),
(635,605,l),
(657,605,ls),
(686,605,o),
(705,598,o),
(705,573,cs),
(705,557,o),
(698,535,o),
(688,507,cs),
(533,63,l),
(557,75,l),
(382,552,ls),
(379,561,o),
(374,573,o),
(374,580,cs),
(374,604,o),
(392,605,o),
(422,605,cs),
(451,605,o),
(470,598,o),
(470,573,cs),
(470,557,o),
(463,535,o),
(453,507,cs),
(298,63,l),
(322,75,l),
(147,552,ls),
(144,561,o),
(139,573,o),
(139,580,cs),
(139,604,o),
(162,605,o),
(192,605,c),
(193,605,l),
(193,632,l),
(159,631,o),
(128,629,o),
(88,629,cs),
(55,629,o),
(32,631,o),
(0,632,c),
(0,605,l),
(1,605,l),
(48,605,o),
(53,589,o),
(79,519,cs),
(275,-13,l)
);
}
);
width = 803;
},
{
anchors = (
{
name = bottom;
pos = (470,0);
},
{
name = top;
pos = (470,629);
}
);
background = {
shapes = (
{
closed = 1;
nodes = (
(335,-16,l),
(532,442,ls),
(581,555,o),
(714,560,o),
(658,560,cs),
(643,560,l),
(643,585,l),
(610,585,o),
(543,582,o),
(543,582,cs),
(545,582,o),
(468,585,o),
(443,585,c),
(443,560,l),
(425,560,ls),
(388,560,o),
(499,562,o),
(499,511,cs),
(499,480,o),
(488,439,o),
(462,381,cs),
(370,173,l),
(250,417,ls),
(248,421,o),
(223,473,o),
(223,519,cs),
(223,561,o),
(258,560,o),
(275,560,c),
(276,560,l),
(276,585,l),
(206,586,o),
(152,582,o),
(138,582,cs),
(122,582,o),
(33,586,o),
(-38,585,c),
(-38,560,l),
(-21,560,l),
(28,560,o),
(54,506,o),
(84,441,cs),
(296,-16,l)
);
}
);
};
layerId = "3B95F746-F211-4218-A5C8-A7CCC072D238";
shapes = (
{
closed = 1;
nodes = (
(343,-17,l),
(591,495,ls),
(622,559,o),
(640,600,o),
(694,600,c),
(705,600,l),
(705,632,l),
(674,632,o),
(608,629,o),
(592,629,c),
(402,629,l),
(369,629,o),
(315,632,o),
(273,632,c),
(273,600,l),
(275,600,ls),
(315,600,o),
(326,570,o),
(355,501,cs),
(571,-17,l),
(616,-17,l),
(844,495,ls),
(873,560,o),
(893,600,o),
(947,600,c),
(949,600,l),
(949,632,l),
(918,632,o),
(861,629,o),
(845,629,cs),
(829,629,o),
(776,632,o),
(752,632,c),
(752,600,l),
(759,600,ls),
(784,600,o),
(807,593,o),
(807,556,cs),
(807,531,o),
(799,496,o),
(780,453,cs),
(644,143,l),
(656,144,l),
(514,501,ls),
(507,518,o),
(493,549,o),
(493,571,cs),
(493,593,o),
(506,598,o),
(532,598,cs),
(554,598,o),
(567,596,o),
(567,570,cs),
(567,538,o),
(551,501,o),
(527,453,cs),
(371,143,l),
(383,144,l),
(241,501,ls),
(234,518,o),
(220,549,o),
(220,571,cs),
(220,596,o),
(242,600,o),
(262,600,c),
(263,600,l),
(263,632,l),
(235,632,o),
(178,629,o),
(129,629,cs),
(96,629,o),
(42,632,o),
(0,632,c),
(0,600,l),
(2,600,ls),
(42,600,o),
(53,570,o),
(82,501,cs),
(298,-17,l)
);
}
);
width = 940;
},
{
anchors = (
{
name = bottom;
pos = (392,0);
},
{
name = top;
pos = (392,629);
}
);
layerId = "D1413726-767D-4628-9B63-3A1C0748A050";
shapes = (
{
closed = 1;
nodes = (
(304,-13,l),
(495,550,ls),
(512,600,o),
(526,621,o),
(571,621,cs),
(579,621,l),
(579,632,l),
(559,632,o),
(526,629,o),
(499,629,c),
(312,629,l),
(284,629,o),
(255,631,o),
(225,632,c),
(225,621,l),
(226,621,l),
(265,621,o),
(275,603,o),
(299,536,cs),
(499,-13,l),
(524,-13,l),
(715,550,ls),
(732,599,o),
(742,621,o),
(781,621,cs),
(795,621,l),
(795,632,l),
(778,632,o),
(743,629,o),
(719,629,cs),
(688,629,o),
(642,632,o),
(628,632,c),
(628,621,l),
(650,621,ls),
(679,621,o),
(700,615,o),
(700,590,cs),
(700,573,o),
(694,551,o),
(684,523,cs),
(526,56,l),
(546,72,l),
(368,568,ls),
(365,577,o),
(360,590,o),
(360,599,cs),
(360,618,o),
(387,619,o),
(423,619,cs),
(458,619,o),
(480,615,o),
(480,590,cs),
(480,573,o),
(474,551,o),
(464,523,cs),
(305,56,l),
(326,72,l),
(148,568,ls),
(145,577,o),
(140,590,o),
(140,596,cs),
(140,620,o),
(158,621,o),
(183,621,c),
(184,621,l),
(184,632,l),
(154,631,o),
(123,629,o),
(92,629,cs),
(59,629,o),
(25,631,o),
(-11,632,c),
(-11,621,l),
(-10,621,l),
(48,621,o),
(54,605,o),
(79,536,cs),
(279,-13,l)
);
}
);
width = 784;
},
{
anchors = (
{
name = bottom;
pos = (444,0);
},
{
name = top;
pos = (444,629);
}
);
background = {
shapes = (
{
closed = 1;
nodes = (
(339,-16,l),
(518,422,ls),
(559,521,o),
(577,554,o),
(627,554,c),
(628,554,l),
(628,585,l),
(600,585,o),
(547,582,o),
(532,582,cs),
(516,582,o),
(456,585,o),
(437,585,c),
(437,554,l),
(438,554,l),
(470,554,o),
(497,552,o),
(497,515,cs),
(497,492,o),
(488,461,o),
(471,419,cs),
(368,171,l),
(244,455,ls),
(238,469,o),
(227,499,o),
(227,519,cs),
(227,551,o),
(257,554,o),
(282,554,c),
(283,554,l),
(283,585,l),
(253,585,o),
(193,582,o),
(131,582,cs),
(96,582,o),
(36,585,o),
(-16,585,c),
(-16,554,l),
(-7,554,ls),
(44,554,o),
(57,519,o),
(86,455,cs),
(297,-16,l)
);
}
);
};
layerId = "E7B116FE-7576-4B50-8DFF-8E55DA3EEB52";
shapes = (
{
closed = 1;
nodes = (
(331,-15,l),
(558,518,ls),
(595,604,o),
(611,618,o),
(664,618,c),
(665,618,l),
(665,632,l),
(636,632,o),
(581,629,o),
(566,629,c),
(396,629,l),
(354,629,o),
(317,632,o),
(268,632,c),
(268,618,l),
(269,618,ls),
(302,618,o),
(311,586,o),
(342,511,cs),
(557,-15,l),
(594,-15,l),
(821,518,ls),
(856,601,o),
(864,618,o),
(907,618,c),
(908,618,l),
(908,632,l),
(885,632,o),
(841,629,o),
(829,629,cs),
(812,629,o),
(755,632,o),
(735,632,c),
(735,618,l),
(736,618,l),
(771,618,o),
(800,616,o),
(800,576,cs),
(800,551,o),
(791,517,o),
(772,472,cs),
(633,141,l),
(644,142,l),
(495,514,ls),
(485,538,o),
(477,562,o),
(477,587,cs),
(477,612,o),
(492,618,o),
(505,618,cs),
(518,618,o),
(539,616,o),
(539,576,cs),
(539,551,o),
(530,517,o),
(511,472,cs),
(370,141,l),
(385,142,l),
(232,514,ls),
(222,538,o),
(212,562,o),
(212,587,cs),
(212,618,o),
(233,618,o),
(251,618,c),
(252,618,l),
(252,632,l),
(204,632,o),
(150,629,o),
(123,629,cs),
(81,629,o),
(38,632,o),
(-11,632,c),
(-11,618,l),
(-10,618,ls),
(23,618,o),
(37,586,o),
(69,511,cs),
(294,-15,l)
);
}
);
width = 887;
}
);
metricLeft = A;
metricRight = A;
note = V;
unicode = 87;
},
{
color = 3;
glyphname = X;
kernLeft = X;
kernRight = X;
lastChange = "2024-10-18 09:19:06 +0000";
layers = (
{
anchors = (
{
name = bottom;
pos = (325,0);
},
{
name = top;
pos = (325,629);
}
);
hints = (
{
horizontal = 1;
origin = (1,21);
target = (1,20);
type = Stem;
},
{
horizontal = 1;
origin = (2,11);
target = (2,13);
type = Stem;
}
);
layerId = "C56BE457-17E3-437C-A42F-4BD1DE972727";
shapes = (
{
closed = 1;
nodes = (
(403,-3,o),
(455,0,o),
(517,0,cs),
(541,0,o),
(594,-2,o),
(639,-3,c),
(639,24,l),
(633,24,ls),
(583,24,o),
(570,35,o),
(527,103,c),
(238,541,l),
(232,551,o),
(224,565,o),
(224,577,cs),
(224,604,o),
(250,605,o),
(269,605,cs),
(287,605,l),
(287,632,l),
(260,630,o),
(220,629,o),
(163,629,cs),
(135,629,o),
(84,630,o),
(35,632,c),
(35,605,l),
(87,605,o),
(106,605,o),
(144,546,c),
(438,98,ls),
(453,76,o),
(459,62,o),
(459,51,cs),
(459,36,o),
(442,24,o),
(403,24,cs),
(391,24,l),
(391,-3,l)
);
},
{
closed = 1;
nodes = (
(57,-2,o),
(118,0,o),
(130,0,cs),
(143,0,o),
(202,-2,o),
(234,-3,c),
(234,24,l),
(220,24,ls),
(198,24,o),
(173,27,o),
(173,53,cs),
(173,59,o),
(175,72,o),
(191,98,cs),
(337,326,l),
(327,355,l),
(151,91,ls),
(116,38,o),
(91,24,o),
(40,24,cs),
(22,24,l),
(22,-3,l)
);
},
{
closed = 1;
nodes = (
(484,541,ls),
(516,590,o),
(536,605,o),
(586,605,cs),
(597,605,l),
(597,632,l),
(578,632,o),
(534,629,o),
(502,629,cs),
(465,629,o),
(429,632,o),
(407,632,c),
(407,605,l),
(419,605,ls),
(444,605,o),
(469,605,o),
(469,579,cs),
(469,566,o),
(459,551,o),
(442,525,cs),
(333,359,l),
(350,339,l)
);
}
);
width = 650;
},
{
anchors = (
{
name = bottom;
pos = (359,0);
},
{
name = top;
pos = (359,629);
}
);
background = {
shapes = (
{
closed = 1;
nodes = (
(357,-3,o),
(405,0,o),
(459,0,cs),
(571,0,o),
(620,-2,o),
(662,-3,c),
(662,24,l),
(656,24,ls),
(610,24,o),
(604,36,o),
(558,97,c),
(273,497,l),
(267,506,o),
(260,519,o),
(260,530,cs),
(260,555,o),
(284,556,o),
(301,556,cs),
(318,556,l),
(318,585,l),
(293,583,o),
(256,582,o),
(131,582,cs),
(73,582,o),
(26,583,o),
(-20,585,c),
(-20,556,l),
(29,556,o),
(58,544,o),
(99,490,c),
(387,93,ls),
(401,72,o),
(407,59,o),
(407,49,cs),
(407,35,o),
(391,24,o),
(357,24,cs),
(346,24,l),
(346,-3,l)
);
},
{
closed = 1;
nodes = (
(15,-2,o),
(89,0,o),
(100,0,cs),
(112,0,o),
(173,-2,o),
(203,-3,c),
(203,24,l),
(190,24,ls),
(169,24,o),
(146,27,o),
(146,51,cs),
(146,81,o),
(154,93,o),
(209,167,cs),
(292,264,l),
(263,291,l),
(100,86,ls),
(61,37,o),
(24,24,o),
(-23,24,cs),
(-18,24,l),
(-18,-3,l)
);
},
{
closed = 1;
nodes = (
(518,497,ls),
(552,540,o),
(568,556,o),
(615,556,cs),
(625,556,l),
(625,585,l),
(607,585,o),
(566,582,o),
(537,582,cs),
(477,582,o),
(443,585,o),
(423,585,c),
(423,556,l),
(434,556,ls),
(457,556,o),
(480,556,o),
(480,532,cs),
(480,520,o),
(473,506,o),
(455,482,cs),
(372,374,l),
(388,336,l)
);
}
);
};
layerId = "3B95F746-F211-4218-A5C8-A7CCC072D238";
shapes = (
{
closed = 1;
nodes = (
(386,-3,o),
(437,0,o),
(496,0,cs),
(595,0,o),
(656,-2,o),
(706,-3,c),
(706,29,l),
(700,29,ls),
(650,29,o),
(640,42,o),
(594,108,cs),
(304,522,ls),
(287,546,o),
(280,560,o),
(280,574,cs),
(280,594,o),
(300,600,o),
(324,600,cs),
(342,600,l),
(342,632,l),
(315,630,o),
(279,629,o),
(166,629,cs),
(108,629,o),
(64,630,o),
(21,632,c),
(21,600,l),
(64,600,o),
(79,591,o),
(118,536,cs),
(419,104,ls),
(435,81,o),
(441,67,o),
(441,57,cs),
(441,41,o),
(423,29,o),
(398,29,cs),
(374,29,l),
(374,-3,l)
);
},
{
closed = 1;
nodes = (
(48,-2,o),
(118,0,o),
(130,0,cs),
(143,0,o),
(216,-2,o),
(248,-3,c),
(248,29,l),
(234,29,ls),
(214,29,o),
(193,32,o),
(193,58,cs),
(193,78,o),
(208,105,o),
(236,145,cs),
(344,298,l),
(315,327,l),
(140,96,ls),
(101,45,o),
(69,29,o),
(18,29,cs),
(12,29,l),
(12,-3,l)
);
},
{
closed = 1;
nodes = (
(554,537,ls),
(590,584,o),
(607,600,o),
(658,600,cs),
(669,600,l),
(669,632,l),
(649,632,o),
(605,629,o),
(573,629,cs),
(507,629,o),
(470,632,o),
(449,632,c),
(449,600,l),
(461,600,ls),
(485,600,o),
(510,600,o),
(510,574,cs),
(510,561,o),
(502,546,o),
(479,514,cs),
(381,377,l),
(414,351,l)
);
}
);
width = 717;
},
{
anchors = (
{
name = bottom;
pos = (325,0);
},
{
name = top;
pos = (325,629);
}
);
layerId = "D1413726-767D-4628-9B63-3A1C0748A050";
shapes = (
{
closed = 1;
nodes = (
(407,-3,o),
(459,0,o),
(517,0,cs),
(541,0,o),
(594,-2,o),
(639,-3,c),
(639,8,l),
(633,8,ls),
(583,8,o),
(570,18,o),
(527,86,c),
(234,557,l),
(228,567,o),
(220,581,o),
(220,593,cs),
(220,620,o),
(246,621,o),
(265,621,cs),
(283,621,l),
(283,632,l),
(256,630,o),
(216,629,o),
(163,629,cs),
(135,629,o),
(84,630,o),
(35,632,c),
(35,621,l),
(87,621,o),
(106,621,o),
(144,563,c),
(442,82,ls),
(456,59,o),
(463,45,o),
(463,35,cs),
(463,19,o),
(446,8,o),
(407,8,cs),
(395,8,l),
(395,-3,l)
);
},
{
closed = 1;
nodes = (
(57,-2,o),
(118,0,o),
(130,0,cs),
(143,0,o),
(194,-2,o),
(227,-3,c),
(227,8,l),
(213,8,ls),
(190,8,o),
(165,11,o),
(165,37,cs),
(165,43,o),
(169,57,o),
(184,82,cs),
(332,326,l),
(329,355,l),
(153,75,ls),
(119,21,o),
(91,8,o),
(40,8,cs),
(22,8,l),
(22,-3,l)
);
},
{
closed = 1;
nodes = (
(481,557,ls),
(512,607,o),
(536,621,o),
(586,621,cs),
(597,621,l),
(597,632,l),
(578,632,o),
(534,629,o),
(502,629,cs),
(471,629,o),
(434,632,o),
(413,632,c),
(413,621,l),
(424,621,ls),
(449,621,o),
(474,621,o),
(474,595,cs),
(474,582,o),
(463,567,o),
(447,541,cs),
(341,370,l),
(351,351,l)
);
}
);
width = 650;
},
{
anchors = (
{
name = bottom;
pos = (354,0);
},
{
name = top;
pos = (354,629);
}
);
background = {
shapes = (
{
closed = 1;
nodes = (
(357,-3,o),
(405,0,o),
(459,0,cs),
(551,0,o),
(607,-2,o),
(654,-3,c),
(654,28,l),
(648,28,ls),
(602,28,o),
(593,39,o),
(550,101,cs),
(272,495,l),
(266,504,o),
(259,517,o),
(259,528,cs),
(259,553,o),
(283,554,o),
(300,554,cs),
(317,554,l),
(317,585,l),
(292,583,o),
(258,582,o),
(154,582,cs),
(100,582,o),
(59,583,o),
(19,585,c),
(19,554,l),
(59,554,o),
(73,545,o),
(109,494,cs),
(388,97,ls),
(403,76,o),
(408,63,o),
(408,53,cs),
(408,39,o),
(392,28,o),
(357,28,cs),
(346,28,l),
(346,-3,l)
);
},
{
closed = 1;
nodes = (
(44,-2,o),
(109,0,o),
(120,0,cs),
(132,0,o),
(197,-2,o),
(227,-3,c),
(227,28,l),
(214,28,ls),
(193,28,o),
(170,31,o),
(170,55,cs),
(170,73,o),
(174,85,o),
(210,134,cs),
(319,283,l),
(293,310,l),
(130,90,ls),
(94,41,o),
(64,28,o),
(17,28,cs),
(11,28,l),
(11,-3,l)
);
},
{
closed = 1;
nodes = (
(513,495,ls),
(546,539,o),
(562,554,o),
(609,554,cs),
(619,554,l),
(619,585,l),
(601,585,o),
(560,582,o),
(531,582,cs),
(476,582,o),
(442,585,o),
(422,585,c),
(422,554,l),
(433,554,ls),
(456,554,o),
(479,554,o),
(479,530,cs),
(479,518,o),
(471,504,o),
(454,480,cs),
(362,349,l),
(386,325,l)
);
}
);
};
layerId = "E7B116FE-7576-4B50-8DFF-8E55DA3EEB52";
shapes = (
{
closed = 1;
nodes = (
(386,-3,o),
(437,0,o),
(517,0,cs),
(611,0,o),
(664,-2,o),
(710,-3,c),
(710,11,l),
(703,11,ls),
(653,11,o),
(640,23,o),
(597,90,cs),
(297,553,ls),
(291,563,o),
(283,577,o),
(283,589,cs),
(283,616,o),
(309,618,o),
(327,618,cs),
(346,618,l),
(346,632,l),
(319,630,o),
(257,629,o),
(141,629,cs),
(99,629,o),
(53,630,o),
(6,632,c),
(6,618,l),
(55,618,o),
(76,610,o),
(114,552,cs),
(419,85,ls),
(434,63,o),
(441,49,o),
(441,38,cs),
(441,23,o),
(423,11,o),
(386,11,cs),
(374,11,l),
(374,-3,l)
);
},
{
closed = 1;
nodes = (
(26,-2,o),
(96,0,o),
(108,0,cs),
(121,0,o),
(184,-2,o),
(216,-3,c),
(216,11,l),
(202,11,ls),
(179,11,o),
(154,14,o),
(154,40,cs),
(154,59,o),
(157,72,o),
(195,125,cs),
(324,306,l),
(311,335,l),
(124,78,ls),
(86,26,o),
(48,11,o),
(-3,11,cs),
(-10,11,l),
(-10,-3,l)
);
},
{
closed = 1;
nodes = (
(550,553,ls),
(585,600,o),
(607,618,o),
(658,618,cs),
(669,618,l),
(669,632,l),
(649,632,o),
(605,629,o),
(573,629,cs),
(523,629,o),
(486,632,o),
(464,632,c),
(464,618,l),
(476,618,ls),
(501,618,o),
(526,618,o),
(526,592,cs),
(526,578,o),
(519,563,o),
(501,537,cs),
(391,381,l),
(402,351,l)
);
}
);
width = 708;
}
);
note = X;
unicode = 88;
},
